G04 #@! TF.GenerationSoftware,KiCad,Pcbnew,(7.0.0)*
G04 #@! TF.CreationDate,2023-02-14T22:37:05+01:00*
G04 #@! TF.ProjectId,MPad2040_V1,4d506164-3230-4343-905f-56312e6b6963,1.1*
G04 #@! TF.SameCoordinates,Original*
G04 #@! TF.FileFunction,Paste,Top*
G04 #@! TF.FilePolarity,Positive*
%FSLAX46Y46*%
G04 Gerber Fmt 4.6, Leading zero omitted, Abs format (unit mm)*
G04 Created by KiCad (PCBNEW (7.0.0)) date 2023-02-14 22:37:05*
%MOMM*%
%LPD*%
G01*
G04 APERTURE LIST*
G04 Aperture macros list*
%AMRoundRect*
0 Rectangle with rounded corners*
0 $1 Rounding radius*
0 $2 $3 $4 $5 $6 $7 $8 $9 X,Y pos of 4 corners*
0 Add a 4 corners polygon primitive as box body*
4,1,4,$2,$3,$4,$5,$6,$7,$8,$9,$2,$3,0*
0 Add four circle primitives for the rounded corners*
1,1,$1+$1,$2,$3*
1,1,$1+$1,$4,$5*
1,1,$1+$1,$6,$7*
1,1,$1+$1,$8,$9*
0 Add four rect primitives between the rounded corners*
20,1,$1+$1,$2,$3,$4,$5,0*
20,1,$1+$1,$4,$5,$6,$7,0*
20,1,$1+$1,$6,$7,$8,$9,0*
20,1,$1+$1,$8,$9,$2,$3,0*%
G04 Aperture macros list end*
%ADD10C,0.100000*%
%ADD11R,1.100000X1.100000*%
%ADD12RoundRect,0.200000X0.200000X0.275000X-0.200000X0.275000X-0.200000X-0.275000X0.200000X-0.275000X0*%
%ADD13RoundRect,0.200000X-0.275000X0.200000X-0.275000X-0.200000X0.275000X-0.200000X0.275000X0.200000X0*%
%ADD14RoundRect,0.218750X0.218750X0.256250X-0.218750X0.256250X-0.218750X-0.256250X0.218750X-0.256250X0*%
%ADD15RoundRect,0.250000X-0.625000X0.375000X-0.625000X-0.375000X0.625000X-0.375000X0.625000X0.375000X0*%
%ADD16RoundRect,0.140000X-0.140000X-0.170000X0.140000X-0.170000X0.140000X0.170000X-0.140000X0.170000X0*%
%ADD17RoundRect,0.140000X0.140000X0.170000X-0.140000X0.170000X-0.140000X-0.170000X0.140000X-0.170000X0*%
%ADD18R,2.000000X1.500000*%
%ADD19R,2.000000X3.800000*%
%ADD20R,0.750000X2.100000*%
%ADD21R,1.000000X0.750000*%
%ADD22RoundRect,0.140000X0.170000X-0.140000X0.170000X0.140000X-0.170000X0.140000X-0.170000X-0.140000X0*%
%ADD23R,0.532600X1.487399*%
%ADD24RoundRect,0.135000X0.185000X-0.135000X0.185000X0.135000X-0.185000X0.135000X-0.185000X-0.135000X0*%
%ADD25RoundRect,0.250000X0.450000X0.425000X-0.450000X0.425000X-0.450000X-0.425000X0.450000X-0.425000X0*%
%ADD26R,0.600000X1.160000*%
%ADD27R,0.300000X1.160000*%
%ADD28RoundRect,0.200000X-0.200000X-0.275000X0.200000X-0.275000X0.200000X0.275000X-0.200000X0.275000X0*%
%ADD29RoundRect,0.140000X-0.170000X0.140000X-0.170000X-0.140000X0.170000X-0.140000X0.170000X0.140000X0*%
%ADD30R,0.807999X0.178600*%
%ADD31R,0.178600X0.807999*%
%ADD32RoundRect,0.250000X-0.450000X-0.425000X0.450000X-0.425000X0.450000X0.425000X-0.450000X0.425000X0*%
%ADD33R,1.400000X1.200000*%
G04 APERTURE END LIST*
G36*
X164824000Y-55780000D02*
G01*
X163423800Y-55780000D01*
X163423800Y-54379800D01*
X164824000Y-54379800D01*
X164824000Y-55780000D01*
G37*
D10*
X164824000Y-55780000D02*
X163423800Y-55780000D01*
X163423800Y-54379800D01*
X164824000Y-54379800D01*
X164824000Y-55780000D01*
G36*
X164824000Y-57380200D02*
G01*
X163423800Y-57380200D01*
X163423800Y-55980000D01*
X164824000Y-55980000D01*
X164824000Y-57380200D01*
G37*
X164824000Y-57380200D02*
X163423800Y-57380200D01*
X163423800Y-55980000D01*
X164824000Y-55980000D01*
X164824000Y-57380200D01*
G36*
X166424200Y-55780000D02*
G01*
X165024000Y-55780000D01*
X165024000Y-54379800D01*
X166424200Y-54379800D01*
X166424200Y-55780000D01*
G37*
X166424200Y-55780000D02*
X165024000Y-55780000D01*
X165024000Y-54379800D01*
X166424200Y-54379800D01*
X166424200Y-55780000D01*
G36*
X166424200Y-57380200D02*
G01*
X165024000Y-57380200D01*
X165024000Y-55980000D01*
X166424200Y-55980000D01*
X166424200Y-57380200D01*
G37*
X166424200Y-57380200D02*
X165024000Y-57380200D01*
X165024000Y-55980000D01*
X166424200Y-55980000D01*
X166424200Y-57380200D01*
D11*
X130252999Y-130939999D03*
X130252999Y-128139999D03*
D12*
X161304000Y-63996200D03*
X159654000Y-63996200D03*
D13*
X168000000Y-41175000D03*
X168000000Y-42825000D03*
D14*
X139930500Y-49022000D03*
X138355500Y-49022000D03*
D11*
X149302999Y-131066999D03*
X149302999Y-128266999D03*
D15*
X145874000Y-38227000D03*
X145874000Y-41027000D03*
D16*
X168370000Y-51650000D03*
X169330000Y-51650000D03*
D11*
X149302999Y-111889999D03*
X149302999Y-109089999D03*
D17*
X160324000Y-56896000D03*
X159364000Y-56896000D03*
D11*
X168352999Y-92839999D03*
X168352999Y-90039999D03*
D18*
X148388999Y-54242999D03*
X148388999Y-51942999D03*
D19*
X142088999Y-51942999D03*
D18*
X148388999Y-49642999D03*
D16*
X157586000Y-63754000D03*
X158546000Y-63754000D03*
D20*
X171654999Y-60048999D03*
X171654999Y-63648999D03*
X172924999Y-60048999D03*
X172924999Y-63648999D03*
X174194999Y-60048999D03*
X174194999Y-63648999D03*
X175464999Y-60048999D03*
X175464999Y-63648999D03*
X176734999Y-60048999D03*
X176734999Y-63648999D03*
D12*
X139968000Y-50673000D03*
X138318000Y-50673000D03*
D14*
X149430000Y-38227000D03*
X147855000Y-38227000D03*
D11*
X121619999Y-95884999D03*
X118819999Y-95884999D03*
D16*
X167746000Y-60452000D03*
X168706000Y-60452000D03*
D21*
X178687999Y-59211999D03*
X178687999Y-62961999D03*
X184687999Y-59211999D03*
X184687999Y-62961999D03*
D22*
X163550000Y-50330000D03*
X163550000Y-49370000D03*
D11*
X149302999Y-92839999D03*
X149302999Y-90039999D03*
D23*
X153366999Y-55346599D03*
X154636999Y-55346599D03*
X155906999Y-55346599D03*
X157176999Y-55346599D03*
X157176999Y-48031399D03*
X155906999Y-48031399D03*
X154636999Y-48031399D03*
X153366999Y-48031399D03*
D11*
X121619999Y-133984999D03*
X118819999Y-133984999D03*
D24*
X166650000Y-50860000D03*
X166650000Y-49840000D03*
D11*
X146889999Y-149989999D03*
X146889999Y-147189999D03*
X168352999Y-111889999D03*
X168352999Y-109089999D03*
D21*
X153572999Y-62961999D03*
X153572999Y-59211999D03*
X147572999Y-62961999D03*
X147572999Y-59211999D03*
D25*
X148494000Y-47117000D03*
X145794000Y-47117000D03*
D26*
X169699999Y-39009999D03*
X168899999Y-39009999D03*
D27*
X167749999Y-39009999D03*
X166749999Y-39009999D03*
X166249999Y-39009999D03*
X165249999Y-39009999D03*
D26*
X164099999Y-39009999D03*
X163299999Y-39009999D03*
X163299999Y-39009999D03*
X164099999Y-39009999D03*
D27*
X164749999Y-39009999D03*
X165749999Y-39009999D03*
X167249999Y-39009999D03*
X168249999Y-39009999D03*
D26*
X168899999Y-39009999D03*
X169699999Y-39009999D03*
D22*
X162384000Y-61440000D03*
X162384000Y-60480000D03*
D12*
X152668000Y-57404000D03*
X151018000Y-57404000D03*
D11*
X121619999Y-153669999D03*
X118819999Y-153669999D03*
X130252999Y-92839999D03*
X130252999Y-90039999D03*
X130252999Y-111889999D03*
X130252999Y-109089999D03*
D28*
X167782000Y-61722000D03*
X169432000Y-61722000D03*
D29*
X164846000Y-60759400D03*
X164846000Y-61719400D03*
D17*
X160324000Y-53238400D03*
X159364000Y-53238400D03*
D11*
X130252999Y-149989999D03*
X130252999Y-147189999D03*
D24*
X165650000Y-50860000D03*
X165650000Y-49840000D03*
D30*
X161522799Y-53238399D03*
X161522799Y-53644799D03*
X161522799Y-54051199D03*
X161522799Y-54457599D03*
X161522799Y-54863999D03*
X161522799Y-55270399D03*
X161522799Y-55676799D03*
X161522799Y-56083199D03*
X161522799Y-56489599D03*
X161522799Y-56895999D03*
X161522799Y-57302399D03*
X161522799Y-57708799D03*
X161522799Y-58115199D03*
X161522799Y-58521599D03*
D31*
X162282399Y-59281199D03*
X162688799Y-59281199D03*
X163095199Y-59281199D03*
X163501599Y-59281199D03*
X163907999Y-59281199D03*
X164314399Y-59281199D03*
X164720799Y-59281199D03*
X165127199Y-59281199D03*
X165533599Y-59281199D03*
X165939999Y-59281199D03*
X166346399Y-59281199D03*
X166752799Y-59281199D03*
X167159199Y-59281199D03*
X167565599Y-59281199D03*
D30*
X168325199Y-58521599D03*
X168325199Y-58115199D03*
X168325199Y-57708799D03*
X168325199Y-57302399D03*
X168325199Y-56895999D03*
X168325199Y-56489599D03*
X168325199Y-56083199D03*
X168325199Y-55676799D03*
X168325199Y-55270399D03*
X168325199Y-54863999D03*
X168325199Y-54457599D03*
X168325199Y-54051199D03*
X168325199Y-53644799D03*
X168325199Y-53238399D03*
D31*
X167565599Y-52478799D03*
X167159199Y-52478799D03*
X166752799Y-52478799D03*
X166346399Y-52478799D03*
X165939999Y-52478799D03*
X165533599Y-52478799D03*
X165127199Y-52478799D03*
X164720799Y-52478799D03*
X164314399Y-52478799D03*
X163907999Y-52478799D03*
X163501599Y-52478799D03*
X163095199Y-52478799D03*
X162688799Y-52478799D03*
X162282399Y-52478799D03*
D11*
X168352999Y-73789999D03*
X168352999Y-70989999D03*
X179785999Y-38353999D03*
X176985999Y-38353999D03*
X111202999Y-73789999D03*
X111202999Y-70989999D03*
X149302999Y-149989999D03*
X149302999Y-147189999D03*
D16*
X167570000Y-50700000D03*
X168530000Y-50700000D03*
D22*
X164700000Y-50980000D03*
X164700000Y-50020000D03*
D11*
X111202999Y-45214999D03*
X111202999Y-42414999D03*
D16*
X169524000Y-53238400D03*
X170484000Y-53238400D03*
D12*
X155716000Y-57404000D03*
X154066000Y-57404000D03*
D11*
X130252999Y-45214999D03*
X130252999Y-42414999D03*
D16*
X153042000Y-46202600D03*
X154002000Y-46202600D03*
D11*
X168352999Y-130939999D03*
X168352999Y-128139999D03*
X121619999Y-115569999D03*
X118819999Y-115569999D03*
X130252999Y-73789999D03*
X130252999Y-70989999D03*
X159465999Y-38861999D03*
X156665999Y-38861999D03*
D16*
X169524000Y-56896000D03*
X170484000Y-56896000D03*
D29*
X165785800Y-60759400D03*
X165785800Y-61719400D03*
D32*
X142064000Y-56642000D03*
X144764000Y-56642000D03*
D33*
X160866510Y-60656999D03*
X158666510Y-60656999D03*
X158666510Y-62356999D03*
X160866510Y-62356999D03*
D11*
X149302999Y-73789999D03*
X149302999Y-70989999D03*
D13*
X164500000Y-41175000D03*
X164500000Y-42825000D03*
M02*
