G04 #@! TF.GenerationSoftware,KiCad,Pcbnew,(6.0.0)*
G04 #@! TF.CreationDate,2023-01-04T21:38:06+01:00*
G04 #@! TF.ProjectId,MPad2040_V1,4d506164-3230-4343-905f-56312e6b6963,rev?*
G04 #@! TF.SameCoordinates,Original*
G04 #@! TF.FileFunction,Paste,Top*
G04 #@! TF.FilePolarity,Positive*
%FSLAX46Y46*%
G04 Gerber Fmt 4.6, Leading zero omitted, Abs format (unit mm)*
G04 Created by KiCad (PCBNEW (6.0.0)) date 2023-01-04 21:38:06*
%MOMM*%
%LPD*%
G01*
G04 APERTURE LIST*
G04 Aperture macros list*
%AMRoundRect*
0 Rectangle with rounded corners*
0 $1 Rounding radius*
0 $2 $3 $4 $5 $6 $7 $8 $9 X,Y pos of 4 corners*
0 Add a 4 corners polygon primitive as box body*
4,1,4,$2,$3,$4,$5,$6,$7,$8,$9,$2,$3,0*
0 Add four circle primitives for the rounded corners*
1,1,$1+$1,$2,$3*
1,1,$1+$1,$4,$5*
1,1,$1+$1,$6,$7*
1,1,$1+$1,$8,$9*
0 Add four rect primitives between the rounded corners*
20,1,$1+$1,$2,$3,$4,$5,0*
20,1,$1+$1,$4,$5,$6,$7,0*
20,1,$1+$1,$6,$7,$8,$9,0*
20,1,$1+$1,$8,$9,$2,$3,0*%
G04 Aperture macros list end*
%ADD10C,0.100000*%
%ADD11R,1.100000X1.100000*%
%ADD12RoundRect,0.200000X0.200000X0.275000X-0.200000X0.275000X-0.200000X-0.275000X0.200000X-0.275000X0*%
%ADD13RoundRect,0.200000X-0.275000X0.200000X-0.275000X-0.200000X0.275000X-0.200000X0.275000X0.200000X0*%
%ADD14RoundRect,0.218750X0.218750X0.256250X-0.218750X0.256250X-0.218750X-0.256250X0.218750X-0.256250X0*%
%ADD15RoundRect,0.250000X-0.625000X0.375000X-0.625000X-0.375000X0.625000X-0.375000X0.625000X0.375000X0*%
%ADD16RoundRect,0.140000X-0.140000X-0.170000X0.140000X-0.170000X0.140000X0.170000X-0.140000X0.170000X0*%
%ADD17RoundRect,0.140000X0.140000X0.170000X-0.140000X0.170000X-0.140000X-0.170000X0.140000X-0.170000X0*%
%ADD18R,2.000000X1.500000*%
%ADD19R,2.000000X3.800000*%
%ADD20R,0.750000X2.100000*%
%ADD21R,1.000000X0.750000*%
%ADD22RoundRect,0.140000X0.170000X-0.140000X0.170000X0.140000X-0.170000X0.140000X-0.170000X-0.140000X0*%
%ADD23R,0.532600X1.487399*%
%ADD24RoundRect,0.200000X0.275000X-0.200000X0.275000X0.200000X-0.275000X0.200000X-0.275000X-0.200000X0*%
%ADD25RoundRect,0.250000X0.450000X0.425000X-0.450000X0.425000X-0.450000X-0.425000X0.450000X-0.425000X0*%
%ADD26RoundRect,0.200000X-0.200000X-0.275000X0.200000X-0.275000X0.200000X0.275000X-0.200000X0.275000X0*%
%ADD27RoundRect,0.140000X-0.170000X0.140000X-0.170000X-0.140000X0.170000X-0.140000X0.170000X0.140000X0*%
%ADD28R,0.807999X0.178600*%
%ADD29R,0.178600X0.807999*%
%ADD30RoundRect,0.250000X-0.450000X-0.425000X0.450000X-0.425000X0.450000X0.425000X-0.450000X0.425000X0*%
%ADD31R,1.400000X1.200000*%
G04 APERTURE END LIST*
D10*
X165024000Y-54379800D02*
X165024000Y-55780000D01*
X165024000Y-55780000D02*
X166424200Y-55780000D01*
X166424200Y-55780000D02*
X166424200Y-54379800D01*
X166424200Y-54379800D02*
X165024000Y-54379800D01*
G36*
X166424200Y-55780000D02*
G01*
X165024000Y-55780000D01*
X165024000Y-54379800D01*
X166424200Y-54379800D01*
X166424200Y-55780000D01*
G37*
X166424200Y-55780000D02*
X165024000Y-55780000D01*
X165024000Y-54379800D01*
X166424200Y-54379800D01*
X166424200Y-55780000D01*
X165024000Y-55980000D02*
X165024000Y-57380200D01*
X165024000Y-57380200D02*
X166424200Y-57380200D01*
X166424200Y-57380200D02*
X166424200Y-55980000D01*
X166424200Y-55980000D02*
X165024000Y-55980000D01*
G36*
X166424200Y-57380200D02*
G01*
X165024000Y-57380200D01*
X165024000Y-55980000D01*
X166424200Y-55980000D01*
X166424200Y-57380200D01*
G37*
X166424200Y-57380200D02*
X165024000Y-57380200D01*
X165024000Y-55980000D01*
X166424200Y-55980000D01*
X166424200Y-57380200D01*
X163423800Y-55980000D02*
X163423800Y-57380200D01*
X163423800Y-57380200D02*
X164824000Y-57380200D01*
X164824000Y-57380200D02*
X164824000Y-55980000D01*
X164824000Y-55980000D02*
X163423800Y-55980000D01*
G36*
X164824000Y-57380200D02*
G01*
X163423800Y-57380200D01*
X163423800Y-55980000D01*
X164824000Y-55980000D01*
X164824000Y-57380200D01*
G37*
X164824000Y-57380200D02*
X163423800Y-57380200D01*
X163423800Y-55980000D01*
X164824000Y-55980000D01*
X164824000Y-57380200D01*
X163423800Y-54379800D02*
X163423800Y-55780000D01*
X163423800Y-55780000D02*
X164824000Y-55780000D01*
X164824000Y-55780000D02*
X164824000Y-54379800D01*
X164824000Y-54379800D02*
X163423800Y-54379800D01*
G36*
X164824000Y-55780000D02*
G01*
X163423800Y-55780000D01*
X163423800Y-54379800D01*
X164824000Y-54379800D01*
X164824000Y-55780000D01*
G37*
X164824000Y-55780000D02*
X163423800Y-55780000D01*
X163423800Y-54379800D01*
X164824000Y-54379800D01*
X164824000Y-55780000D01*
D11*
X130253000Y-130940000D03*
X130253000Y-128140000D03*
D12*
X161304000Y-63996200D03*
X159654000Y-63996200D03*
D13*
X169496000Y-39815000D03*
X169496000Y-41465000D03*
D14*
X139930500Y-49022000D03*
X138355500Y-49022000D03*
D11*
X149303000Y-131067000D03*
X149303000Y-128267000D03*
D15*
X145874000Y-38227000D03*
X145874000Y-41027000D03*
D16*
X168558800Y-51612800D03*
X169518800Y-51612800D03*
D11*
X149303000Y-111890000D03*
X149303000Y-109090000D03*
D17*
X160324000Y-56896000D03*
X159364000Y-56896000D03*
D11*
X168353000Y-92840000D03*
X168353000Y-90040000D03*
D18*
X148389000Y-54243000D03*
X148389000Y-51943000D03*
D19*
X142089000Y-51943000D03*
D18*
X148389000Y-49643000D03*
D16*
X157586000Y-63754000D03*
X158546000Y-63754000D03*
D20*
X171655000Y-60049000D03*
X171655000Y-63649000D03*
X172925000Y-60049000D03*
X172925000Y-63649000D03*
X174195000Y-60049000D03*
X174195000Y-63649000D03*
X175465000Y-60049000D03*
X175465000Y-63649000D03*
X176735000Y-60049000D03*
X176735000Y-63649000D03*
D12*
X139968000Y-50673000D03*
X138318000Y-50673000D03*
D14*
X149430000Y-38227000D03*
X147855000Y-38227000D03*
D11*
X121620000Y-95885000D03*
X118820000Y-95885000D03*
D16*
X167746000Y-60452000D03*
X168706000Y-60452000D03*
D21*
X178688000Y-59212000D03*
X178688000Y-62962000D03*
X184688000Y-59212000D03*
X184688000Y-62962000D03*
D22*
X163755600Y-49908400D03*
X163755600Y-48948400D03*
D11*
X149303000Y-92840000D03*
X149303000Y-90040000D03*
D23*
X153367000Y-55346600D03*
X154637000Y-55346600D03*
X155907000Y-55346600D03*
X157177000Y-55346600D03*
X157177000Y-48031400D03*
X155907000Y-48031400D03*
X154637000Y-48031400D03*
X153367000Y-48031400D03*
D11*
X121620000Y-133985000D03*
X118820000Y-133985000D03*
D24*
X167387800Y-50126400D03*
X167387800Y-48476400D03*
D11*
X146890000Y-149990000D03*
X146890000Y-147190000D03*
X168353000Y-111890000D03*
X168353000Y-109090000D03*
D21*
X153573000Y-62962000D03*
X153573000Y-59212000D03*
X147573000Y-62962000D03*
X147573000Y-59212000D03*
D25*
X148494000Y-47117000D03*
X145794000Y-47117000D03*
D22*
X162384000Y-61440000D03*
X162384000Y-60480000D03*
D12*
X152668000Y-57404000D03*
X151018000Y-57404000D03*
D11*
X121620000Y-153670000D03*
X118820000Y-153670000D03*
X130253000Y-92840000D03*
X130253000Y-90040000D03*
X130253000Y-111890000D03*
X130253000Y-109090000D03*
D26*
X167782000Y-61722000D03*
X169432000Y-61722000D03*
D27*
X164949400Y-61115000D03*
X164949400Y-62075000D03*
D17*
X160324000Y-53238400D03*
X159364000Y-53238400D03*
D11*
X130253000Y-149990000D03*
X130253000Y-147190000D03*
D24*
X165914600Y-50126400D03*
X165914600Y-48476400D03*
D28*
X161522800Y-53238400D03*
X161522800Y-53644800D03*
X161522800Y-54051200D03*
X161522800Y-54457600D03*
X161522800Y-54864000D03*
X161522800Y-55270400D03*
X161522800Y-55676800D03*
X161522800Y-56083200D03*
X161522800Y-56489600D03*
X161522800Y-56896000D03*
X161522800Y-57302400D03*
X161522800Y-57708800D03*
X161522800Y-58115200D03*
X161522800Y-58521600D03*
D29*
X162282400Y-59281200D03*
X162688800Y-59281200D03*
X163095200Y-59281200D03*
X163501600Y-59281200D03*
X163908000Y-59281200D03*
X164314400Y-59281200D03*
X164720800Y-59281200D03*
X165127200Y-59281200D03*
X165533600Y-59281200D03*
X165940000Y-59281200D03*
X166346400Y-59281200D03*
X166752800Y-59281200D03*
X167159200Y-59281200D03*
X167565600Y-59281200D03*
D28*
X168325200Y-58521600D03*
X168325200Y-58115200D03*
X168325200Y-57708800D03*
X168325200Y-57302400D03*
X168325200Y-56896000D03*
X168325200Y-56489600D03*
X168325200Y-56083200D03*
X168325200Y-55676800D03*
X168325200Y-55270400D03*
X168325200Y-54864000D03*
X168325200Y-54457600D03*
X168325200Y-54051200D03*
X168325200Y-53644800D03*
X168325200Y-53238400D03*
D29*
X167565600Y-52478800D03*
X167159200Y-52478800D03*
X166752800Y-52478800D03*
X166346400Y-52478800D03*
X165940000Y-52478800D03*
X165533600Y-52478800D03*
X165127200Y-52478800D03*
X164720800Y-52478800D03*
X164314400Y-52478800D03*
X163908000Y-52478800D03*
X163501600Y-52478800D03*
X163095200Y-52478800D03*
X162688800Y-52478800D03*
X162282400Y-52478800D03*
D11*
X168353000Y-73790000D03*
X168353000Y-70990000D03*
X179786000Y-38354000D03*
X176986000Y-38354000D03*
X111203000Y-73790000D03*
X111203000Y-70990000D03*
X149303000Y-149990000D03*
X149303000Y-147190000D03*
D16*
X168558800Y-50673000D03*
X169518800Y-50673000D03*
D22*
X164695400Y-49908400D03*
X164695400Y-48948400D03*
D11*
X111203000Y-45215000D03*
X111203000Y-42415000D03*
D16*
X169524000Y-53238400D03*
X170484000Y-53238400D03*
D12*
X155716000Y-57404000D03*
X154066000Y-57404000D03*
D11*
X130253000Y-45215000D03*
X130253000Y-42415000D03*
D16*
X153042000Y-46202600D03*
X154002000Y-46202600D03*
D11*
X168353000Y-130940000D03*
X168353000Y-128140000D03*
X121620000Y-115570000D03*
X118820000Y-115570000D03*
X130253000Y-73790000D03*
X130253000Y-70990000D03*
X159466000Y-38862000D03*
X156666000Y-38862000D03*
D16*
X169524000Y-56896000D03*
X170484000Y-56896000D03*
D27*
X165889200Y-61115000D03*
X165889200Y-62075000D03*
D30*
X142064000Y-56642000D03*
X144764000Y-56642000D03*
D31*
X160866511Y-60657000D03*
X158666511Y-60657000D03*
X158666511Y-62357000D03*
X160866511Y-62357000D03*
D11*
X149303000Y-73790000D03*
X149303000Y-70990000D03*
D26*
X173243000Y-36322000D03*
X174893000Y-36322000D03*
M02*
