G04 #@! TF.GenerationSoftware,KiCad,Pcbnew,(6.0.0)*
G04 #@! TF.CreationDate,2023-01-04T21:38:10+01:00*
G04 #@! TF.ProjectId,MPad2040_V1,4d506164-3230-4343-905f-56312e6b6963,rev?*
G04 #@! TF.SameCoordinates,Original*
G04 #@! TF.FileFunction,Soldermask,Top*
G04 #@! TF.FilePolarity,Negative*
%FSLAX46Y46*%
G04 Gerber Fmt 4.6, Leading zero omitted, Abs format (unit mm)*
G04 Created by KiCad (PCBNEW (6.0.0)) date 2023-01-04 21:38:10*
%MOMM*%
%LPD*%
G01*
G04 APERTURE LIST*
G04 Aperture macros list*
%AMRoundRect*
0 Rectangle with rounded corners*
0 $1 Rounding radius*
0 $2 $3 $4 $5 $6 $7 $8 $9 X,Y pos of 4 corners*
0 Add a 4 corners polygon primitive as box body*
4,1,4,$2,$3,$4,$5,$6,$7,$8,$9,$2,$3,0*
0 Add four circle primitives for the rounded corners*
1,1,$1+$1,$2,$3*
1,1,$1+$1,$4,$5*
1,1,$1+$1,$6,$7*
1,1,$1+$1,$8,$9*
0 Add four rect primitives between the rounded corners*
20,1,$1+$1,$2,$3,$4,$5,0*
20,1,$1+$1,$4,$5,$6,$7,0*
20,1,$1+$1,$6,$7,$8,$9,0*
20,1,$1+$1,$8,$9,$2,$3,0*%
G04 Aperture macros list end*
%ADD10C,0.010000*%
%ADD11C,0.800000*%
%ADD12C,5.400000*%
%ADD13C,2.200000*%
%ADD14C,4.000000*%
%ADD15C,1.700000*%
%ADD16C,3.050000*%
%ADD17R,1.100000X1.100000*%
%ADD18RoundRect,0.200000X0.200000X0.275000X-0.200000X0.275000X-0.200000X-0.275000X0.200000X-0.275000X0*%
%ADD19RoundRect,0.200000X-0.275000X0.200000X-0.275000X-0.200000X0.275000X-0.200000X0.275000X0.200000X0*%
%ADD20RoundRect,0.218750X0.218750X0.256250X-0.218750X0.256250X-0.218750X-0.256250X0.218750X-0.256250X0*%
%ADD21RoundRect,0.250000X-0.625000X0.375000X-0.625000X-0.375000X0.625000X-0.375000X0.625000X0.375000X0*%
%ADD22RoundRect,0.140000X-0.140000X-0.170000X0.140000X-0.170000X0.140000X0.170000X-0.140000X0.170000X0*%
%ADD23RoundRect,0.140000X0.140000X0.170000X-0.140000X0.170000X-0.140000X-0.170000X0.140000X-0.170000X0*%
%ADD24R,2.000000X1.500000*%
%ADD25R,2.000000X3.800000*%
%ADD26R,0.750000X2.100000*%
%ADD27R,1.000000X0.750000*%
%ADD28RoundRect,0.140000X0.170000X-0.140000X0.170000X0.140000X-0.170000X0.140000X-0.170000X-0.140000X0*%
%ADD29R,0.532600X1.487399*%
%ADD30RoundRect,0.200000X0.275000X-0.200000X0.275000X0.200000X-0.275000X0.200000X-0.275000X-0.200000X0*%
%ADD31RoundRect,0.250000X0.450000X0.425000X-0.450000X0.425000X-0.450000X-0.425000X0.450000X-0.425000X0*%
%ADD32C,0.700000*%
%ADD33O,0.900000X2.400000*%
%ADD34O,0.900000X1.700000*%
%ADD35RoundRect,0.200000X-0.200000X-0.275000X0.200000X-0.275000X0.200000X0.275000X-0.200000X0.275000X0*%
%ADD36RoundRect,0.140000X-0.170000X0.140000X-0.170000X-0.140000X0.170000X-0.140000X0.170000X0.140000X0*%
%ADD37R,0.807999X0.178600*%
%ADD38R,0.178600X0.807999*%
%ADD39R,3.200400X3.200400*%
%ADD40RoundRect,0.250000X-0.450000X-0.425000X0.450000X-0.425000X0.450000X0.425000X-0.450000X0.425000X0*%
%ADD41R,1.400000X1.200000*%
G04 APERTURE END LIST*
D10*
X131789744Y-52719918D02*
X131845201Y-52747568D01*
X131845201Y-52747568D02*
X131894148Y-52798480D01*
X131894148Y-52798480D02*
X131907629Y-52817338D01*
X131907629Y-52817338D02*
X131922314Y-52842015D01*
X131922314Y-52842015D02*
X131931842Y-52868816D01*
X131931842Y-52868816D02*
X131937293Y-52904587D01*
X131937293Y-52904587D02*
X131939747Y-52956169D01*
X131939747Y-52956169D02*
X131940286Y-53024267D01*
X131940286Y-53024267D02*
X131937852Y-53117588D01*
X131937852Y-53117588D02*
X131929394Y-53187657D01*
X131929394Y-53187657D02*
X131913174Y-53239931D01*
X131913174Y-53239931D02*
X131887454Y-53279869D01*
X131887454Y-53279869D02*
X131850497Y-53312929D01*
X131850497Y-53312929D02*
X131847782Y-53314886D01*
X131847782Y-53314886D02*
X131811360Y-53334908D01*
X131811360Y-53334908D02*
X131767502Y-53344815D01*
X131767502Y-53344815D02*
X131711724Y-53347257D01*
X131711724Y-53347257D02*
X131621048Y-53347257D01*
X131621048Y-53347257D02*
X131621010Y-53435283D01*
X131621010Y-53435283D02*
X131620166Y-53484308D01*
X131620166Y-53484308D02*
X131615024Y-53513065D01*
X131615024Y-53513065D02*
X131601587Y-53530311D01*
X131601587Y-53530311D02*
X131575858Y-53544808D01*
X131575858Y-53544808D02*
X131569679Y-53547769D01*
X131569679Y-53547769D02*
X131540764Y-53561648D01*
X131540764Y-53561648D02*
X131518376Y-53570414D01*
X131518376Y-53570414D02*
X131501729Y-53571171D01*
X131501729Y-53571171D02*
X131490036Y-53561023D01*
X131490036Y-53561023D02*
X131482510Y-53537073D01*
X131482510Y-53537073D02*
X131478366Y-53496426D01*
X131478366Y-53496426D02*
X131476815Y-53436186D01*
X131476815Y-53436186D02*
X131477071Y-53353455D01*
X131477071Y-53353455D02*
X131478349Y-53245339D01*
X131478349Y-53245339D02*
X131478748Y-53213000D01*
X131478748Y-53213000D02*
X131480185Y-53101524D01*
X131480185Y-53101524D02*
X131481472Y-53028603D01*
X131481472Y-53028603D02*
X131620971Y-53028603D01*
X131620971Y-53028603D02*
X131621755Y-53090499D01*
X131621755Y-53090499D02*
X131625240Y-53130997D01*
X131625240Y-53130997D02*
X131633124Y-53157708D01*
X131633124Y-53157708D02*
X131647105Y-53178244D01*
X131647105Y-53178244D02*
X131656597Y-53188260D01*
X131656597Y-53188260D02*
X131695404Y-53217567D01*
X131695404Y-53217567D02*
X131729763Y-53219952D01*
X131729763Y-53219952D02*
X131765216Y-53195750D01*
X131765216Y-53195750D02*
X131766114Y-53194857D01*
X131766114Y-53194857D02*
X131780539Y-53176153D01*
X131780539Y-53176153D02*
X131789313Y-53150732D01*
X131789313Y-53150732D02*
X131793739Y-53111584D01*
X131793739Y-53111584D02*
X131795118Y-53051697D01*
X131795118Y-53051697D02*
X131795143Y-53038430D01*
X131795143Y-53038430D02*
X131791812Y-52955901D01*
X131791812Y-52955901D02*
X131780969Y-52898691D01*
X131780969Y-52898691D02*
X131761340Y-52863766D01*
X131761340Y-52863766D02*
X131731650Y-52848094D01*
X131731650Y-52848094D02*
X131714491Y-52846514D01*
X131714491Y-52846514D02*
X131673766Y-52853926D01*
X131673766Y-52853926D02*
X131645832Y-52878330D01*
X131645832Y-52878330D02*
X131629017Y-52922980D01*
X131629017Y-52922980D02*
X131621650Y-52991130D01*
X131621650Y-52991130D02*
X131620971Y-53028603D01*
X131620971Y-53028603D02*
X131481472Y-53028603D01*
X131481472Y-53028603D02*
X131481708Y-53015245D01*
X131481708Y-53015245D02*
X131483677Y-52950333D01*
X131483677Y-52950333D02*
X131486450Y-52902958D01*
X131486450Y-52902958D02*
X131490388Y-52869290D01*
X131490388Y-52869290D02*
X131495849Y-52845498D01*
X131495849Y-52845498D02*
X131503192Y-52827753D01*
X131503192Y-52827753D02*
X131512777Y-52812224D01*
X131512777Y-52812224D02*
X131516887Y-52806381D01*
X131516887Y-52806381D02*
X131571405Y-52751185D01*
X131571405Y-52751185D02*
X131640336Y-52719890D01*
X131640336Y-52719890D02*
X131720072Y-52711165D01*
X131720072Y-52711165D02*
X131789744Y-52719918D01*
X131789744Y-52719918D02*
X131789744Y-52719918D01*
G36*
X131483677Y-52950333D02*
G01*
X131486450Y-52902958D01*
X131490388Y-52869290D01*
X131495849Y-52845498D01*
X131503192Y-52827753D01*
X131512777Y-52812224D01*
X131516887Y-52806381D01*
X131571405Y-52751185D01*
X131640336Y-52719890D01*
X131720072Y-52711165D01*
X131789744Y-52719918D01*
X131845201Y-52747568D01*
X131894148Y-52798480D01*
X131907629Y-52817338D01*
X131922314Y-52842015D01*
X131931842Y-52868816D01*
X131937293Y-52904587D01*
X131939747Y-52956169D01*
X131940286Y-53024267D01*
X131937852Y-53117588D01*
X131929394Y-53187657D01*
X131913174Y-53239931D01*
X131887454Y-53279869D01*
X131850497Y-53312929D01*
X131847782Y-53314886D01*
X131811360Y-53334908D01*
X131767502Y-53344815D01*
X131711724Y-53347257D01*
X131621048Y-53347257D01*
X131621010Y-53435283D01*
X131620166Y-53484308D01*
X131615024Y-53513065D01*
X131601587Y-53530311D01*
X131575858Y-53544808D01*
X131569679Y-53547769D01*
X131540764Y-53561648D01*
X131518376Y-53570414D01*
X131501729Y-53571171D01*
X131490036Y-53561023D01*
X131482510Y-53537073D01*
X131478366Y-53496426D01*
X131476815Y-53436186D01*
X131477071Y-53353455D01*
X131478349Y-53245339D01*
X131478748Y-53213000D01*
X131480185Y-53101524D01*
X131481472Y-53028603D01*
X131620971Y-53028603D01*
X131621755Y-53090499D01*
X131625240Y-53130997D01*
X131633124Y-53157708D01*
X131647105Y-53178244D01*
X131656597Y-53188260D01*
X131695404Y-53217567D01*
X131729763Y-53219952D01*
X131765216Y-53195750D01*
X131766114Y-53194857D01*
X131780539Y-53176153D01*
X131789313Y-53150732D01*
X131793739Y-53111584D01*
X131795118Y-53051697D01*
X131795143Y-53038430D01*
X131791812Y-52955901D01*
X131780969Y-52898691D01*
X131761340Y-52863766D01*
X131731650Y-52848094D01*
X131714491Y-52846514D01*
X131673766Y-52853926D01*
X131645832Y-52878330D01*
X131629017Y-52922980D01*
X131621650Y-52991130D01*
X131620971Y-53028603D01*
X131481472Y-53028603D01*
X131481708Y-53015245D01*
X131483677Y-52950333D01*
G37*
X131483677Y-52950333D02*
X131486450Y-52902958D01*
X131490388Y-52869290D01*
X131495849Y-52845498D01*
X131503192Y-52827753D01*
X131512777Y-52812224D01*
X131516887Y-52806381D01*
X131571405Y-52751185D01*
X131640336Y-52719890D01*
X131720072Y-52711165D01*
X131789744Y-52719918D01*
X131845201Y-52747568D01*
X131894148Y-52798480D01*
X131907629Y-52817338D01*
X131922314Y-52842015D01*
X131931842Y-52868816D01*
X131937293Y-52904587D01*
X131939747Y-52956169D01*
X131940286Y-53024267D01*
X131937852Y-53117588D01*
X131929394Y-53187657D01*
X131913174Y-53239931D01*
X131887454Y-53279869D01*
X131850497Y-53312929D01*
X131847782Y-53314886D01*
X131811360Y-53334908D01*
X131767502Y-53344815D01*
X131711724Y-53347257D01*
X131621048Y-53347257D01*
X131621010Y-53435283D01*
X131620166Y-53484308D01*
X131615024Y-53513065D01*
X131601587Y-53530311D01*
X131575858Y-53544808D01*
X131569679Y-53547769D01*
X131540764Y-53561648D01*
X131518376Y-53570414D01*
X131501729Y-53571171D01*
X131490036Y-53561023D01*
X131482510Y-53537073D01*
X131478366Y-53496426D01*
X131476815Y-53436186D01*
X131477071Y-53353455D01*
X131478349Y-53245339D01*
X131478748Y-53213000D01*
X131480185Y-53101524D01*
X131481472Y-53028603D01*
X131620971Y-53028603D01*
X131621755Y-53090499D01*
X131625240Y-53130997D01*
X131633124Y-53157708D01*
X131647105Y-53178244D01*
X131656597Y-53188260D01*
X131695404Y-53217567D01*
X131729763Y-53219952D01*
X131765216Y-53195750D01*
X131766114Y-53194857D01*
X131780539Y-53176153D01*
X131789313Y-53150732D01*
X131793739Y-53111584D01*
X131795118Y-53051697D01*
X131795143Y-53038430D01*
X131791812Y-52955901D01*
X131780969Y-52898691D01*
X131761340Y-52863766D01*
X131731650Y-52848094D01*
X131714491Y-52846514D01*
X131673766Y-52853926D01*
X131645832Y-52878330D01*
X131629017Y-52922980D01*
X131621650Y-52991130D01*
X131620971Y-53028603D01*
X131481472Y-53028603D01*
X131481708Y-53015245D01*
X131483677Y-52950333D01*
X132906093Y-52727780D02*
X132952672Y-52754723D01*
X132952672Y-52754723D02*
X132985057Y-52781466D01*
X132985057Y-52781466D02*
X133008742Y-52809484D01*
X133008742Y-52809484D02*
X133025059Y-52843748D01*
X133025059Y-52843748D02*
X133035339Y-52889227D01*
X133035339Y-52889227D02*
X133040914Y-52950892D01*
X133040914Y-52950892D02*
X133043116Y-53033711D01*
X133043116Y-53033711D02*
X133043371Y-53093246D01*
X133043371Y-53093246D02*
X133043371Y-53312391D01*
X133043371Y-53312391D02*
X132981686Y-53340044D01*
X132981686Y-53340044D02*
X132920000Y-53367697D01*
X132920000Y-53367697D02*
X132912743Y-53127670D01*
X132912743Y-53127670D02*
X132909744Y-53038028D01*
X132909744Y-53038028D02*
X132906598Y-52972962D01*
X132906598Y-52972962D02*
X132902701Y-52928026D01*
X132902701Y-52928026D02*
X132897447Y-52898770D01*
X132897447Y-52898770D02*
X132890231Y-52880748D01*
X132890231Y-52880748D02*
X132880450Y-52869511D01*
X132880450Y-52869511D02*
X132877312Y-52867079D01*
X132877312Y-52867079D02*
X132829761Y-52848083D01*
X132829761Y-52848083D02*
X132781697Y-52855600D01*
X132781697Y-52855600D02*
X132753086Y-52875543D01*
X132753086Y-52875543D02*
X132741447Y-52889675D01*
X132741447Y-52889675D02*
X132733391Y-52908220D01*
X132733391Y-52908220D02*
X132728271Y-52936334D01*
X132728271Y-52936334D02*
X132725441Y-52979173D01*
X132725441Y-52979173D02*
X132724256Y-53041895D01*
X132724256Y-53041895D02*
X132724057Y-53107261D01*
X132724057Y-53107261D02*
X132724018Y-53189268D01*
X132724018Y-53189268D02*
X132722614Y-53247316D01*
X132722614Y-53247316D02*
X132717914Y-53286465D01*
X132717914Y-53286465D02*
X132707987Y-53311780D01*
X132707987Y-53311780D02*
X132690903Y-53328323D01*
X132690903Y-53328323D02*
X132664732Y-53341156D01*
X132664732Y-53341156D02*
X132629775Y-53354491D01*
X132629775Y-53354491D02*
X132591596Y-53369007D01*
X132591596Y-53369007D02*
X132596141Y-53111389D01*
X132596141Y-53111389D02*
X132597971Y-53018519D01*
X132597971Y-53018519D02*
X132600112Y-52949889D01*
X132600112Y-52949889D02*
X132603181Y-52900711D01*
X132603181Y-52900711D02*
X132607794Y-52866198D01*
X132607794Y-52866198D02*
X132614568Y-52841562D01*
X132614568Y-52841562D02*
X132624119Y-52822016D01*
X132624119Y-52822016D02*
X132635634Y-52804770D01*
X132635634Y-52804770D02*
X132691190Y-52749680D01*
X132691190Y-52749680D02*
X132758980Y-52717822D01*
X132758980Y-52717822D02*
X132832713Y-52710191D01*
X132832713Y-52710191D02*
X132906093Y-52727780D01*
X132906093Y-52727780D02*
X132906093Y-52727780D01*
G36*
X132906093Y-52727780D02*
G01*
X132952672Y-52754723D01*
X132985057Y-52781466D01*
X133008742Y-52809484D01*
X133025059Y-52843748D01*
X133035339Y-52889227D01*
X133040914Y-52950892D01*
X133043116Y-53033711D01*
X133043371Y-53093246D01*
X133043371Y-53312391D01*
X132981686Y-53340044D01*
X132920000Y-53367697D01*
X132912743Y-53127670D01*
X132909744Y-53038028D01*
X132906598Y-52972962D01*
X132902701Y-52928026D01*
X132897447Y-52898770D01*
X132890231Y-52880748D01*
X132880450Y-52869511D01*
X132877312Y-52867079D01*
X132829761Y-52848083D01*
X132781697Y-52855600D01*
X132753086Y-52875543D01*
X132741447Y-52889675D01*
X132733391Y-52908220D01*
X132728271Y-52936334D01*
X132725441Y-52979173D01*
X132724256Y-53041895D01*
X132724057Y-53107261D01*
X132724018Y-53189268D01*
X132722614Y-53247316D01*
X132717914Y-53286465D01*
X132707987Y-53311780D01*
X132690903Y-53328323D01*
X132664732Y-53341156D01*
X132629775Y-53354491D01*
X132591596Y-53369007D01*
X132596141Y-53111389D01*
X132597971Y-53018519D01*
X132600112Y-52949889D01*
X132603181Y-52900711D01*
X132607794Y-52866198D01*
X132614568Y-52841562D01*
X132624119Y-52822016D01*
X132635634Y-52804770D01*
X132691190Y-52749680D01*
X132758980Y-52717822D01*
X132832713Y-52710191D01*
X132906093Y-52727780D01*
G37*
X132906093Y-52727780D02*
X132952672Y-52754723D01*
X132985057Y-52781466D01*
X133008742Y-52809484D01*
X133025059Y-52843748D01*
X133035339Y-52889227D01*
X133040914Y-52950892D01*
X133043116Y-53033711D01*
X133043371Y-53093246D01*
X133043371Y-53312391D01*
X132981686Y-53340044D01*
X132920000Y-53367697D01*
X132912743Y-53127670D01*
X132909744Y-53038028D01*
X132906598Y-52972962D01*
X132902701Y-52928026D01*
X132897447Y-52898770D01*
X132890231Y-52880748D01*
X132880450Y-52869511D01*
X132877312Y-52867079D01*
X132829761Y-52848083D01*
X132781697Y-52855600D01*
X132753086Y-52875543D01*
X132741447Y-52889675D01*
X132733391Y-52908220D01*
X132728271Y-52936334D01*
X132725441Y-52979173D01*
X132724256Y-53041895D01*
X132724057Y-53107261D01*
X132724018Y-53189268D01*
X132722614Y-53247316D01*
X132717914Y-53286465D01*
X132707987Y-53311780D01*
X132690903Y-53328323D01*
X132664732Y-53341156D01*
X132629775Y-53354491D01*
X132591596Y-53369007D01*
X132596141Y-53111389D01*
X132597971Y-53018519D01*
X132600112Y-52949889D01*
X132603181Y-52900711D01*
X132607794Y-52866198D01*
X132614568Y-52841562D01*
X132624119Y-52822016D01*
X132635634Y-52804770D01*
X132691190Y-52749680D01*
X132758980Y-52717822D01*
X132832713Y-52710191D01*
X132906093Y-52727780D01*
X131231115Y-52721962D02*
X131299145Y-52757733D01*
X131299145Y-52757733D02*
X131349351Y-52815301D01*
X131349351Y-52815301D02*
X131367185Y-52852312D01*
X131367185Y-52852312D02*
X131381063Y-52907882D01*
X131381063Y-52907882D02*
X131388167Y-52978096D01*
X131388167Y-52978096D02*
X131388840Y-53054727D01*
X131388840Y-53054727D02*
X131383427Y-53129552D01*
X131383427Y-53129552D02*
X131372270Y-53194342D01*
X131372270Y-53194342D02*
X131355714Y-53240873D01*
X131355714Y-53240873D02*
X131350626Y-53248887D01*
X131350626Y-53248887D02*
X131290355Y-53308707D01*
X131290355Y-53308707D02*
X131218769Y-53344535D01*
X131218769Y-53344535D02*
X131141092Y-53355020D01*
X131141092Y-53355020D02*
X131062548Y-53338810D01*
X131062548Y-53338810D02*
X131040689Y-53329092D01*
X131040689Y-53329092D02*
X130998122Y-53299143D01*
X130998122Y-53299143D02*
X130960763Y-53259433D01*
X130960763Y-53259433D02*
X130957232Y-53254397D01*
X130957232Y-53254397D02*
X130942881Y-53230124D01*
X130942881Y-53230124D02*
X130933394Y-53204178D01*
X130933394Y-53204178D02*
X130927790Y-53170022D01*
X130927790Y-53170022D02*
X130925086Y-53121119D01*
X130925086Y-53121119D02*
X130924299Y-53050935D01*
X130924299Y-53050935D02*
X130924286Y-53035200D01*
X130924286Y-53035200D02*
X130924322Y-53030192D01*
X130924322Y-53030192D02*
X131069429Y-53030192D01*
X131069429Y-53030192D02*
X131070273Y-53096430D01*
X131070273Y-53096430D02*
X131073596Y-53140386D01*
X131073596Y-53140386D02*
X131080583Y-53168779D01*
X131080583Y-53168779D02*
X131092416Y-53188325D01*
X131092416Y-53188325D02*
X131098457Y-53194857D01*
X131098457Y-53194857D02*
X131133186Y-53219680D01*
X131133186Y-53219680D02*
X131166903Y-53218548D01*
X131166903Y-53218548D02*
X131200995Y-53197016D01*
X131200995Y-53197016D02*
X131221329Y-53174029D01*
X131221329Y-53174029D02*
X131233371Y-53140478D01*
X131233371Y-53140478D02*
X131240134Y-53087569D01*
X131240134Y-53087569D02*
X131240598Y-53081399D01*
X131240598Y-53081399D02*
X131241752Y-52985513D01*
X131241752Y-52985513D02*
X131229688Y-52914299D01*
X131229688Y-52914299D02*
X131204570Y-52868194D01*
X131204570Y-52868194D02*
X131166560Y-52847635D01*
X131166560Y-52847635D02*
X131152992Y-52846514D01*
X131152992Y-52846514D02*
X131117364Y-52852152D01*
X131117364Y-52852152D02*
X131092994Y-52871686D01*
X131092994Y-52871686D02*
X131078093Y-52909042D01*
X131078093Y-52909042D02*
X131070875Y-52968150D01*
X131070875Y-52968150D02*
X131069429Y-53030192D01*
X131069429Y-53030192D02*
X130924322Y-53030192D01*
X130924322Y-53030192D02*
X130924826Y-52960413D01*
X130924826Y-52960413D02*
X130927096Y-52908159D01*
X130927096Y-52908159D02*
X130932068Y-52871949D01*
X130932068Y-52871949D02*
X130940713Y-52845299D01*
X130940713Y-52845299D02*
X130954005Y-52821722D01*
X130954005Y-52821722D02*
X130956943Y-52817338D01*
X130956943Y-52817338D02*
X131006313Y-52758249D01*
X131006313Y-52758249D02*
X131060109Y-52723947D01*
X131060109Y-52723947D02*
X131125602Y-52710331D01*
X131125602Y-52710331D02*
X131147842Y-52709665D01*
X131147842Y-52709665D02*
X131231115Y-52721962D01*
X131231115Y-52721962D02*
X131231115Y-52721962D01*
G36*
X130927096Y-52908159D02*
G01*
X130932068Y-52871949D01*
X130940713Y-52845299D01*
X130954005Y-52821722D01*
X130956943Y-52817338D01*
X131006313Y-52758249D01*
X131060109Y-52723947D01*
X131125602Y-52710331D01*
X131147842Y-52709665D01*
X131231115Y-52721962D01*
X131299145Y-52757733D01*
X131349351Y-52815301D01*
X131367185Y-52852312D01*
X131381063Y-52907882D01*
X131388167Y-52978096D01*
X131388840Y-53054727D01*
X131383427Y-53129552D01*
X131372270Y-53194342D01*
X131355714Y-53240873D01*
X131350626Y-53248887D01*
X131290355Y-53308707D01*
X131218769Y-53344535D01*
X131141092Y-53355020D01*
X131062548Y-53338810D01*
X131040689Y-53329092D01*
X130998122Y-53299143D01*
X130960763Y-53259433D01*
X130957232Y-53254397D01*
X130942881Y-53230124D01*
X130933394Y-53204178D01*
X130927790Y-53170022D01*
X130925086Y-53121119D01*
X130924299Y-53050935D01*
X130924286Y-53035200D01*
X130924322Y-53030192D01*
X131069429Y-53030192D01*
X131070273Y-53096430D01*
X131073596Y-53140386D01*
X131080583Y-53168779D01*
X131092416Y-53188325D01*
X131098457Y-53194857D01*
X131133186Y-53219680D01*
X131166903Y-53218548D01*
X131200995Y-53197016D01*
X131221329Y-53174029D01*
X131233371Y-53140478D01*
X131240134Y-53087569D01*
X131240598Y-53081399D01*
X131241752Y-52985513D01*
X131229688Y-52914299D01*
X131204570Y-52868194D01*
X131166560Y-52847635D01*
X131152992Y-52846514D01*
X131117364Y-52852152D01*
X131092994Y-52871686D01*
X131078093Y-52909042D01*
X131070875Y-52968150D01*
X131069429Y-53030192D01*
X130924322Y-53030192D01*
X130924826Y-52960413D01*
X130927096Y-52908159D01*
G37*
X130927096Y-52908159D02*
X130932068Y-52871949D01*
X130940713Y-52845299D01*
X130954005Y-52821722D01*
X130956943Y-52817338D01*
X131006313Y-52758249D01*
X131060109Y-52723947D01*
X131125602Y-52710331D01*
X131147842Y-52709665D01*
X131231115Y-52721962D01*
X131299145Y-52757733D01*
X131349351Y-52815301D01*
X131367185Y-52852312D01*
X131381063Y-52907882D01*
X131388167Y-52978096D01*
X131388840Y-53054727D01*
X131383427Y-53129552D01*
X131372270Y-53194342D01*
X131355714Y-53240873D01*
X131350626Y-53248887D01*
X131290355Y-53308707D01*
X131218769Y-53344535D01*
X131141092Y-53355020D01*
X131062548Y-53338810D01*
X131040689Y-53329092D01*
X130998122Y-53299143D01*
X130960763Y-53259433D01*
X130957232Y-53254397D01*
X130942881Y-53230124D01*
X130933394Y-53204178D01*
X130927790Y-53170022D01*
X130925086Y-53121119D01*
X130924299Y-53050935D01*
X130924286Y-53035200D01*
X130924322Y-53030192D01*
X131069429Y-53030192D01*
X131070273Y-53096430D01*
X131073596Y-53140386D01*
X131080583Y-53168779D01*
X131092416Y-53188325D01*
X131098457Y-53194857D01*
X131133186Y-53219680D01*
X131166903Y-53218548D01*
X131200995Y-53197016D01*
X131221329Y-53174029D01*
X131233371Y-53140478D01*
X131240134Y-53087569D01*
X131240598Y-53081399D01*
X131241752Y-52985513D01*
X131229688Y-52914299D01*
X131204570Y-52868194D01*
X131166560Y-52847635D01*
X131152992Y-52846514D01*
X131117364Y-52852152D01*
X131092994Y-52871686D01*
X131078093Y-52909042D01*
X131070875Y-52968150D01*
X131069429Y-53030192D01*
X130924322Y-53030192D01*
X130924826Y-52960413D01*
X130927096Y-52908159D01*
X132358303Y-52731239D02*
X132415527Y-52769735D01*
X132415527Y-52769735D02*
X132459749Y-52825335D01*
X132459749Y-52825335D02*
X132486167Y-52896086D01*
X132486167Y-52896086D02*
X132491510Y-52948162D01*
X132491510Y-52948162D02*
X132490903Y-52969893D01*
X132490903Y-52969893D02*
X132485822Y-52986531D01*
X132485822Y-52986531D02*
X132471855Y-53001437D01*
X132471855Y-53001437D02*
X132444589Y-53017973D01*
X132444589Y-53017973D02*
X132399612Y-53039498D01*
X132399612Y-53039498D02*
X132332511Y-53069374D01*
X132332511Y-53069374D02*
X132332171Y-53069524D01*
X132332171Y-53069524D02*
X132270407Y-53097813D01*
X132270407Y-53097813D02*
X132219759Y-53122933D01*
X132219759Y-53122933D02*
X132185404Y-53142179D01*
X132185404Y-53142179D02*
X132172518Y-53152848D01*
X132172518Y-53152848D02*
X132172514Y-53152934D01*
X132172514Y-53152934D02*
X132183872Y-53176166D01*
X132183872Y-53176166D02*
X132210431Y-53201774D01*
X132210431Y-53201774D02*
X132240923Y-53220221D01*
X132240923Y-53220221D02*
X132256370Y-53223886D01*
X132256370Y-53223886D02*
X132298515Y-53211212D01*
X132298515Y-53211212D02*
X132334808Y-53179471D01*
X132334808Y-53179471D02*
X132352517Y-53144572D01*
X132352517Y-53144572D02*
X132369552Y-53118845D01*
X132369552Y-53118845D02*
X132402922Y-53089546D01*
X132402922Y-53089546D02*
X132442149Y-53064235D01*
X132442149Y-53064235D02*
X132476756Y-53050471D01*
X132476756Y-53050471D02*
X132483993Y-53049714D01*
X132483993Y-53049714D02*
X132492139Y-53062160D01*
X132492139Y-53062160D02*
X132492630Y-53093972D01*
X132492630Y-53093972D02*
X132486643Y-53136866D01*
X132486643Y-53136866D02*
X132475357Y-53182558D01*
X132475357Y-53182558D02*
X132459950Y-53222761D01*
X132459950Y-53222761D02*
X132459171Y-53224322D01*
X132459171Y-53224322D02*
X132412804Y-53289062D01*
X132412804Y-53289062D02*
X132352711Y-53333097D01*
X132352711Y-53333097D02*
X132284465Y-53354711D01*
X132284465Y-53354711D02*
X132213638Y-53352185D01*
X132213638Y-53352185D02*
X132145804Y-53323804D01*
X132145804Y-53323804D02*
X132142788Y-53321808D01*
X132142788Y-53321808D02*
X132089427Y-53273448D01*
X132089427Y-53273448D02*
X132054340Y-53210352D01*
X132054340Y-53210352D02*
X132034922Y-53127387D01*
X132034922Y-53127387D02*
X132032316Y-53104078D01*
X132032316Y-53104078D02*
X132027701Y-52994055D01*
X132027701Y-52994055D02*
X132033233Y-52942748D01*
X132033233Y-52942748D02*
X132172514Y-52942748D01*
X132172514Y-52942748D02*
X132174324Y-52974753D01*
X132174324Y-52974753D02*
X132184222Y-52984093D01*
X132184222Y-52984093D02*
X132208898Y-52977105D01*
X132208898Y-52977105D02*
X132247795Y-52960587D01*
X132247795Y-52960587D02*
X132291275Y-52939881D01*
X132291275Y-52939881D02*
X132292356Y-52939333D01*
X132292356Y-52939333D02*
X132329209Y-52919949D01*
X132329209Y-52919949D02*
X132344000Y-52907013D01*
X132344000Y-52907013D02*
X132340353Y-52893451D01*
X132340353Y-52893451D02*
X132324995Y-52875632D01*
X132324995Y-52875632D02*
X132285923Y-52849845D01*
X132285923Y-52849845D02*
X132243846Y-52847950D01*
X132243846Y-52847950D02*
X132206103Y-52866717D01*
X132206103Y-52866717D02*
X132180034Y-52902915D01*
X132180034Y-52902915D02*
X132172514Y-52942748D01*
X132172514Y-52942748D02*
X132033233Y-52942748D01*
X132033233Y-52942748D02*
X132037194Y-52906027D01*
X132037194Y-52906027D02*
X132061550Y-52836212D01*
X132061550Y-52836212D02*
X132095456Y-52787302D01*
X132095456Y-52787302D02*
X132156653Y-52737878D01*
X132156653Y-52737878D02*
X132224063Y-52713359D01*
X132224063Y-52713359D02*
X132292880Y-52711797D01*
X132292880Y-52711797D02*
X132358303Y-52731239D01*
X132358303Y-52731239D02*
X132358303Y-52731239D01*
G36*
X132061550Y-52836212D02*
G01*
X132095456Y-52787302D01*
X132156653Y-52737878D01*
X132224063Y-52713359D01*
X132292880Y-52711797D01*
X132358303Y-52731239D01*
X132415527Y-52769735D01*
X132459749Y-52825335D01*
X132486167Y-52896086D01*
X132491510Y-52948162D01*
X132490903Y-52969893D01*
X132485822Y-52986531D01*
X132471855Y-53001437D01*
X132444589Y-53017973D01*
X132399612Y-53039498D01*
X132332511Y-53069374D01*
X132332171Y-53069524D01*
X132270407Y-53097813D01*
X132219759Y-53122933D01*
X132185404Y-53142179D01*
X132172518Y-53152848D01*
X132172514Y-53152934D01*
X132183872Y-53176166D01*
X132210431Y-53201774D01*
X132240923Y-53220221D01*
X132256370Y-53223886D01*
X132298515Y-53211212D01*
X132334808Y-53179471D01*
X132352517Y-53144572D01*
X132369552Y-53118845D01*
X132402922Y-53089546D01*
X132442149Y-53064235D01*
X132476756Y-53050471D01*
X132483993Y-53049714D01*
X132492139Y-53062160D01*
X132492630Y-53093972D01*
X132486643Y-53136866D01*
X132475357Y-53182558D01*
X132459950Y-53222761D01*
X132459171Y-53224322D01*
X132412804Y-53289062D01*
X132352711Y-53333097D01*
X132284465Y-53354711D01*
X132213638Y-53352185D01*
X132145804Y-53323804D01*
X132142788Y-53321808D01*
X132089427Y-53273448D01*
X132054340Y-53210352D01*
X132034922Y-53127387D01*
X132032316Y-53104078D01*
X132027701Y-52994055D01*
X132033233Y-52942748D01*
X132172514Y-52942748D01*
X132174324Y-52974753D01*
X132184222Y-52984093D01*
X132208898Y-52977105D01*
X132247795Y-52960587D01*
X132291275Y-52939881D01*
X132292356Y-52939333D01*
X132329209Y-52919949D01*
X132344000Y-52907013D01*
X132340353Y-52893451D01*
X132324995Y-52875632D01*
X132285923Y-52849845D01*
X132243846Y-52847950D01*
X132206103Y-52866717D01*
X132180034Y-52902915D01*
X132172514Y-52942748D01*
X132033233Y-52942748D01*
X132037194Y-52906027D01*
X132061550Y-52836212D01*
G37*
X132061550Y-52836212D02*
X132095456Y-52787302D01*
X132156653Y-52737878D01*
X132224063Y-52713359D01*
X132292880Y-52711797D01*
X132358303Y-52731239D01*
X132415527Y-52769735D01*
X132459749Y-52825335D01*
X132486167Y-52896086D01*
X132491510Y-52948162D01*
X132490903Y-52969893D01*
X132485822Y-52986531D01*
X132471855Y-53001437D01*
X132444589Y-53017973D01*
X132399612Y-53039498D01*
X132332511Y-53069374D01*
X132332171Y-53069524D01*
X132270407Y-53097813D01*
X132219759Y-53122933D01*
X132185404Y-53142179D01*
X132172518Y-53152848D01*
X132172514Y-53152934D01*
X132183872Y-53176166D01*
X132210431Y-53201774D01*
X132240923Y-53220221D01*
X132256370Y-53223886D01*
X132298515Y-53211212D01*
X132334808Y-53179471D01*
X132352517Y-53144572D01*
X132369552Y-53118845D01*
X132402922Y-53089546D01*
X132442149Y-53064235D01*
X132476756Y-53050471D01*
X132483993Y-53049714D01*
X132492139Y-53062160D01*
X132492630Y-53093972D01*
X132486643Y-53136866D01*
X132475357Y-53182558D01*
X132459950Y-53222761D01*
X132459171Y-53224322D01*
X132412804Y-53289062D01*
X132352711Y-53333097D01*
X132284465Y-53354711D01*
X132213638Y-53352185D01*
X132145804Y-53323804D01*
X132142788Y-53321808D01*
X132089427Y-53273448D01*
X132054340Y-53210352D01*
X132034922Y-53127387D01*
X132032316Y-53104078D01*
X132027701Y-52994055D01*
X132033233Y-52942748D01*
X132172514Y-52942748D01*
X132174324Y-52974753D01*
X132184222Y-52984093D01*
X132208898Y-52977105D01*
X132247795Y-52960587D01*
X132291275Y-52939881D01*
X132292356Y-52939333D01*
X132329209Y-52919949D01*
X132344000Y-52907013D01*
X132340353Y-52893451D01*
X132324995Y-52875632D01*
X132285923Y-52849845D01*
X132243846Y-52847950D01*
X132206103Y-52866717D01*
X132180034Y-52902915D01*
X132172514Y-52942748D01*
X132033233Y-52942748D01*
X132037194Y-52906027D01*
X132061550Y-52836212D01*
X133565886Y-52651289D02*
X133570139Y-52710613D01*
X133570139Y-52710613D02*
X133575025Y-52745572D01*
X133575025Y-52745572D02*
X133581795Y-52760820D01*
X133581795Y-52760820D02*
X133591702Y-52761015D01*
X133591702Y-52761015D02*
X133594914Y-52759195D01*
X133594914Y-52759195D02*
X133637644Y-52746015D01*
X133637644Y-52746015D02*
X133693227Y-52746785D01*
X133693227Y-52746785D02*
X133749737Y-52760333D01*
X133749737Y-52760333D02*
X133785082Y-52777861D01*
X133785082Y-52777861D02*
X133821321Y-52805861D01*
X133821321Y-52805861D02*
X133847813Y-52837549D01*
X133847813Y-52837549D02*
X133865999Y-52877813D01*
X133865999Y-52877813D02*
X133877322Y-52931543D01*
X133877322Y-52931543D02*
X133883222Y-53003626D01*
X133883222Y-53003626D02*
X133885143Y-53098951D01*
X133885143Y-53098951D02*
X133885177Y-53117237D01*
X133885177Y-53117237D02*
X133885200Y-53322646D01*
X133885200Y-53322646D02*
X133839491Y-53338580D01*
X133839491Y-53338580D02*
X133807027Y-53349420D01*
X133807027Y-53349420D02*
X133789215Y-53354468D01*
X133789215Y-53354468D02*
X133788691Y-53354514D01*
X133788691Y-53354514D02*
X133786937Y-53340828D01*
X133786937Y-53340828D02*
X133785444Y-53303076D01*
X133785444Y-53303076D02*
X133784326Y-53246224D01*
X133784326Y-53246224D02*
X133783697Y-53175234D01*
X133783697Y-53175234D02*
X133783600Y-53132073D01*
X133783600Y-53132073D02*
X133783398Y-53046973D01*
X133783398Y-53046973D02*
X133782358Y-52985981D01*
X133782358Y-52985981D02*
X133779831Y-52944177D01*
X133779831Y-52944177D02*
X133775164Y-52916642D01*
X133775164Y-52916642D02*
X133767707Y-52898456D01*
X133767707Y-52898456D02*
X133756811Y-52884698D01*
X133756811Y-52884698D02*
X133750007Y-52878073D01*
X133750007Y-52878073D02*
X133703272Y-52851375D01*
X133703272Y-52851375D02*
X133652272Y-52849375D01*
X133652272Y-52849375D02*
X133606001Y-52871955D01*
X133606001Y-52871955D02*
X133597444Y-52880107D01*
X133597444Y-52880107D02*
X133584893Y-52895436D01*
X133584893Y-52895436D02*
X133576188Y-52913618D01*
X133576188Y-52913618D02*
X133570631Y-52939909D01*
X133570631Y-52939909D02*
X133567526Y-52979562D01*
X133567526Y-52979562D02*
X133566176Y-53037832D01*
X133566176Y-53037832D02*
X133565886Y-53118173D01*
X133565886Y-53118173D02*
X133565886Y-53322646D01*
X133565886Y-53322646D02*
X133520177Y-53338580D01*
X133520177Y-53338580D02*
X133487713Y-53349420D01*
X133487713Y-53349420D02*
X133469901Y-53354468D01*
X133469901Y-53354468D02*
X133469377Y-53354514D01*
X133469377Y-53354514D02*
X133468037Y-53340623D01*
X133468037Y-53340623D02*
X133466828Y-53301439D01*
X133466828Y-53301439D02*
X133465801Y-53240700D01*
X133465801Y-53240700D02*
X133465002Y-53162141D01*
X133465002Y-53162141D02*
X133464481Y-53069498D01*
X133464481Y-53069498D02*
X133464286Y-52966509D01*
X133464286Y-52966509D02*
X133464286Y-52569342D01*
X133464286Y-52569342D02*
X133511457Y-52549444D01*
X133511457Y-52549444D02*
X133558629Y-52529547D01*
X133558629Y-52529547D02*
X133565886Y-52651289D01*
X133565886Y-52651289D02*
X133565886Y-52651289D01*
G36*
X133565886Y-52651289D02*
G01*
X133570139Y-52710613D01*
X133575025Y-52745572D01*
X133581795Y-52760820D01*
X133591702Y-52761015D01*
X133594914Y-52759195D01*
X133637644Y-52746015D01*
X133693227Y-52746785D01*
X133749737Y-52760333D01*
X133785082Y-52777861D01*
X133821321Y-52805861D01*
X133847813Y-52837549D01*
X133865999Y-52877813D01*
X133877322Y-52931543D01*
X133883222Y-53003626D01*
X133885143Y-53098951D01*
X133885177Y-53117237D01*
X133885200Y-53322646D01*
X133839491Y-53338580D01*
X133807027Y-53349420D01*
X133789215Y-53354468D01*
X133788691Y-53354514D01*
X133786937Y-53340828D01*
X133785444Y-53303076D01*
X133784326Y-53246224D01*
X133783697Y-53175234D01*
X133783600Y-53132073D01*
X133783398Y-53046973D01*
X133782358Y-52985981D01*
X133779831Y-52944177D01*
X133775164Y-52916642D01*
X133767707Y-52898456D01*
X133756811Y-52884698D01*
X133750007Y-52878073D01*
X133703272Y-52851375D01*
X133652272Y-52849375D01*
X133606001Y-52871955D01*
X133597444Y-52880107D01*
X133584893Y-52895436D01*
X133576188Y-52913618D01*
X133570631Y-52939909D01*
X133567526Y-52979562D01*
X133566176Y-53037832D01*
X133565886Y-53118173D01*
X133565886Y-53322646D01*
X133520177Y-53338580D01*
X133487713Y-53349420D01*
X133469901Y-53354468D01*
X133469377Y-53354514D01*
X133468037Y-53340623D01*
X133466828Y-53301439D01*
X133465801Y-53240700D01*
X133465002Y-53162141D01*
X133464481Y-53069498D01*
X133464286Y-52966509D01*
X133464286Y-52569342D01*
X133511457Y-52549444D01*
X133558629Y-52529547D01*
X133565886Y-52651289D01*
G37*
X133565886Y-52651289D02*
X133570139Y-52710613D01*
X133575025Y-52745572D01*
X133581795Y-52760820D01*
X133591702Y-52761015D01*
X133594914Y-52759195D01*
X133637644Y-52746015D01*
X133693227Y-52746785D01*
X133749737Y-52760333D01*
X133785082Y-52777861D01*
X133821321Y-52805861D01*
X133847813Y-52837549D01*
X133865999Y-52877813D01*
X133877322Y-52931543D01*
X133883222Y-53003626D01*
X133885143Y-53098951D01*
X133885177Y-53117237D01*
X133885200Y-53322646D01*
X133839491Y-53338580D01*
X133807027Y-53349420D01*
X133789215Y-53354468D01*
X133788691Y-53354514D01*
X133786937Y-53340828D01*
X133785444Y-53303076D01*
X133784326Y-53246224D01*
X133783697Y-53175234D01*
X133783600Y-53132073D01*
X133783398Y-53046973D01*
X133782358Y-52985981D01*
X133779831Y-52944177D01*
X133775164Y-52916642D01*
X133767707Y-52898456D01*
X133756811Y-52884698D01*
X133750007Y-52878073D01*
X133703272Y-52851375D01*
X133652272Y-52849375D01*
X133606001Y-52871955D01*
X133597444Y-52880107D01*
X133584893Y-52895436D01*
X133576188Y-52913618D01*
X133570631Y-52939909D01*
X133567526Y-52979562D01*
X133566176Y-53037832D01*
X133565886Y-53118173D01*
X133565886Y-53322646D01*
X133520177Y-53338580D01*
X133487713Y-53349420D01*
X133469901Y-53354468D01*
X133469377Y-53354514D01*
X133468037Y-53340623D01*
X133466828Y-53301439D01*
X133465801Y-53240700D01*
X133465002Y-53162141D01*
X133464481Y-53069498D01*
X133464286Y-52966509D01*
X133464286Y-52569342D01*
X133511457Y-52549444D01*
X133558629Y-52529547D01*
X133565886Y-52651289D01*
X134229744Y-52750968D02*
X134286616Y-52772087D01*
X134286616Y-52772087D02*
X134287267Y-52772493D01*
X134287267Y-52772493D02*
X134322440Y-52798380D01*
X134322440Y-52798380D02*
X134348407Y-52828633D01*
X134348407Y-52828633D02*
X134366670Y-52868058D01*
X134366670Y-52868058D02*
X134378732Y-52921462D01*
X134378732Y-52921462D02*
X134386096Y-52993651D01*
X134386096Y-52993651D02*
X134390264Y-53089432D01*
X134390264Y-53089432D02*
X134390629Y-53103078D01*
X134390629Y-53103078D02*
X134395876Y-53308842D01*
X134395876Y-53308842D02*
X134351716Y-53331678D01*
X134351716Y-53331678D02*
X134319763Y-53347110D01*
X134319763Y-53347110D02*
X134300470Y-53354423D01*
X134300470Y-53354423D02*
X134299578Y-53354514D01*
X134299578Y-53354514D02*
X134296239Y-53341022D01*
X134296239Y-53341022D02*
X134293587Y-53304626D01*
X134293587Y-53304626D02*
X134291956Y-53251452D01*
X134291956Y-53251452D02*
X134291600Y-53208393D01*
X134291600Y-53208393D02*
X134291592Y-53138641D01*
X134291592Y-53138641D02*
X134288403Y-53094837D01*
X134288403Y-53094837D02*
X134277288Y-53073944D01*
X134277288Y-53073944D02*
X134253501Y-53072925D01*
X134253501Y-53072925D02*
X134212296Y-53088741D01*
X134212296Y-53088741D02*
X134150086Y-53117815D01*
X134150086Y-53117815D02*
X134104341Y-53141963D01*
X134104341Y-53141963D02*
X134080813Y-53162913D01*
X134080813Y-53162913D02*
X134073896Y-53185747D01*
X134073896Y-53185747D02*
X134073886Y-53186877D01*
X134073886Y-53186877D02*
X134085299Y-53226212D01*
X134085299Y-53226212D02*
X134119092Y-53247462D01*
X134119092Y-53247462D02*
X134170809Y-53250539D01*
X134170809Y-53250539D02*
X134208061Y-53250006D01*
X134208061Y-53250006D02*
X134227703Y-53260735D01*
X134227703Y-53260735D02*
X134239952Y-53286505D01*
X134239952Y-53286505D02*
X134247002Y-53319337D01*
X134247002Y-53319337D02*
X134236842Y-53337966D01*
X134236842Y-53337966D02*
X134233017Y-53340632D01*
X134233017Y-53340632D02*
X134197001Y-53351340D01*
X134197001Y-53351340D02*
X134146566Y-53352856D01*
X134146566Y-53352856D02*
X134094626Y-53345759D01*
X134094626Y-53345759D02*
X134057822Y-53332788D01*
X134057822Y-53332788D02*
X134006938Y-53289585D01*
X134006938Y-53289585D02*
X133978014Y-53229446D01*
X133978014Y-53229446D02*
X133972286Y-53182462D01*
X133972286Y-53182462D02*
X133976657Y-53140082D01*
X133976657Y-53140082D02*
X133992475Y-53105488D01*
X133992475Y-53105488D02*
X134023797Y-53074763D01*
X134023797Y-53074763D02*
X134074678Y-53043990D01*
X134074678Y-53043990D02*
X134149176Y-53009252D01*
X134149176Y-53009252D02*
X134153714Y-53007288D01*
X134153714Y-53007288D02*
X134220821Y-52976287D01*
X134220821Y-52976287D02*
X134262232Y-52950862D01*
X134262232Y-52950862D02*
X134279981Y-52928014D01*
X134279981Y-52928014D02*
X134276107Y-52904745D01*
X134276107Y-52904745D02*
X134252643Y-52878056D01*
X134252643Y-52878056D02*
X134245627Y-52871914D01*
X134245627Y-52871914D02*
X134198630Y-52848100D01*
X134198630Y-52848100D02*
X134149933Y-52849103D01*
X134149933Y-52849103D02*
X134107522Y-52872451D01*
X134107522Y-52872451D02*
X134079384Y-52915675D01*
X134079384Y-52915675D02*
X134076769Y-52924160D01*
X134076769Y-52924160D02*
X134051308Y-52965308D01*
X134051308Y-52965308D02*
X134019001Y-52985128D01*
X134019001Y-52985128D02*
X133972286Y-53004770D01*
X133972286Y-53004770D02*
X133972286Y-52953950D01*
X133972286Y-52953950D02*
X133986496Y-52880082D01*
X133986496Y-52880082D02*
X134028675Y-52812327D01*
X134028675Y-52812327D02*
X134050624Y-52789661D01*
X134050624Y-52789661D02*
X134100517Y-52760569D01*
X134100517Y-52760569D02*
X134163967Y-52747400D01*
X134163967Y-52747400D02*
X134229744Y-52750968D01*
X134229744Y-52750968D02*
X134229744Y-52750968D01*
G36*
X134229744Y-52750968D02*
G01*
X134286616Y-52772087D01*
X134287267Y-52772493D01*
X134322440Y-52798380D01*
X134348407Y-52828633D01*
X134366670Y-52868058D01*
X134378732Y-52921462D01*
X134386096Y-52993651D01*
X134390264Y-53089432D01*
X134390629Y-53103078D01*
X134395876Y-53308842D01*
X134351716Y-53331678D01*
X134319763Y-53347110D01*
X134300470Y-53354423D01*
X134299578Y-53354514D01*
X134296239Y-53341022D01*
X134293587Y-53304626D01*
X134291956Y-53251452D01*
X134291600Y-53208393D01*
X134291592Y-53138641D01*
X134288403Y-53094837D01*
X134277288Y-53073944D01*
X134253501Y-53072925D01*
X134212296Y-53088741D01*
X134150086Y-53117815D01*
X134104341Y-53141963D01*
X134080813Y-53162913D01*
X134073896Y-53185747D01*
X134073886Y-53186877D01*
X134085299Y-53226212D01*
X134119092Y-53247462D01*
X134170809Y-53250539D01*
X134208061Y-53250006D01*
X134227703Y-53260735D01*
X134239952Y-53286505D01*
X134247002Y-53319337D01*
X134236842Y-53337966D01*
X134233017Y-53340632D01*
X134197001Y-53351340D01*
X134146566Y-53352856D01*
X134094626Y-53345759D01*
X134057822Y-53332788D01*
X134006938Y-53289585D01*
X133978014Y-53229446D01*
X133972286Y-53182462D01*
X133976657Y-53140082D01*
X133992475Y-53105488D01*
X134023797Y-53074763D01*
X134074678Y-53043990D01*
X134149176Y-53009252D01*
X134153714Y-53007288D01*
X134220821Y-52976287D01*
X134262232Y-52950862D01*
X134279981Y-52928014D01*
X134276107Y-52904745D01*
X134252643Y-52878056D01*
X134245627Y-52871914D01*
X134198630Y-52848100D01*
X134149933Y-52849103D01*
X134107522Y-52872451D01*
X134079384Y-52915675D01*
X134076769Y-52924160D01*
X134051308Y-52965308D01*
X134019001Y-52985128D01*
X133972286Y-53004770D01*
X133972286Y-52953950D01*
X133986496Y-52880082D01*
X134028675Y-52812327D01*
X134050624Y-52789661D01*
X134100517Y-52760569D01*
X134163967Y-52747400D01*
X134229744Y-52750968D01*
G37*
X134229744Y-52750968D02*
X134286616Y-52772087D01*
X134287267Y-52772493D01*
X134322440Y-52798380D01*
X134348407Y-52828633D01*
X134366670Y-52868058D01*
X134378732Y-52921462D01*
X134386096Y-52993651D01*
X134390264Y-53089432D01*
X134390629Y-53103078D01*
X134395876Y-53308842D01*
X134351716Y-53331678D01*
X134319763Y-53347110D01*
X134300470Y-53354423D01*
X134299578Y-53354514D01*
X134296239Y-53341022D01*
X134293587Y-53304626D01*
X134291956Y-53251452D01*
X134291600Y-53208393D01*
X134291592Y-53138641D01*
X134288403Y-53094837D01*
X134277288Y-53073944D01*
X134253501Y-53072925D01*
X134212296Y-53088741D01*
X134150086Y-53117815D01*
X134104341Y-53141963D01*
X134080813Y-53162913D01*
X134073896Y-53185747D01*
X134073886Y-53186877D01*
X134085299Y-53226212D01*
X134119092Y-53247462D01*
X134170809Y-53250539D01*
X134208061Y-53250006D01*
X134227703Y-53260735D01*
X134239952Y-53286505D01*
X134247002Y-53319337D01*
X134236842Y-53337966D01*
X134233017Y-53340632D01*
X134197001Y-53351340D01*
X134146566Y-53352856D01*
X134094626Y-53345759D01*
X134057822Y-53332788D01*
X134006938Y-53289585D01*
X133978014Y-53229446D01*
X133972286Y-53182462D01*
X133976657Y-53140082D01*
X133992475Y-53105488D01*
X134023797Y-53074763D01*
X134074678Y-53043990D01*
X134149176Y-53009252D01*
X134153714Y-53007288D01*
X134220821Y-52976287D01*
X134262232Y-52950862D01*
X134279981Y-52928014D01*
X134276107Y-52904745D01*
X134252643Y-52878056D01*
X134245627Y-52871914D01*
X134198630Y-52848100D01*
X134149933Y-52849103D01*
X134107522Y-52872451D01*
X134079384Y-52915675D01*
X134076769Y-52924160D01*
X134051308Y-52965308D01*
X134019001Y-52985128D01*
X133972286Y-53004770D01*
X133972286Y-52953950D01*
X133986496Y-52880082D01*
X134028675Y-52812327D01*
X134050624Y-52789661D01*
X134100517Y-52760569D01*
X134163967Y-52747400D01*
X134229744Y-52750968D01*
X134719926Y-52749755D02*
X134785858Y-52774084D01*
X134785858Y-52774084D02*
X134839273Y-52817117D01*
X134839273Y-52817117D02*
X134860164Y-52847409D01*
X134860164Y-52847409D02*
X134882939Y-52902994D01*
X134882939Y-52902994D02*
X134882466Y-52943186D01*
X134882466Y-52943186D02*
X134858562Y-52970217D01*
X134858562Y-52970217D02*
X134849717Y-52974813D01*
X134849717Y-52974813D02*
X134811530Y-52989144D01*
X134811530Y-52989144D02*
X134792028Y-52985472D01*
X134792028Y-52985472D02*
X134785422Y-52961407D01*
X134785422Y-52961407D02*
X134785086Y-52948114D01*
X134785086Y-52948114D02*
X134772992Y-52899210D01*
X134772992Y-52899210D02*
X134741471Y-52864999D01*
X134741471Y-52864999D02*
X134697659Y-52848476D01*
X134697659Y-52848476D02*
X134648695Y-52852634D01*
X134648695Y-52852634D02*
X134608894Y-52874227D01*
X134608894Y-52874227D02*
X134595450Y-52886544D01*
X134595450Y-52886544D02*
X134585921Y-52901487D01*
X134585921Y-52901487D02*
X134579485Y-52924075D01*
X134579485Y-52924075D02*
X134575317Y-52959328D01*
X134575317Y-52959328D02*
X134572597Y-53012266D01*
X134572597Y-53012266D02*
X134570502Y-53087907D01*
X134570502Y-53087907D02*
X134569960Y-53111857D01*
X134569960Y-53111857D02*
X134567981Y-53193790D01*
X134567981Y-53193790D02*
X134565731Y-53251455D01*
X134565731Y-53251455D02*
X134562357Y-53289608D01*
X134562357Y-53289608D02*
X134557006Y-53313004D01*
X134557006Y-53313004D02*
X134548824Y-53326398D01*
X134548824Y-53326398D02*
X134536959Y-53334545D01*
X134536959Y-53334545D02*
X134529362Y-53338144D01*
X134529362Y-53338144D02*
X134497102Y-53350452D01*
X134497102Y-53350452D02*
X134478111Y-53354514D01*
X134478111Y-53354514D02*
X134471836Y-53340948D01*
X134471836Y-53340948D02*
X134468006Y-53299934D01*
X134468006Y-53299934D02*
X134466600Y-53230999D01*
X134466600Y-53230999D02*
X134467598Y-53133669D01*
X134467598Y-53133669D02*
X134467908Y-53118657D01*
X134467908Y-53118657D02*
X134470101Y-53029859D01*
X134470101Y-53029859D02*
X134472693Y-52965019D01*
X134472693Y-52965019D02*
X134476382Y-52919067D01*
X134476382Y-52919067D02*
X134481864Y-52886935D01*
X134481864Y-52886935D02*
X134489835Y-52863553D01*
X134489835Y-52863553D02*
X134500993Y-52843852D01*
X134500993Y-52843852D02*
X134506830Y-52835410D01*
X134506830Y-52835410D02*
X134540296Y-52798057D01*
X134540296Y-52798057D02*
X134577727Y-52769003D01*
X134577727Y-52769003D02*
X134582309Y-52766467D01*
X134582309Y-52766467D02*
X134649426Y-52746443D01*
X134649426Y-52746443D02*
X134719926Y-52749755D01*
X134719926Y-52749755D02*
X134719926Y-52749755D01*
G36*
X134719926Y-52749755D02*
G01*
X134785858Y-52774084D01*
X134839273Y-52817117D01*
X134860164Y-52847409D01*
X134882939Y-52902994D01*
X134882466Y-52943186D01*
X134858562Y-52970217D01*
X134849717Y-52974813D01*
X134811530Y-52989144D01*
X134792028Y-52985472D01*
X134785422Y-52961407D01*
X134785086Y-52948114D01*
X134772992Y-52899210D01*
X134741471Y-52864999D01*
X134697659Y-52848476D01*
X134648695Y-52852634D01*
X134608894Y-52874227D01*
X134595450Y-52886544D01*
X134585921Y-52901487D01*
X134579485Y-52924075D01*
X134575317Y-52959328D01*
X134572597Y-53012266D01*
X134570502Y-53087907D01*
X134569960Y-53111857D01*
X134567981Y-53193790D01*
X134565731Y-53251455D01*
X134562357Y-53289608D01*
X134557006Y-53313004D01*
X134548824Y-53326398D01*
X134536959Y-53334545D01*
X134529362Y-53338144D01*
X134497102Y-53350452D01*
X134478111Y-53354514D01*
X134471836Y-53340948D01*
X134468006Y-53299934D01*
X134466600Y-53230999D01*
X134467598Y-53133669D01*
X134467908Y-53118657D01*
X134470101Y-53029859D01*
X134472693Y-52965019D01*
X134476382Y-52919067D01*
X134481864Y-52886935D01*
X134489835Y-52863553D01*
X134500993Y-52843852D01*
X134506830Y-52835410D01*
X134540296Y-52798057D01*
X134577727Y-52769003D01*
X134582309Y-52766467D01*
X134649426Y-52746443D01*
X134719926Y-52749755D01*
G37*
X134719926Y-52749755D02*
X134785858Y-52774084D01*
X134839273Y-52817117D01*
X134860164Y-52847409D01*
X134882939Y-52902994D01*
X134882466Y-52943186D01*
X134858562Y-52970217D01*
X134849717Y-52974813D01*
X134811530Y-52989144D01*
X134792028Y-52985472D01*
X134785422Y-52961407D01*
X134785086Y-52948114D01*
X134772992Y-52899210D01*
X134741471Y-52864999D01*
X134697659Y-52848476D01*
X134648695Y-52852634D01*
X134608894Y-52874227D01*
X134595450Y-52886544D01*
X134585921Y-52901487D01*
X134579485Y-52924075D01*
X134575317Y-52959328D01*
X134572597Y-53012266D01*
X134570502Y-53087907D01*
X134569960Y-53111857D01*
X134567981Y-53193790D01*
X134565731Y-53251455D01*
X134562357Y-53289608D01*
X134557006Y-53313004D01*
X134548824Y-53326398D01*
X134536959Y-53334545D01*
X134529362Y-53338144D01*
X134497102Y-53350452D01*
X134478111Y-53354514D01*
X134471836Y-53340948D01*
X134468006Y-53299934D01*
X134466600Y-53230999D01*
X134467598Y-53133669D01*
X134467908Y-53118657D01*
X134470101Y-53029859D01*
X134472693Y-52965019D01*
X134476382Y-52919067D01*
X134481864Y-52886935D01*
X134489835Y-52863553D01*
X134500993Y-52843852D01*
X134506830Y-52835410D01*
X134540296Y-52798057D01*
X134577727Y-52769003D01*
X134582309Y-52766467D01*
X134649426Y-52746443D01*
X134719926Y-52749755D01*
X135380117Y-52865358D02*
X135379933Y-52973837D01*
X135379933Y-52973837D02*
X135379219Y-53057287D01*
X135379219Y-53057287D02*
X135377675Y-53119704D01*
X135377675Y-53119704D02*
X135375001Y-53165085D01*
X135375001Y-53165085D02*
X135370894Y-53197429D01*
X135370894Y-53197429D02*
X135365055Y-53220733D01*
X135365055Y-53220733D02*
X135357182Y-53238995D01*
X135357182Y-53238995D02*
X135351221Y-53249418D01*
X135351221Y-53249418D02*
X135301855Y-53305945D01*
X135301855Y-53305945D02*
X135239264Y-53341377D01*
X135239264Y-53341377D02*
X135170013Y-53354090D01*
X135170013Y-53354090D02*
X135100668Y-53342463D01*
X135100668Y-53342463D02*
X135059375Y-53321568D01*
X135059375Y-53321568D02*
X135016025Y-53285422D01*
X135016025Y-53285422D02*
X134986481Y-53241276D01*
X134986481Y-53241276D02*
X134968655Y-53183462D01*
X134968655Y-53183462D02*
X134960463Y-53106313D01*
X134960463Y-53106313D02*
X134959302Y-53049714D01*
X134959302Y-53049714D02*
X134959458Y-53045647D01*
X134959458Y-53045647D02*
X135060857Y-53045647D01*
X135060857Y-53045647D02*
X135061476Y-53110550D01*
X135061476Y-53110550D02*
X135064314Y-53153514D01*
X135064314Y-53153514D02*
X135070840Y-53181622D01*
X135070840Y-53181622D02*
X135082523Y-53201953D01*
X135082523Y-53201953D02*
X135096483Y-53217288D01*
X135096483Y-53217288D02*
X135143365Y-53246890D01*
X135143365Y-53246890D02*
X135193701Y-53249419D01*
X135193701Y-53249419D02*
X135241276Y-53224705D01*
X135241276Y-53224705D02*
X135244979Y-53221356D01*
X135244979Y-53221356D02*
X135260783Y-53203935D01*
X135260783Y-53203935D02*
X135270693Y-53183209D01*
X135270693Y-53183209D02*
X135276058Y-53152362D01*
X135276058Y-53152362D02*
X135278228Y-53104577D01*
X135278228Y-53104577D02*
X135278571Y-53051748D01*
X135278571Y-53051748D02*
X135277827Y-52985381D01*
X135277827Y-52985381D02*
X135274748Y-52941106D01*
X135274748Y-52941106D02*
X135268061Y-52912009D01*
X135268061Y-52912009D02*
X135256496Y-52891173D01*
X135256496Y-52891173D02*
X135247013Y-52880107D01*
X135247013Y-52880107D02*
X135202960Y-52852198D01*
X135202960Y-52852198D02*
X135152224Y-52848843D01*
X135152224Y-52848843D02*
X135103796Y-52870159D01*
X135103796Y-52870159D02*
X135094450Y-52878073D01*
X135094450Y-52878073D02*
X135078540Y-52895647D01*
X135078540Y-52895647D02*
X135068610Y-52916587D01*
X135068610Y-52916587D02*
X135063278Y-52947782D01*
X135063278Y-52947782D02*
X135061163Y-52996122D01*
X135061163Y-52996122D02*
X135060857Y-53045647D01*
X135060857Y-53045647D02*
X134959458Y-53045647D01*
X134959458Y-53045647D02*
X134962810Y-52958568D01*
X134962810Y-52958568D02*
X134974726Y-52890086D01*
X134974726Y-52890086D02*
X134997135Y-52838600D01*
X134997135Y-52838600D02*
X135032124Y-52798443D01*
X135032124Y-52798443D02*
X135059375Y-52777861D01*
X135059375Y-52777861D02*
X135108907Y-52755625D01*
X135108907Y-52755625D02*
X135166316Y-52745304D01*
X135166316Y-52745304D02*
X135219682Y-52748067D01*
X135219682Y-52748067D02*
X135249543Y-52759212D01*
X135249543Y-52759212D02*
X135261261Y-52762383D01*
X135261261Y-52762383D02*
X135269037Y-52750557D01*
X135269037Y-52750557D02*
X135274465Y-52718866D01*
X135274465Y-52718866D02*
X135278571Y-52670593D01*
X135278571Y-52670593D02*
X135283067Y-52616829D01*
X135283067Y-52616829D02*
X135289313Y-52584482D01*
X135289313Y-52584482D02*
X135300676Y-52565985D01*
X135300676Y-52565985D02*
X135320528Y-52553770D01*
X135320528Y-52553770D02*
X135333000Y-52548362D01*
X135333000Y-52548362D02*
X135380171Y-52528601D01*
X135380171Y-52528601D02*
X135380117Y-52865358D01*
X135380117Y-52865358D02*
X135380117Y-52865358D01*
G36*
X134974726Y-52890086D02*
G01*
X134997135Y-52838600D01*
X135032124Y-52798443D01*
X135059375Y-52777861D01*
X135108907Y-52755625D01*
X135166316Y-52745304D01*
X135219682Y-52748067D01*
X135249543Y-52759212D01*
X135261261Y-52762383D01*
X135269037Y-52750557D01*
X135274465Y-52718866D01*
X135278571Y-52670593D01*
X135283067Y-52616829D01*
X135289313Y-52584482D01*
X135300676Y-52565985D01*
X135320528Y-52553770D01*
X135333000Y-52548362D01*
X135380171Y-52528601D01*
X135380117Y-52865358D01*
X135379933Y-52973837D01*
X135379219Y-53057287D01*
X135377675Y-53119704D01*
X135375001Y-53165085D01*
X135370894Y-53197429D01*
X135365055Y-53220733D01*
X135357182Y-53238995D01*
X135351221Y-53249418D01*
X135301855Y-53305945D01*
X135239264Y-53341377D01*
X135170013Y-53354090D01*
X135100668Y-53342463D01*
X135059375Y-53321568D01*
X135016025Y-53285422D01*
X134986481Y-53241276D01*
X134968655Y-53183462D01*
X134960463Y-53106313D01*
X134959302Y-53049714D01*
X134959458Y-53045647D01*
X135060857Y-53045647D01*
X135061476Y-53110550D01*
X135064314Y-53153514D01*
X135070840Y-53181622D01*
X135082523Y-53201953D01*
X135096483Y-53217288D01*
X135143365Y-53246890D01*
X135193701Y-53249419D01*
X135241276Y-53224705D01*
X135244979Y-53221356D01*
X135260783Y-53203935D01*
X135270693Y-53183209D01*
X135276058Y-53152362D01*
X135278228Y-53104577D01*
X135278571Y-53051748D01*
X135277827Y-52985381D01*
X135274748Y-52941106D01*
X135268061Y-52912009D01*
X135256496Y-52891173D01*
X135247013Y-52880107D01*
X135202960Y-52852198D01*
X135152224Y-52848843D01*
X135103796Y-52870159D01*
X135094450Y-52878073D01*
X135078540Y-52895647D01*
X135068610Y-52916587D01*
X135063278Y-52947782D01*
X135061163Y-52996122D01*
X135060857Y-53045647D01*
X134959458Y-53045647D01*
X134962810Y-52958568D01*
X134974726Y-52890086D01*
G37*
X134974726Y-52890086D02*
X134997135Y-52838600D01*
X135032124Y-52798443D01*
X135059375Y-52777861D01*
X135108907Y-52755625D01*
X135166316Y-52745304D01*
X135219682Y-52748067D01*
X135249543Y-52759212D01*
X135261261Y-52762383D01*
X135269037Y-52750557D01*
X135274465Y-52718866D01*
X135278571Y-52670593D01*
X135283067Y-52616829D01*
X135289313Y-52584482D01*
X135300676Y-52565985D01*
X135320528Y-52553770D01*
X135333000Y-52548362D01*
X135380171Y-52528601D01*
X135380117Y-52865358D01*
X135379933Y-52973837D01*
X135379219Y-53057287D01*
X135377675Y-53119704D01*
X135375001Y-53165085D01*
X135370894Y-53197429D01*
X135365055Y-53220733D01*
X135357182Y-53238995D01*
X135351221Y-53249418D01*
X135301855Y-53305945D01*
X135239264Y-53341377D01*
X135170013Y-53354090D01*
X135100668Y-53342463D01*
X135059375Y-53321568D01*
X135016025Y-53285422D01*
X134986481Y-53241276D01*
X134968655Y-53183462D01*
X134960463Y-53106313D01*
X134959302Y-53049714D01*
X134959458Y-53045647D01*
X135060857Y-53045647D01*
X135061476Y-53110550D01*
X135064314Y-53153514D01*
X135070840Y-53181622D01*
X135082523Y-53201953D01*
X135096483Y-53217288D01*
X135143365Y-53246890D01*
X135193701Y-53249419D01*
X135241276Y-53224705D01*
X135244979Y-53221356D01*
X135260783Y-53203935D01*
X135270693Y-53183209D01*
X135276058Y-53152362D01*
X135278228Y-53104577D01*
X135278571Y-53051748D01*
X135277827Y-52985381D01*
X135274748Y-52941106D01*
X135268061Y-52912009D01*
X135256496Y-52891173D01*
X135247013Y-52880107D01*
X135202960Y-52852198D01*
X135152224Y-52848843D01*
X135103796Y-52870159D01*
X135094450Y-52878073D01*
X135078540Y-52895647D01*
X135068610Y-52916587D01*
X135063278Y-52947782D01*
X135061163Y-52996122D01*
X135060857Y-53045647D01*
X134959458Y-53045647D01*
X134962810Y-52958568D01*
X134974726Y-52890086D01*
X135969833Y-52758663D02*
X135972048Y-52796850D01*
X135972048Y-52796850D02*
X135973784Y-52854886D01*
X135973784Y-52854886D02*
X135974899Y-52928180D01*
X135974899Y-52928180D02*
X135975257Y-53005055D01*
X135975257Y-53005055D02*
X135975257Y-53265196D01*
X135975257Y-53265196D02*
X135929326Y-53311127D01*
X135929326Y-53311127D02*
X135897675Y-53339429D01*
X135897675Y-53339429D02*
X135869890Y-53350893D01*
X135869890Y-53350893D02*
X135831915Y-53350168D01*
X135831915Y-53350168D02*
X135816840Y-53348321D01*
X135816840Y-53348321D02*
X135769726Y-53342948D01*
X135769726Y-53342948D02*
X135730756Y-53339869D01*
X135730756Y-53339869D02*
X135721257Y-53339585D01*
X135721257Y-53339585D02*
X135689233Y-53341445D01*
X135689233Y-53341445D02*
X135643432Y-53346114D01*
X135643432Y-53346114D02*
X135625674Y-53348321D01*
X135625674Y-53348321D02*
X135582057Y-53351735D01*
X135582057Y-53351735D02*
X135552745Y-53344320D01*
X135552745Y-53344320D02*
X135523680Y-53321427D01*
X135523680Y-53321427D02*
X135513188Y-53311127D01*
X135513188Y-53311127D02*
X135467257Y-53265196D01*
X135467257Y-53265196D02*
X135467257Y-52778602D01*
X135467257Y-52778602D02*
X135504226Y-52761758D01*
X135504226Y-52761758D02*
X135536059Y-52749282D01*
X135536059Y-52749282D02*
X135554683Y-52744914D01*
X135554683Y-52744914D02*
X135559458Y-52758718D01*
X135559458Y-52758718D02*
X135563921Y-52797286D01*
X135563921Y-52797286D02*
X135567775Y-52856356D01*
X135567775Y-52856356D02*
X135570722Y-52931663D01*
X135570722Y-52931663D02*
X135572143Y-52995286D01*
X135572143Y-52995286D02*
X135576114Y-53245657D01*
X135576114Y-53245657D02*
X135610759Y-53250556D01*
X135610759Y-53250556D02*
X135642268Y-53247131D01*
X135642268Y-53247131D02*
X135657708Y-53236041D01*
X135657708Y-53236041D02*
X135662023Y-53215308D01*
X135662023Y-53215308D02*
X135665708Y-53171145D01*
X135665708Y-53171145D02*
X135668469Y-53109146D01*
X135668469Y-53109146D02*
X135670012Y-53034909D01*
X135670012Y-53034909D02*
X135670235Y-52996706D01*
X135670235Y-52996706D02*
X135670457Y-52776783D01*
X135670457Y-52776783D02*
X135716166Y-52760849D01*
X135716166Y-52760849D02*
X135748518Y-52750015D01*
X135748518Y-52750015D02*
X135766115Y-52744962D01*
X135766115Y-52744962D02*
X135766623Y-52744914D01*
X135766623Y-52744914D02*
X135768388Y-52758648D01*
X135768388Y-52758648D02*
X135770329Y-52796730D01*
X135770329Y-52796730D02*
X135772282Y-52854482D01*
X135772282Y-52854482D02*
X135774084Y-52927227D01*
X135774084Y-52927227D02*
X135775343Y-52995286D01*
X135775343Y-52995286D02*
X135779314Y-53245657D01*
X135779314Y-53245657D02*
X135866400Y-53245657D01*
X135866400Y-53245657D02*
X135870396Y-53017240D01*
X135870396Y-53017240D02*
X135874392Y-52788822D01*
X135874392Y-52788822D02*
X135916847Y-52766868D01*
X135916847Y-52766868D02*
X135948192Y-52751793D01*
X135948192Y-52751793D02*
X135966744Y-52744951D01*
X135966744Y-52744951D02*
X135967279Y-52744914D01*
X135967279Y-52744914D02*
X135969833Y-52758663D01*
X135969833Y-52758663D02*
X135969833Y-52758663D01*
G36*
X135969833Y-52758663D02*
G01*
X135972048Y-52796850D01*
X135973784Y-52854886D01*
X135974899Y-52928180D01*
X135975257Y-53005055D01*
X135975257Y-53265196D01*
X135929326Y-53311127D01*
X135897675Y-53339429D01*
X135869890Y-53350893D01*
X135831915Y-53350168D01*
X135816840Y-53348321D01*
X135769726Y-53342948D01*
X135730756Y-53339869D01*
X135721257Y-53339585D01*
X135689233Y-53341445D01*
X135643432Y-53346114D01*
X135625674Y-53348321D01*
X135582057Y-53351735D01*
X135552745Y-53344320D01*
X135523680Y-53321427D01*
X135513188Y-53311127D01*
X135467257Y-53265196D01*
X135467257Y-52778602D01*
X135504226Y-52761758D01*
X135536059Y-52749282D01*
X135554683Y-52744914D01*
X135559458Y-52758718D01*
X135563921Y-52797286D01*
X135567775Y-52856356D01*
X135570722Y-52931663D01*
X135572143Y-52995286D01*
X135576114Y-53245657D01*
X135610759Y-53250556D01*
X135642268Y-53247131D01*
X135657708Y-53236041D01*
X135662023Y-53215308D01*
X135665708Y-53171145D01*
X135668469Y-53109146D01*
X135670012Y-53034909D01*
X135670235Y-52996706D01*
X135670457Y-52776783D01*
X135716166Y-52760849D01*
X135748518Y-52750015D01*
X135766115Y-52744962D01*
X135766623Y-52744914D01*
X135768388Y-52758648D01*
X135770329Y-52796730D01*
X135772282Y-52854482D01*
X135774084Y-52927227D01*
X135775343Y-52995286D01*
X135779314Y-53245657D01*
X135866400Y-53245657D01*
X135870396Y-53017240D01*
X135874392Y-52788822D01*
X135916847Y-52766868D01*
X135948192Y-52751793D01*
X135966744Y-52744951D01*
X135967279Y-52744914D01*
X135969833Y-52758663D01*
G37*
X135969833Y-52758663D02*
X135972048Y-52796850D01*
X135973784Y-52854886D01*
X135974899Y-52928180D01*
X135975257Y-53005055D01*
X135975257Y-53265196D01*
X135929326Y-53311127D01*
X135897675Y-53339429D01*
X135869890Y-53350893D01*
X135831915Y-53350168D01*
X135816840Y-53348321D01*
X135769726Y-53342948D01*
X135730756Y-53339869D01*
X135721257Y-53339585D01*
X135689233Y-53341445D01*
X135643432Y-53346114D01*
X135625674Y-53348321D01*
X135582057Y-53351735D01*
X135552745Y-53344320D01*
X135523680Y-53321427D01*
X135513188Y-53311127D01*
X135467257Y-53265196D01*
X135467257Y-52778602D01*
X135504226Y-52761758D01*
X135536059Y-52749282D01*
X135554683Y-52744914D01*
X135559458Y-52758718D01*
X135563921Y-52797286D01*
X135567775Y-52856356D01*
X135570722Y-52931663D01*
X135572143Y-52995286D01*
X135576114Y-53245657D01*
X135610759Y-53250556D01*
X135642268Y-53247131D01*
X135657708Y-53236041D01*
X135662023Y-53215308D01*
X135665708Y-53171145D01*
X135668469Y-53109146D01*
X135670012Y-53034909D01*
X135670235Y-52996706D01*
X135670457Y-52776783D01*
X135716166Y-52760849D01*
X135748518Y-52750015D01*
X135766115Y-52744962D01*
X135766623Y-52744914D01*
X135768388Y-52758648D01*
X135770329Y-52796730D01*
X135772282Y-52854482D01*
X135774084Y-52927227D01*
X135775343Y-52995286D01*
X135779314Y-53245657D01*
X135866400Y-53245657D01*
X135870396Y-53017240D01*
X135874392Y-52788822D01*
X135916847Y-52766868D01*
X135948192Y-52751793D01*
X135966744Y-52744951D01*
X135967279Y-52744914D01*
X135969833Y-52758663D01*
X136334876Y-52756335D02*
X136376667Y-52775344D01*
X136376667Y-52775344D02*
X136409469Y-52798378D01*
X136409469Y-52798378D02*
X136433503Y-52824133D01*
X136433503Y-52824133D02*
X136450097Y-52857358D01*
X136450097Y-52857358D02*
X136460577Y-52902800D01*
X136460577Y-52902800D02*
X136466271Y-52965207D01*
X136466271Y-52965207D02*
X136468507Y-53049327D01*
X136468507Y-53049327D02*
X136468743Y-53104721D01*
X136468743Y-53104721D02*
X136468743Y-53320826D01*
X136468743Y-53320826D02*
X136431774Y-53337670D01*
X136431774Y-53337670D02*
X136402656Y-53349981D01*
X136402656Y-53349981D02*
X136388231Y-53354514D01*
X136388231Y-53354514D02*
X136385472Y-53341025D01*
X136385472Y-53341025D02*
X136383282Y-53304653D01*
X136383282Y-53304653D02*
X136381942Y-53251542D01*
X136381942Y-53251542D02*
X136381657Y-53209372D01*
X136381657Y-53209372D02*
X136380434Y-53148447D01*
X136380434Y-53148447D02*
X136377136Y-53100115D01*
X136377136Y-53100115D02*
X136372321Y-53070518D01*
X136372321Y-53070518D02*
X136368496Y-53064229D01*
X136368496Y-53064229D02*
X136342783Y-53070652D01*
X136342783Y-53070652D02*
X136302418Y-53087125D01*
X136302418Y-53087125D02*
X136255679Y-53109458D01*
X136255679Y-53109458D02*
X136210845Y-53133457D01*
X136210845Y-53133457D02*
X136176193Y-53154930D01*
X136176193Y-53154930D02*
X136160002Y-53169685D01*
X136160002Y-53169685D02*
X136159938Y-53169845D01*
X136159938Y-53169845D02*
X136161330Y-53197152D01*
X136161330Y-53197152D02*
X136173818Y-53223219D01*
X136173818Y-53223219D02*
X136195743Y-53244392D01*
X136195743Y-53244392D02*
X136227743Y-53251474D01*
X136227743Y-53251474D02*
X136255092Y-53250649D01*
X136255092Y-53250649D02*
X136293826Y-53250042D01*
X136293826Y-53250042D02*
X136314158Y-53259116D01*
X136314158Y-53259116D02*
X136326369Y-53283092D01*
X136326369Y-53283092D02*
X136327909Y-53287613D01*
X136327909Y-53287613D02*
X136333203Y-53321806D01*
X136333203Y-53321806D02*
X136319047Y-53342568D01*
X136319047Y-53342568D02*
X136282148Y-53352462D01*
X136282148Y-53352462D02*
X136242289Y-53354292D01*
X136242289Y-53354292D02*
X136170562Y-53340727D01*
X136170562Y-53340727D02*
X136133432Y-53321355D01*
X136133432Y-53321355D02*
X136087576Y-53275845D01*
X136087576Y-53275845D02*
X136063256Y-53219983D01*
X136063256Y-53219983D02*
X136061073Y-53160957D01*
X136061073Y-53160957D02*
X136081629Y-53105953D01*
X136081629Y-53105953D02*
X136112549Y-53071486D01*
X136112549Y-53071486D02*
X136143420Y-53052189D01*
X136143420Y-53052189D02*
X136191942Y-53027759D01*
X136191942Y-53027759D02*
X136248485Y-53002985D01*
X136248485Y-53002985D02*
X136257910Y-52999199D01*
X136257910Y-52999199D02*
X136320019Y-52971791D01*
X136320019Y-52971791D02*
X136355822Y-52947634D01*
X136355822Y-52947634D02*
X136367337Y-52923619D01*
X136367337Y-52923619D02*
X136356580Y-52896635D01*
X136356580Y-52896635D02*
X136338114Y-52875543D01*
X136338114Y-52875543D02*
X136294469Y-52849572D01*
X136294469Y-52849572D02*
X136246446Y-52847624D01*
X136246446Y-52847624D02*
X136202406Y-52867637D01*
X136202406Y-52867637D02*
X136170709Y-52907551D01*
X136170709Y-52907551D02*
X136166549Y-52917848D01*
X136166549Y-52917848D02*
X136142327Y-52955724D01*
X136142327Y-52955724D02*
X136106965Y-52983842D01*
X136106965Y-52983842D02*
X136062343Y-53006917D01*
X136062343Y-53006917D02*
X136062343Y-52941485D01*
X136062343Y-52941485D02*
X136064969Y-52901506D01*
X136064969Y-52901506D02*
X136076230Y-52869997D01*
X136076230Y-52869997D02*
X136101199Y-52836378D01*
X136101199Y-52836378D02*
X136125169Y-52810484D01*
X136125169Y-52810484D02*
X136162441Y-52773817D01*
X136162441Y-52773817D02*
X136191401Y-52754121D01*
X136191401Y-52754121D02*
X136222505Y-52746220D01*
X136222505Y-52746220D02*
X136257713Y-52744914D01*
X136257713Y-52744914D02*
X136334876Y-52756335D01*
X136334876Y-52756335D02*
X136334876Y-52756335D01*
G36*
X136334876Y-52756335D02*
G01*
X136376667Y-52775344D01*
X136409469Y-52798378D01*
X136433503Y-52824133D01*
X136450097Y-52857358D01*
X136460577Y-52902800D01*
X136466271Y-52965207D01*
X136468507Y-53049327D01*
X136468743Y-53104721D01*
X136468743Y-53320826D01*
X136431774Y-53337670D01*
X136402656Y-53349981D01*
X136388231Y-53354514D01*
X136385472Y-53341025D01*
X136383282Y-53304653D01*
X136381942Y-53251542D01*
X136381657Y-53209372D01*
X136380434Y-53148447D01*
X136377136Y-53100115D01*
X136372321Y-53070518D01*
X136368496Y-53064229D01*
X136342783Y-53070652D01*
X136302418Y-53087125D01*
X136255679Y-53109458D01*
X136210845Y-53133457D01*
X136176193Y-53154930D01*
X136160002Y-53169685D01*
X136159938Y-53169845D01*
X136161330Y-53197152D01*
X136173818Y-53223219D01*
X136195743Y-53244392D01*
X136227743Y-53251474D01*
X136255092Y-53250649D01*
X136293826Y-53250042D01*
X136314158Y-53259116D01*
X136326369Y-53283092D01*
X136327909Y-53287613D01*
X136333203Y-53321806D01*
X136319047Y-53342568D01*
X136282148Y-53352462D01*
X136242289Y-53354292D01*
X136170562Y-53340727D01*
X136133432Y-53321355D01*
X136087576Y-53275845D01*
X136063256Y-53219983D01*
X136061073Y-53160957D01*
X136081629Y-53105953D01*
X136112549Y-53071486D01*
X136143420Y-53052189D01*
X136191942Y-53027759D01*
X136248485Y-53002985D01*
X136257910Y-52999199D01*
X136320019Y-52971791D01*
X136355822Y-52947634D01*
X136367337Y-52923619D01*
X136356580Y-52896635D01*
X136338114Y-52875543D01*
X136294469Y-52849572D01*
X136246446Y-52847624D01*
X136202406Y-52867637D01*
X136170709Y-52907551D01*
X136166549Y-52917848D01*
X136142327Y-52955724D01*
X136106965Y-52983842D01*
X136062343Y-53006917D01*
X136062343Y-52941485D01*
X136064969Y-52901506D01*
X136076230Y-52869997D01*
X136101199Y-52836378D01*
X136125169Y-52810484D01*
X136162441Y-52773817D01*
X136191401Y-52754121D01*
X136222505Y-52746220D01*
X136257713Y-52744914D01*
X136334876Y-52756335D01*
G37*
X136334876Y-52756335D02*
X136376667Y-52775344D01*
X136409469Y-52798378D01*
X136433503Y-52824133D01*
X136450097Y-52857358D01*
X136460577Y-52902800D01*
X136466271Y-52965207D01*
X136468507Y-53049327D01*
X136468743Y-53104721D01*
X136468743Y-53320826D01*
X136431774Y-53337670D01*
X136402656Y-53349981D01*
X136388231Y-53354514D01*
X136385472Y-53341025D01*
X136383282Y-53304653D01*
X136381942Y-53251542D01*
X136381657Y-53209372D01*
X136380434Y-53148447D01*
X136377136Y-53100115D01*
X136372321Y-53070518D01*
X136368496Y-53064229D01*
X136342783Y-53070652D01*
X136302418Y-53087125D01*
X136255679Y-53109458D01*
X136210845Y-53133457D01*
X136176193Y-53154930D01*
X136160002Y-53169685D01*
X136159938Y-53169845D01*
X136161330Y-53197152D01*
X136173818Y-53223219D01*
X136195743Y-53244392D01*
X136227743Y-53251474D01*
X136255092Y-53250649D01*
X136293826Y-53250042D01*
X136314158Y-53259116D01*
X136326369Y-53283092D01*
X136327909Y-53287613D01*
X136333203Y-53321806D01*
X136319047Y-53342568D01*
X136282148Y-53352462D01*
X136242289Y-53354292D01*
X136170562Y-53340727D01*
X136133432Y-53321355D01*
X136087576Y-53275845D01*
X136063256Y-53219983D01*
X136061073Y-53160957D01*
X136081629Y-53105953D01*
X136112549Y-53071486D01*
X136143420Y-53052189D01*
X136191942Y-53027759D01*
X136248485Y-53002985D01*
X136257910Y-52999199D01*
X136320019Y-52971791D01*
X136355822Y-52947634D01*
X136367337Y-52923619D01*
X136356580Y-52896635D01*
X136338114Y-52875543D01*
X136294469Y-52849572D01*
X136246446Y-52847624D01*
X136202406Y-52867637D01*
X136170709Y-52907551D01*
X136166549Y-52917848D01*
X136142327Y-52955724D01*
X136106965Y-52983842D01*
X136062343Y-53006917D01*
X136062343Y-52941485D01*
X136064969Y-52901506D01*
X136076230Y-52869997D01*
X136101199Y-52836378D01*
X136125169Y-52810484D01*
X136162441Y-52773817D01*
X136191401Y-52754121D01*
X136222505Y-52746220D01*
X136257713Y-52744914D01*
X136334876Y-52756335D01*
X136842600Y-52758752D02*
X136859948Y-52766334D01*
X136859948Y-52766334D02*
X136901356Y-52799128D01*
X136901356Y-52799128D02*
X136936765Y-52846547D01*
X136936765Y-52846547D02*
X136958664Y-52897151D01*
X136958664Y-52897151D02*
X136962229Y-52922098D01*
X136962229Y-52922098D02*
X136950279Y-52956927D01*
X136950279Y-52956927D02*
X136924067Y-52975357D01*
X136924067Y-52975357D02*
X136895964Y-52986516D01*
X136895964Y-52986516D02*
X136883095Y-52988572D01*
X136883095Y-52988572D02*
X136876829Y-52973649D01*
X136876829Y-52973649D02*
X136864456Y-52941175D01*
X136864456Y-52941175D02*
X136859028Y-52926502D01*
X136859028Y-52926502D02*
X136828590Y-52875744D01*
X136828590Y-52875744D02*
X136784520Y-52850427D01*
X136784520Y-52850427D02*
X136728010Y-52851206D01*
X136728010Y-52851206D02*
X136723825Y-52852203D01*
X136723825Y-52852203D02*
X136693655Y-52866507D01*
X136693655Y-52866507D02*
X136671476Y-52894393D01*
X136671476Y-52894393D02*
X136656327Y-52939287D01*
X136656327Y-52939287D02*
X136647250Y-53004615D01*
X136647250Y-53004615D02*
X136643286Y-53093804D01*
X136643286Y-53093804D02*
X136642914Y-53141261D01*
X136642914Y-53141261D02*
X136642730Y-53216071D01*
X136642730Y-53216071D02*
X136641522Y-53267069D01*
X136641522Y-53267069D02*
X136638309Y-53299471D01*
X136638309Y-53299471D02*
X136632109Y-53318495D01*
X136632109Y-53318495D02*
X136621940Y-53329356D01*
X136621940Y-53329356D02*
X136606819Y-53337272D01*
X136606819Y-53337272D02*
X136605946Y-53337670D01*
X136605946Y-53337670D02*
X136576828Y-53349981D01*
X136576828Y-53349981D02*
X136562403Y-53354514D01*
X136562403Y-53354514D02*
X136560186Y-53340809D01*
X136560186Y-53340809D02*
X136558289Y-53302925D01*
X136558289Y-53302925D02*
X136556847Y-53245715D01*
X136556847Y-53245715D02*
X136555998Y-53174027D01*
X136555998Y-53174027D02*
X136555829Y-53121565D01*
X136555829Y-53121565D02*
X136556692Y-53020047D01*
X136556692Y-53020047D02*
X136560070Y-52943032D01*
X136560070Y-52943032D02*
X136567142Y-52886023D01*
X136567142Y-52886023D02*
X136579088Y-52844526D01*
X136579088Y-52844526D02*
X136597090Y-52814043D01*
X136597090Y-52814043D02*
X136622327Y-52790080D01*
X136622327Y-52790080D02*
X136647247Y-52773355D01*
X136647247Y-52773355D02*
X136707171Y-52751097D01*
X136707171Y-52751097D02*
X136776911Y-52746076D01*
X136776911Y-52746076D02*
X136842600Y-52758752D01*
X136842600Y-52758752D02*
X136842600Y-52758752D01*
G36*
X136842600Y-52758752D02*
G01*
X136859948Y-52766334D01*
X136901356Y-52799128D01*
X136936765Y-52846547D01*
X136958664Y-52897151D01*
X136962229Y-52922098D01*
X136950279Y-52956927D01*
X136924067Y-52975357D01*
X136895964Y-52986516D01*
X136883095Y-52988572D01*
X136876829Y-52973649D01*
X136864456Y-52941175D01*
X136859028Y-52926502D01*
X136828590Y-52875744D01*
X136784520Y-52850427D01*
X136728010Y-52851206D01*
X136723825Y-52852203D01*
X136693655Y-52866507D01*
X136671476Y-52894393D01*
X136656327Y-52939287D01*
X136647250Y-53004615D01*
X136643286Y-53093804D01*
X136642914Y-53141261D01*
X136642730Y-53216071D01*
X136641522Y-53267069D01*
X136638309Y-53299471D01*
X136632109Y-53318495D01*
X136621940Y-53329356D01*
X136606819Y-53337272D01*
X136605946Y-53337670D01*
X136576828Y-53349981D01*
X136562403Y-53354514D01*
X136560186Y-53340809D01*
X136558289Y-53302925D01*
X136556847Y-53245715D01*
X136555998Y-53174027D01*
X136555829Y-53121565D01*
X136556692Y-53020047D01*
X136560070Y-52943032D01*
X136567142Y-52886023D01*
X136579088Y-52844526D01*
X136597090Y-52814043D01*
X136622327Y-52790080D01*
X136647247Y-52773355D01*
X136707171Y-52751097D01*
X136776911Y-52746076D01*
X136842600Y-52758752D01*
G37*
X136842600Y-52758752D02*
X136859948Y-52766334D01*
X136901356Y-52799128D01*
X136936765Y-52846547D01*
X136958664Y-52897151D01*
X136962229Y-52922098D01*
X136950279Y-52956927D01*
X136924067Y-52975357D01*
X136895964Y-52986516D01*
X136883095Y-52988572D01*
X136876829Y-52973649D01*
X136864456Y-52941175D01*
X136859028Y-52926502D01*
X136828590Y-52875744D01*
X136784520Y-52850427D01*
X136728010Y-52851206D01*
X136723825Y-52852203D01*
X136693655Y-52866507D01*
X136671476Y-52894393D01*
X136656327Y-52939287D01*
X136647250Y-53004615D01*
X136643286Y-53093804D01*
X136642914Y-53141261D01*
X136642730Y-53216071D01*
X136641522Y-53267069D01*
X136638309Y-53299471D01*
X136632109Y-53318495D01*
X136621940Y-53329356D01*
X136606819Y-53337272D01*
X136605946Y-53337670D01*
X136576828Y-53349981D01*
X136562403Y-53354514D01*
X136560186Y-53340809D01*
X136558289Y-53302925D01*
X136556847Y-53245715D01*
X136555998Y-53174027D01*
X136555829Y-53121565D01*
X136556692Y-53020047D01*
X136560070Y-52943032D01*
X136567142Y-52886023D01*
X136579088Y-52844526D01*
X136597090Y-52814043D01*
X136622327Y-52790080D01*
X136647247Y-52773355D01*
X136707171Y-52751097D01*
X136776911Y-52746076D01*
X136842600Y-52758752D01*
X137343595Y-52766966D02*
X137401021Y-52804497D01*
X137401021Y-52804497D02*
X137428719Y-52838096D01*
X137428719Y-52838096D02*
X137450662Y-52899064D01*
X137450662Y-52899064D02*
X137452405Y-52947308D01*
X137452405Y-52947308D02*
X137448457Y-53011816D01*
X137448457Y-53011816D02*
X137299686Y-53076934D01*
X137299686Y-53076934D02*
X137227349Y-53110202D01*
X137227349Y-53110202D02*
X137180084Y-53136964D01*
X137180084Y-53136964D02*
X137155507Y-53160144D01*
X137155507Y-53160144D02*
X137151237Y-53182667D01*
X137151237Y-53182667D02*
X137164889Y-53207455D01*
X137164889Y-53207455D02*
X137179943Y-53223886D01*
X137179943Y-53223886D02*
X137223746Y-53250235D01*
X137223746Y-53250235D02*
X137271389Y-53252081D01*
X137271389Y-53252081D02*
X137315145Y-53231546D01*
X137315145Y-53231546D02*
X137347289Y-53190752D01*
X137347289Y-53190752D02*
X137353038Y-53176347D01*
X137353038Y-53176347D02*
X137380576Y-53131356D01*
X137380576Y-53131356D02*
X137412258Y-53112182D01*
X137412258Y-53112182D02*
X137455714Y-53095779D01*
X137455714Y-53095779D02*
X137455714Y-53157966D01*
X137455714Y-53157966D02*
X137451872Y-53200283D01*
X137451872Y-53200283D02*
X137436823Y-53235969D01*
X137436823Y-53235969D02*
X137405280Y-53276943D01*
X137405280Y-53276943D02*
X137400592Y-53282267D01*
X137400592Y-53282267D02*
X137365506Y-53318720D01*
X137365506Y-53318720D02*
X137335347Y-53338283D01*
X137335347Y-53338283D02*
X137297615Y-53347283D01*
X137297615Y-53347283D02*
X137266335Y-53350230D01*
X137266335Y-53350230D02*
X137210385Y-53350965D01*
X137210385Y-53350965D02*
X137170555Y-53341660D01*
X137170555Y-53341660D02*
X137145708Y-53327846D01*
X137145708Y-53327846D02*
X137106656Y-53297467D01*
X137106656Y-53297467D02*
X137079625Y-53264613D01*
X137079625Y-53264613D02*
X137062517Y-53223294D01*
X137062517Y-53223294D02*
X137053238Y-53167521D01*
X137053238Y-53167521D02*
X137049693Y-53091305D01*
X137049693Y-53091305D02*
X137049410Y-53052622D01*
X137049410Y-53052622D02*
X137050372Y-53006247D01*
X137050372Y-53006247D02*
X137138007Y-53006247D01*
X137138007Y-53006247D02*
X137139023Y-53031126D01*
X137139023Y-53031126D02*
X137141556Y-53035200D01*
X137141556Y-53035200D02*
X137158274Y-53029665D01*
X137158274Y-53029665D02*
X137194249Y-53015017D01*
X137194249Y-53015017D02*
X137242331Y-52994190D01*
X137242331Y-52994190D02*
X137252386Y-52989714D01*
X137252386Y-52989714D02*
X137313152Y-52958814D01*
X137313152Y-52958814D02*
X137346632Y-52931657D01*
X137346632Y-52931657D02*
X137353990Y-52906220D01*
X137353990Y-52906220D02*
X137336391Y-52880481D01*
X137336391Y-52880481D02*
X137321856Y-52869109D01*
X137321856Y-52869109D02*
X137269410Y-52846364D01*
X137269410Y-52846364D02*
X137220322Y-52850122D01*
X137220322Y-52850122D02*
X137179227Y-52877884D01*
X137179227Y-52877884D02*
X137150758Y-52927152D01*
X137150758Y-52927152D02*
X137141631Y-52966257D01*
X137141631Y-52966257D02*
X137138007Y-53006247D01*
X137138007Y-53006247D02*
X137050372Y-53006247D01*
X137050372Y-53006247D02*
X137051285Y-52962249D01*
X137051285Y-52962249D02*
X137058196Y-52895384D01*
X137058196Y-52895384D02*
X137071884Y-52846695D01*
X137071884Y-52846695D02*
X137094096Y-52810849D01*
X137094096Y-52810849D02*
X137126574Y-52782513D01*
X137126574Y-52782513D02*
X137140733Y-52773355D01*
X137140733Y-52773355D02*
X137205053Y-52749507D01*
X137205053Y-52749507D02*
X137275473Y-52748006D01*
X137275473Y-52748006D02*
X137343595Y-52766966D01*
X137343595Y-52766966D02*
X137343595Y-52766966D01*
G36*
X137058196Y-52895384D02*
G01*
X137071884Y-52846695D01*
X137094096Y-52810849D01*
X137126574Y-52782513D01*
X137140733Y-52773355D01*
X137205053Y-52749507D01*
X137275473Y-52748006D01*
X137343595Y-52766966D01*
X137401021Y-52804497D01*
X137428719Y-52838096D01*
X137450662Y-52899064D01*
X137452405Y-52947308D01*
X137448457Y-53011816D01*
X137299686Y-53076934D01*
X137227349Y-53110202D01*
X137180084Y-53136964D01*
X137155507Y-53160144D01*
X137151237Y-53182667D01*
X137164889Y-53207455D01*
X137179943Y-53223886D01*
X137223746Y-53250235D01*
X137271389Y-53252081D01*
X137315145Y-53231546D01*
X137347289Y-53190752D01*
X137353038Y-53176347D01*
X137380576Y-53131356D01*
X137412258Y-53112182D01*
X137455714Y-53095779D01*
X137455714Y-53157966D01*
X137451872Y-53200283D01*
X137436823Y-53235969D01*
X137405280Y-53276943D01*
X137400592Y-53282267D01*
X137365506Y-53318720D01*
X137335347Y-53338283D01*
X137297615Y-53347283D01*
X137266335Y-53350230D01*
X137210385Y-53350965D01*
X137170555Y-53341660D01*
X137145708Y-53327846D01*
X137106656Y-53297467D01*
X137079625Y-53264613D01*
X137062517Y-53223294D01*
X137053238Y-53167521D01*
X137049693Y-53091305D01*
X137049410Y-53052622D01*
X137050372Y-53006247D01*
X137138007Y-53006247D01*
X137139023Y-53031126D01*
X137141556Y-53035200D01*
X137158274Y-53029665D01*
X137194249Y-53015017D01*
X137242331Y-52994190D01*
X137252386Y-52989714D01*
X137313152Y-52958814D01*
X137346632Y-52931657D01*
X137353990Y-52906220D01*
X137336391Y-52880481D01*
X137321856Y-52869109D01*
X137269410Y-52846364D01*
X137220322Y-52850122D01*
X137179227Y-52877884D01*
X137150758Y-52927152D01*
X137141631Y-52966257D01*
X137138007Y-53006247D01*
X137050372Y-53006247D01*
X137051285Y-52962249D01*
X137058196Y-52895384D01*
G37*
X137058196Y-52895384D02*
X137071884Y-52846695D01*
X137094096Y-52810849D01*
X137126574Y-52782513D01*
X137140733Y-52773355D01*
X137205053Y-52749507D01*
X137275473Y-52748006D01*
X137343595Y-52766966D01*
X137401021Y-52804497D01*
X137428719Y-52838096D01*
X137450662Y-52899064D01*
X137452405Y-52947308D01*
X137448457Y-53011816D01*
X137299686Y-53076934D01*
X137227349Y-53110202D01*
X137180084Y-53136964D01*
X137155507Y-53160144D01*
X137151237Y-53182667D01*
X137164889Y-53207455D01*
X137179943Y-53223886D01*
X137223746Y-53250235D01*
X137271389Y-53252081D01*
X137315145Y-53231546D01*
X137347289Y-53190752D01*
X137353038Y-53176347D01*
X137380576Y-53131356D01*
X137412258Y-53112182D01*
X137455714Y-53095779D01*
X137455714Y-53157966D01*
X137451872Y-53200283D01*
X137436823Y-53235969D01*
X137405280Y-53276943D01*
X137400592Y-53282267D01*
X137365506Y-53318720D01*
X137335347Y-53338283D01*
X137297615Y-53347283D01*
X137266335Y-53350230D01*
X137210385Y-53350965D01*
X137170555Y-53341660D01*
X137145708Y-53327846D01*
X137106656Y-53297467D01*
X137079625Y-53264613D01*
X137062517Y-53223294D01*
X137053238Y-53167521D01*
X137049693Y-53091305D01*
X137049410Y-53052622D01*
X137050372Y-53006247D01*
X137138007Y-53006247D01*
X137139023Y-53031126D01*
X137141556Y-53035200D01*
X137158274Y-53029665D01*
X137194249Y-53015017D01*
X137242331Y-52994190D01*
X137252386Y-52989714D01*
X137313152Y-52958814D01*
X137346632Y-52931657D01*
X137353990Y-52906220D01*
X137336391Y-52880481D01*
X137321856Y-52869109D01*
X137269410Y-52846364D01*
X137220322Y-52850122D01*
X137179227Y-52877884D01*
X137150758Y-52927152D01*
X137141631Y-52966257D01*
X137138007Y-53006247D01*
X137050372Y-53006247D01*
X137051285Y-52962249D01*
X137058196Y-52895384D01*
X134086090Y-48042348D02*
X134007546Y-48042778D01*
X134007546Y-48042778D02*
X133950702Y-48043942D01*
X133950702Y-48043942D02*
X133911895Y-48046207D01*
X133911895Y-48046207D02*
X133887462Y-48049940D01*
X133887462Y-48049940D02*
X133873738Y-48055506D01*
X133873738Y-48055506D02*
X133867060Y-48063273D01*
X133867060Y-48063273D02*
X133863764Y-48073605D01*
X133863764Y-48073605D02*
X133863444Y-48074943D01*
X133863444Y-48074943D02*
X133858438Y-48099079D01*
X133858438Y-48099079D02*
X133849171Y-48146701D01*
X133849171Y-48146701D02*
X133836608Y-48212741D01*
X133836608Y-48212741D02*
X133821713Y-48292128D01*
X133821713Y-48292128D02*
X133805449Y-48379796D01*
X133805449Y-48379796D02*
X133804881Y-48382875D01*
X133804881Y-48382875D02*
X133788590Y-48468789D01*
X133788590Y-48468789D02*
X133773348Y-48544696D01*
X133773348Y-48544696D02*
X133760139Y-48606045D01*
X133760139Y-48606045D02*
X133749946Y-48648282D01*
X133749946Y-48648282D02*
X133743752Y-48666855D01*
X133743752Y-48666855D02*
X133743457Y-48667184D01*
X133743457Y-48667184D02*
X133725212Y-48676253D01*
X133725212Y-48676253D02*
X133687595Y-48691367D01*
X133687595Y-48691367D02*
X133638729Y-48709262D01*
X133638729Y-48709262D02*
X133638457Y-48709358D01*
X133638457Y-48709358D02*
X133576907Y-48732493D01*
X133576907Y-48732493D02*
X133504343Y-48761965D01*
X133504343Y-48761965D02*
X133435943Y-48791597D01*
X133435943Y-48791597D02*
X133432706Y-48793062D01*
X133432706Y-48793062D02*
X133321298Y-48843626D01*
X133321298Y-48843626D02*
X133074601Y-48675160D01*
X133074601Y-48675160D02*
X132998923Y-48623803D01*
X132998923Y-48623803D02*
X132930369Y-48577889D01*
X132930369Y-48577889D02*
X132872912Y-48540030D01*
X132872912Y-48540030D02*
X132830524Y-48512837D01*
X132830524Y-48512837D02*
X132807175Y-48498921D01*
X132807175Y-48498921D02*
X132804958Y-48497889D01*
X132804958Y-48497889D02*
X132787990Y-48502484D01*
X132787990Y-48502484D02*
X132756299Y-48524655D01*
X132756299Y-48524655D02*
X132708648Y-48565447D01*
X132708648Y-48565447D02*
X132643802Y-48625905D01*
X132643802Y-48625905D02*
X132577603Y-48690227D01*
X132577603Y-48690227D02*
X132513786Y-48753612D01*
X132513786Y-48753612D02*
X132456671Y-48811451D01*
X132456671Y-48811451D02*
X132409695Y-48860175D01*
X132409695Y-48860175D02*
X132376297Y-48896210D01*
X132376297Y-48896210D02*
X132359915Y-48915984D01*
X132359915Y-48915984D02*
X132359306Y-48917002D01*
X132359306Y-48917002D02*
X132357495Y-48930572D01*
X132357495Y-48930572D02*
X132364317Y-48952733D01*
X132364317Y-48952733D02*
X132381460Y-48986478D01*
X132381460Y-48986478D02*
X132410607Y-49034800D01*
X132410607Y-49034800D02*
X132453445Y-49100692D01*
X132453445Y-49100692D02*
X132510552Y-49185517D01*
X132510552Y-49185517D02*
X132561234Y-49260177D01*
X132561234Y-49260177D02*
X132606539Y-49327140D01*
X132606539Y-49327140D02*
X132643850Y-49382516D01*
X132643850Y-49382516D02*
X132670548Y-49422420D01*
X132670548Y-49422420D02*
X132684015Y-49442962D01*
X132684015Y-49442962D02*
X132684863Y-49444356D01*
X132684863Y-49444356D02*
X132683219Y-49464038D01*
X132683219Y-49464038D02*
X132670755Y-49502293D01*
X132670755Y-49502293D02*
X132649952Y-49551889D01*
X132649952Y-49551889D02*
X132642538Y-49567728D01*
X132642538Y-49567728D02*
X132610186Y-49638290D01*
X132610186Y-49638290D02*
X132575672Y-49718353D01*
X132575672Y-49718353D02*
X132547635Y-49787629D01*
X132547635Y-49787629D02*
X132527432Y-49839045D01*
X132527432Y-49839045D02*
X132511385Y-49878119D01*
X132511385Y-49878119D02*
X132502112Y-49898541D01*
X132502112Y-49898541D02*
X132500959Y-49900114D01*
X132500959Y-49900114D02*
X132483904Y-49902721D01*
X132483904Y-49902721D02*
X132443702Y-49909863D01*
X132443702Y-49909863D02*
X132385698Y-49920523D01*
X132385698Y-49920523D02*
X132315237Y-49933685D01*
X132315237Y-49933685D02*
X132237665Y-49948333D01*
X132237665Y-49948333D02*
X132158328Y-49963449D01*
X132158328Y-49963449D02*
X132082569Y-49978018D01*
X132082569Y-49978018D02*
X132015736Y-49991022D01*
X132015736Y-49991022D02*
X131963172Y-50001445D01*
X131963172Y-50001445D02*
X131930224Y-50008270D01*
X131930224Y-50008270D02*
X131922143Y-50010199D01*
X131922143Y-50010199D02*
X131913795Y-50014962D01*
X131913795Y-50014962D02*
X131907494Y-50025718D01*
X131907494Y-50025718D02*
X131902955Y-50046098D01*
X131902955Y-50046098D02*
X131899896Y-50079734D01*
X131899896Y-50079734D02*
X131898033Y-50130255D01*
X131898033Y-50130255D02*
X131897082Y-50201292D01*
X131897082Y-50201292D02*
X131896760Y-50296476D01*
X131896760Y-50296476D02*
X131896743Y-50335492D01*
X131896743Y-50335492D02*
X131896743Y-50652799D01*
X131896743Y-50652799D02*
X131972943Y-50667839D01*
X131972943Y-50667839D02*
X132015337Y-50675995D01*
X132015337Y-50675995D02*
X132078600Y-50687899D01*
X132078600Y-50687899D02*
X132155038Y-50702116D01*
X132155038Y-50702116D02*
X132236957Y-50717210D01*
X132236957Y-50717210D02*
X132259600Y-50721355D01*
X132259600Y-50721355D02*
X132335194Y-50736053D01*
X132335194Y-50736053D02*
X132401047Y-50750505D01*
X132401047Y-50750505D02*
X132451634Y-50763375D01*
X132451634Y-50763375D02*
X132481426Y-50773322D01*
X132481426Y-50773322D02*
X132486388Y-50776287D01*
X132486388Y-50776287D02*
X132498574Y-50797283D01*
X132498574Y-50797283D02*
X132516047Y-50837967D01*
X132516047Y-50837967D02*
X132535423Y-50890322D01*
X132535423Y-50890322D02*
X132539266Y-50901600D01*
X132539266Y-50901600D02*
X132564661Y-50971523D01*
X132564661Y-50971523D02*
X132596183Y-51050418D01*
X132596183Y-51050418D02*
X132627031Y-51121266D01*
X132627031Y-51121266D02*
X132627183Y-51121595D01*
X132627183Y-51121595D02*
X132678553Y-51232733D01*
X132678553Y-51232733D02*
X132509601Y-51481253D01*
X132509601Y-51481253D02*
X132340648Y-51729772D01*
X132340648Y-51729772D02*
X132557571Y-51947058D01*
X132557571Y-51947058D02*
X132623181Y-52011726D01*
X132623181Y-52011726D02*
X132683021Y-52068733D01*
X132683021Y-52068733D02*
X132733733Y-52115033D01*
X132733733Y-52115033D02*
X132771954Y-52147584D01*
X132771954Y-52147584D02*
X132794325Y-52163343D01*
X132794325Y-52163343D02*
X132797534Y-52164343D01*
X132797534Y-52164343D02*
X132816374Y-52156469D01*
X132816374Y-52156469D02*
X132854820Y-52134578D01*
X132854820Y-52134578D02*
X132908670Y-52101267D01*
X132908670Y-52101267D02*
X132973724Y-52059131D01*
X132973724Y-52059131D02*
X133044060Y-52011943D01*
X133044060Y-52011943D02*
X133115445Y-51963810D01*
X133115445Y-51963810D02*
X133179092Y-51921928D01*
X133179092Y-51921928D02*
X133230959Y-51888871D01*
X133230959Y-51888871D02*
X133267005Y-51867218D01*
X133267005Y-51867218D02*
X133283133Y-51859543D01*
X133283133Y-51859543D02*
X133302811Y-51866037D01*
X133302811Y-51866037D02*
X133340125Y-51883150D01*
X133340125Y-51883150D02*
X133387379Y-51907326D01*
X133387379Y-51907326D02*
X133392388Y-51910013D01*
X133392388Y-51910013D02*
X133456023Y-51941927D01*
X133456023Y-51941927D02*
X133499659Y-51957579D01*
X133499659Y-51957579D02*
X133526798Y-51957745D01*
X133526798Y-51957745D02*
X133540943Y-51943204D01*
X133540943Y-51943204D02*
X133541025Y-51943000D01*
X133541025Y-51943000D02*
X133548095Y-51925779D01*
X133548095Y-51925779D02*
X133564958Y-51884899D01*
X133564958Y-51884899D02*
X133590305Y-51823525D01*
X133590305Y-51823525D02*
X133622829Y-51744819D01*
X133622829Y-51744819D02*
X133661222Y-51651947D01*
X133661222Y-51651947D02*
X133704178Y-51548072D01*
X133704178Y-51548072D02*
X133745778Y-51447502D01*
X133745778Y-51447502D02*
X133791496Y-51336516D01*
X133791496Y-51336516D02*
X133833474Y-51233703D01*
X133833474Y-51233703D02*
X133870452Y-51142215D01*
X133870452Y-51142215D02*
X133901173Y-51065201D01*
X133901173Y-51065201D02*
X133924378Y-51005815D01*
X133924378Y-51005815D02*
X133938810Y-50967209D01*
X133938810Y-50967209D02*
X133943257Y-50952800D01*
X133943257Y-50952800D02*
X133932104Y-50936272D01*
X133932104Y-50936272D02*
X133902931Y-50909930D01*
X133902931Y-50909930D02*
X133864029Y-50880887D01*
X133864029Y-50880887D02*
X133753243Y-50789039D01*
X133753243Y-50789039D02*
X133666649Y-50683759D01*
X133666649Y-50683759D02*
X133605284Y-50567266D01*
X133605284Y-50567266D02*
X133570185Y-50441776D01*
X133570185Y-50441776D02*
X133562392Y-50309507D01*
X133562392Y-50309507D02*
X133568057Y-50248457D01*
X133568057Y-50248457D02*
X133598922Y-50121795D01*
X133598922Y-50121795D02*
X133652080Y-50009941D01*
X133652080Y-50009941D02*
X133724233Y-49914001D01*
X133724233Y-49914001D02*
X133812083Y-49835076D01*
X133812083Y-49835076D02*
X133912335Y-49774270D01*
X133912335Y-49774270D02*
X134021690Y-49732687D01*
X134021690Y-49732687D02*
X134136853Y-49711428D01*
X134136853Y-49711428D02*
X134254525Y-49711599D01*
X134254525Y-49711599D02*
X134371410Y-49734301D01*
X134371410Y-49734301D02*
X134484211Y-49780638D01*
X134484211Y-49780638D02*
X134589631Y-49851713D01*
X134589631Y-49851713D02*
X134633632Y-49891911D01*
X134633632Y-49891911D02*
X134718021Y-49995129D01*
X134718021Y-49995129D02*
X134776778Y-50107925D01*
X134776778Y-50107925D02*
X134810296Y-50227010D01*
X134810296Y-50227010D02*
X134818965Y-50349095D01*
X134818965Y-50349095D02*
X134803177Y-50470893D01*
X134803177Y-50470893D02*
X134763322Y-50589116D01*
X134763322Y-50589116D02*
X134699793Y-50700475D01*
X134699793Y-50700475D02*
X134612979Y-50801684D01*
X134612979Y-50801684D02*
X134515971Y-50880887D01*
X134515971Y-50880887D02*
X134475563Y-50911162D01*
X134475563Y-50911162D02*
X134447018Y-50937219D01*
X134447018Y-50937219D02*
X134436743Y-50952825D01*
X134436743Y-50952825D02*
X134442123Y-50969843D01*
X134442123Y-50969843D02*
X134457425Y-51010500D01*
X134457425Y-51010500D02*
X134481388Y-51071642D01*
X134481388Y-51071642D02*
X134512756Y-51150119D01*
X134512756Y-51150119D02*
X134550268Y-51242780D01*
X134550268Y-51242780D02*
X134592667Y-51346472D01*
X134592667Y-51346472D02*
X134634337Y-51447526D01*
X134634337Y-51447526D02*
X134680310Y-51558607D01*
X134680310Y-51558607D02*
X134722893Y-51661541D01*
X134722893Y-51661541D02*
X134760779Y-51753165D01*
X134760779Y-51753165D02*
X134792660Y-51830316D01*
X134792660Y-51830316D02*
X134817229Y-51889831D01*
X134817229Y-51889831D02*
X134833180Y-51928544D01*
X134833180Y-51928544D02*
X134839090Y-51943000D01*
X134839090Y-51943000D02*
X134853052Y-51957685D01*
X134853052Y-51957685D02*
X134880060Y-51957642D01*
X134880060Y-51957642D02*
X134923587Y-51942099D01*
X134923587Y-51942099D02*
X134987110Y-51910284D01*
X134987110Y-51910284D02*
X134987612Y-51910013D01*
X134987612Y-51910013D02*
X135035440Y-51885323D01*
X135035440Y-51885323D02*
X135074103Y-51867338D01*
X135074103Y-51867338D02*
X135095905Y-51859614D01*
X135095905Y-51859614D02*
X135096867Y-51859543D01*
X135096867Y-51859543D02*
X135113279Y-51867378D01*
X135113279Y-51867378D02*
X135149513Y-51889165D01*
X135149513Y-51889165D02*
X135201526Y-51922328D01*
X135201526Y-51922328D02*
X135265275Y-51964291D01*
X135265275Y-51964291D02*
X135335940Y-52011943D01*
X135335940Y-52011943D02*
X135407884Y-52060191D01*
X135407884Y-52060191D02*
X135472726Y-52102151D01*
X135472726Y-52102151D02*
X135526265Y-52135227D01*
X135526265Y-52135227D02*
X135564303Y-52156821D01*
X135564303Y-52156821D02*
X135582467Y-52164343D01*
X135582467Y-52164343D02*
X135599192Y-52154457D01*
X135599192Y-52154457D02*
X135632820Y-52126826D01*
X135632820Y-52126826D02*
X135679990Y-52084495D01*
X135679990Y-52084495D02*
X135737342Y-52030505D01*
X135737342Y-52030505D02*
X135801516Y-51967899D01*
X135801516Y-51967899D02*
X135822503Y-51946983D01*
X135822503Y-51946983D02*
X136039501Y-51729623D01*
X136039501Y-51729623D02*
X135874332Y-51487220D01*
X135874332Y-51487220D02*
X135824136Y-51412781D01*
X135824136Y-51412781D02*
X135780081Y-51345972D01*
X135780081Y-51345972D02*
X135744638Y-51290665D01*
X135744638Y-51290665D02*
X135720281Y-51250729D01*
X135720281Y-51250729D02*
X135709478Y-51230036D01*
X135709478Y-51230036D02*
X135709162Y-51228563D01*
X135709162Y-51228563D02*
X135714857Y-51209058D01*
X135714857Y-51209058D02*
X135730174Y-51169822D01*
X135730174Y-51169822D02*
X135752463Y-51117430D01*
X135752463Y-51117430D02*
X135768107Y-51082355D01*
X135768107Y-51082355D02*
X135797359Y-51015201D01*
X135797359Y-51015201D02*
X135824906Y-50947358D01*
X135824906Y-50947358D02*
X135846263Y-50890034D01*
X135846263Y-50890034D02*
X135852065Y-50872572D01*
X135852065Y-50872572D02*
X135868548Y-50825938D01*
X135868548Y-50825938D02*
X135884660Y-50789905D01*
X135884660Y-50789905D02*
X135893510Y-50776287D01*
X135893510Y-50776287D02*
X135913040Y-50767952D01*
X135913040Y-50767952D02*
X135955666Y-50756137D01*
X135955666Y-50756137D02*
X136015855Y-50742181D01*
X136015855Y-50742181D02*
X136088078Y-50727422D01*
X136088078Y-50727422D02*
X136120400Y-50721355D01*
X136120400Y-50721355D02*
X136202478Y-50706273D01*
X136202478Y-50706273D02*
X136281205Y-50691669D01*
X136281205Y-50691669D02*
X136348891Y-50678980D01*
X136348891Y-50678980D02*
X136397840Y-50669642D01*
X136397840Y-50669642D02*
X136407057Y-50667839D01*
X136407057Y-50667839D02*
X136483257Y-50652799D01*
X136483257Y-50652799D02*
X136483257Y-50335492D01*
X136483257Y-50335492D02*
X136483086Y-50231154D01*
X136483086Y-50231154D02*
X136482384Y-50152213D01*
X136482384Y-50152213D02*
X136480866Y-50095038D01*
X136480866Y-50095038D02*
X136478251Y-50055999D01*
X136478251Y-50055999D02*
X136474254Y-50031465D01*
X136474254Y-50031465D02*
X136468591Y-50017805D01*
X136468591Y-50017805D02*
X136460980Y-50011389D01*
X136460980Y-50011389D02*
X136457857Y-50010199D01*
X136457857Y-50010199D02*
X136439022Y-50005980D01*
X136439022Y-50005980D02*
X136397412Y-49997562D01*
X136397412Y-49997562D02*
X136338370Y-49985961D01*
X136338370Y-49985961D02*
X136267243Y-49972195D01*
X136267243Y-49972195D02*
X136189375Y-49957280D01*
X136189375Y-49957280D02*
X136110113Y-49942232D01*
X136110113Y-49942232D02*
X136034802Y-49928069D01*
X136034802Y-49928069D02*
X135968787Y-49915806D01*
X135968787Y-49915806D02*
X135917413Y-49906461D01*
X135917413Y-49906461D02*
X135886025Y-49901050D01*
X135886025Y-49901050D02*
X135879041Y-49900114D01*
X135879041Y-49900114D02*
X135872715Y-49887596D01*
X135872715Y-49887596D02*
X135858710Y-49854246D01*
X135858710Y-49854246D02*
X135839645Y-49806377D01*
X135839645Y-49806377D02*
X135832366Y-49787629D01*
X135832366Y-49787629D02*
X135803004Y-49715195D01*
X135803004Y-49715195D02*
X135768429Y-49635170D01*
X135768429Y-49635170D02*
X135737463Y-49567728D01*
X135737463Y-49567728D02*
X135714677Y-49516159D01*
X135714677Y-49516159D02*
X135699518Y-49473785D01*
X135699518Y-49473785D02*
X135694458Y-49447834D01*
X135694458Y-49447834D02*
X135695264Y-49444356D01*
X135695264Y-49444356D02*
X135705959Y-49427936D01*
X135705959Y-49427936D02*
X135730380Y-49391417D01*
X135730380Y-49391417D02*
X135765905Y-49338687D01*
X135765905Y-49338687D02*
X135809913Y-49273635D01*
X135809913Y-49273635D02*
X135859783Y-49200151D01*
X135859783Y-49200151D02*
X135869644Y-49185645D01*
X135869644Y-49185645D02*
X135927508Y-49099704D01*
X135927508Y-49099704D02*
X135970044Y-49034261D01*
X135970044Y-49034261D02*
X135998946Y-48986304D01*
X135998946Y-48986304D02*
X136015910Y-48952820D01*
X136015910Y-48952820D02*
X136022633Y-48930795D01*
X136022633Y-48930795D02*
X136020810Y-48917217D01*
X136020810Y-48917217D02*
X136020764Y-48917131D01*
X136020764Y-48917131D02*
X136006414Y-48899297D01*
X136006414Y-48899297D02*
X135974677Y-48864817D01*
X135974677Y-48864817D02*
X135928990Y-48817268D01*
X135928990Y-48817268D02*
X135872796Y-48760222D01*
X135872796Y-48760222D02*
X135809532Y-48697255D01*
X135809532Y-48697255D02*
X135802398Y-48690227D01*
X135802398Y-48690227D02*
X135722670Y-48613020D01*
X135722670Y-48613020D02*
X135661143Y-48556330D01*
X135661143Y-48556330D02*
X135616579Y-48519110D01*
X135616579Y-48519110D02*
X135587743Y-48500315D01*
X135587743Y-48500315D02*
X135575042Y-48497889D01*
X135575042Y-48497889D02*
X135556506Y-48508471D01*
X135556506Y-48508471D02*
X135518039Y-48532916D01*
X135518039Y-48532916D02*
X135463614Y-48568612D01*
X135463614Y-48568612D02*
X135397202Y-48612947D01*
X135397202Y-48612947D02*
X135322775Y-48663311D01*
X135322775Y-48663311D02*
X135305399Y-48675160D01*
X135305399Y-48675160D02*
X135058703Y-48843626D01*
X135058703Y-48843626D02*
X134947294Y-48793062D01*
X134947294Y-48793062D02*
X134879543Y-48763595D01*
X134879543Y-48763595D02*
X134806817Y-48733959D01*
X134806817Y-48733959D02*
X134744297Y-48710330D01*
X134744297Y-48710330D02*
X134741543Y-48709358D01*
X134741543Y-48709358D02*
X134692640Y-48691457D01*
X134692640Y-48691457D02*
X134654943Y-48676320D01*
X134654943Y-48676320D02*
X134636575Y-48667210D01*
X134636575Y-48667210D02*
X134636544Y-48667184D01*
X134636544Y-48667184D02*
X134630715Y-48650717D01*
X134630715Y-48650717D02*
X134620808Y-48610219D01*
X134620808Y-48610219D02*
X134607805Y-48550242D01*
X134607805Y-48550242D02*
X134592691Y-48475340D01*
X134592691Y-48475340D02*
X134576448Y-48390064D01*
X134576448Y-48390064D02*
X134575119Y-48382875D01*
X134575119Y-48382875D02*
X134558825Y-48295014D01*
X134558825Y-48295014D02*
X134543867Y-48215260D01*
X134543867Y-48215260D02*
X134531209Y-48148681D01*
X134531209Y-48148681D02*
X134521814Y-48100347D01*
X134521814Y-48100347D02*
X134516646Y-48075325D01*
X134516646Y-48075325D02*
X134516556Y-48074943D01*
X134516556Y-48074943D02*
X134513411Y-48064299D01*
X134513411Y-48064299D02*
X134507296Y-48056262D01*
X134507296Y-48056262D02*
X134494547Y-48050467D01*
X134494547Y-48050467D02*
X134471500Y-48046547D01*
X134471500Y-48046547D02*
X134434491Y-48044135D01*
X134434491Y-48044135D02*
X134379856Y-48042865D01*
X134379856Y-48042865D02*
X134303933Y-48042371D01*
X134303933Y-48042371D02*
X134203056Y-48042286D01*
X134203056Y-48042286D02*
X134190000Y-48042286D01*
X134190000Y-48042286D02*
X134086090Y-48042348D01*
X134086090Y-48042348D02*
X134086090Y-48042348D01*
G36*
X134303933Y-48042371D02*
G01*
X134379856Y-48042865D01*
X134434491Y-48044135D01*
X134471500Y-48046547D01*
X134494547Y-48050467D01*
X134507296Y-48056262D01*
X134513411Y-48064299D01*
X134516556Y-48074943D01*
X134516646Y-48075325D01*
X134521814Y-48100347D01*
X134531209Y-48148681D01*
X134543867Y-48215260D01*
X134558825Y-48295014D01*
X134575119Y-48382875D01*
X134576448Y-48390064D01*
X134592691Y-48475340D01*
X134607805Y-48550242D01*
X134620808Y-48610219D01*
X134630715Y-48650717D01*
X134636544Y-48667184D01*
X134636575Y-48667210D01*
X134654943Y-48676320D01*
X134692640Y-48691457D01*
X134741543Y-48709358D01*
X134744297Y-48710330D01*
X134806817Y-48733959D01*
X134879543Y-48763595D01*
X134947294Y-48793062D01*
X135058703Y-48843626D01*
X135305399Y-48675160D01*
X135322775Y-48663311D01*
X135397202Y-48612947D01*
X135463614Y-48568612D01*
X135518039Y-48532916D01*
X135556506Y-48508471D01*
X135575042Y-48497889D01*
X135587743Y-48500315D01*
X135616579Y-48519110D01*
X135661143Y-48556330D01*
X135722670Y-48613020D01*
X135802398Y-48690227D01*
X135809532Y-48697255D01*
X135872796Y-48760222D01*
X135928990Y-48817268D01*
X135974677Y-48864817D01*
X136006414Y-48899297D01*
X136020764Y-48917131D01*
X136020810Y-48917217D01*
X136022633Y-48930795D01*
X136015910Y-48952820D01*
X135998946Y-48986304D01*
X135970044Y-49034261D01*
X135927508Y-49099704D01*
X135869644Y-49185645D01*
X135859783Y-49200151D01*
X135809913Y-49273635D01*
X135765905Y-49338687D01*
X135730380Y-49391417D01*
X135705959Y-49427936D01*
X135695264Y-49444356D01*
X135694458Y-49447834D01*
X135699518Y-49473785D01*
X135714677Y-49516159D01*
X135737463Y-49567728D01*
X135768429Y-49635170D01*
X135803004Y-49715195D01*
X135832366Y-49787629D01*
X135839645Y-49806377D01*
X135858710Y-49854246D01*
X135872715Y-49887596D01*
X135879041Y-49900114D01*
X135886025Y-49901050D01*
X135917413Y-49906461D01*
X135968787Y-49915806D01*
X136034802Y-49928069D01*
X136110113Y-49942232D01*
X136189375Y-49957280D01*
X136267243Y-49972195D01*
X136338370Y-49985961D01*
X136397412Y-49997562D01*
X136439022Y-50005980D01*
X136457857Y-50010199D01*
X136460980Y-50011389D01*
X136468591Y-50017805D01*
X136474254Y-50031465D01*
X136478251Y-50055999D01*
X136480866Y-50095038D01*
X136482384Y-50152213D01*
X136483086Y-50231154D01*
X136483257Y-50335492D01*
X136483257Y-50652799D01*
X136407057Y-50667839D01*
X136397840Y-50669642D01*
X136348891Y-50678980D01*
X136281205Y-50691669D01*
X136202478Y-50706273D01*
X136120400Y-50721355D01*
X136088078Y-50727422D01*
X136015855Y-50742181D01*
X135955666Y-50756137D01*
X135913040Y-50767952D01*
X135893510Y-50776287D01*
X135884660Y-50789905D01*
X135868548Y-50825938D01*
X135852065Y-50872572D01*
X135846263Y-50890034D01*
X135824906Y-50947358D01*
X135797359Y-51015201D01*
X135768107Y-51082355D01*
X135752463Y-51117430D01*
X135730174Y-51169822D01*
X135714857Y-51209058D01*
X135709162Y-51228563D01*
X135709478Y-51230036D01*
X135720281Y-51250729D01*
X135744638Y-51290665D01*
X135780081Y-51345972D01*
X135824136Y-51412781D01*
X135874332Y-51487220D01*
X136039501Y-51729623D01*
X135822503Y-51946983D01*
X135801516Y-51967899D01*
X135737342Y-52030505D01*
X135679990Y-52084495D01*
X135632820Y-52126826D01*
X135599192Y-52154457D01*
X135582467Y-52164343D01*
X135564303Y-52156821D01*
X135526265Y-52135227D01*
X135472726Y-52102151D01*
X135407884Y-52060191D01*
X135335940Y-52011943D01*
X135265275Y-51964291D01*
X135201526Y-51922328D01*
X135149513Y-51889165D01*
X135113279Y-51867378D01*
X135096867Y-51859543D01*
X135095905Y-51859614D01*
X135074103Y-51867338D01*
X135035440Y-51885323D01*
X134987612Y-51910013D01*
X134987110Y-51910284D01*
X134923587Y-51942099D01*
X134880060Y-51957642D01*
X134853052Y-51957685D01*
X134839090Y-51943000D01*
X134833180Y-51928544D01*
X134817229Y-51889831D01*
X134792660Y-51830316D01*
X134760779Y-51753165D01*
X134722893Y-51661541D01*
X134680310Y-51558607D01*
X134634337Y-51447526D01*
X134592667Y-51346472D01*
X134550268Y-51242780D01*
X134512756Y-51150119D01*
X134481388Y-51071642D01*
X134457425Y-51010500D01*
X134442123Y-50969843D01*
X134436743Y-50952825D01*
X134447018Y-50937219D01*
X134475563Y-50911162D01*
X134515971Y-50880887D01*
X134612979Y-50801684D01*
X134699793Y-50700475D01*
X134763322Y-50589116D01*
X134803177Y-50470893D01*
X134818965Y-50349095D01*
X134810296Y-50227010D01*
X134776778Y-50107925D01*
X134718021Y-49995129D01*
X134633632Y-49891911D01*
X134589631Y-49851713D01*
X134484211Y-49780638D01*
X134371410Y-49734301D01*
X134254525Y-49711599D01*
X134136853Y-49711428D01*
X134021690Y-49732687D01*
X133912335Y-49774270D01*
X133812083Y-49835076D01*
X133724233Y-49914001D01*
X133652080Y-50009941D01*
X133598922Y-50121795D01*
X133568057Y-50248457D01*
X133562392Y-50309507D01*
X133570185Y-50441776D01*
X133605284Y-50567266D01*
X133666649Y-50683759D01*
X133753243Y-50789039D01*
X133864029Y-50880887D01*
X133902931Y-50909930D01*
X133932104Y-50936272D01*
X133943257Y-50952800D01*
X133938810Y-50967209D01*
X133924378Y-51005815D01*
X133901173Y-51065201D01*
X133870452Y-51142215D01*
X133833474Y-51233703D01*
X133791496Y-51336516D01*
X133745778Y-51447502D01*
X133704178Y-51548072D01*
X133661222Y-51651947D01*
X133622829Y-51744819D01*
X133590305Y-51823525D01*
X133564958Y-51884899D01*
X133548095Y-51925779D01*
X133541025Y-51943000D01*
X133540943Y-51943204D01*
X133526798Y-51957745D01*
X133499659Y-51957579D01*
X133456023Y-51941927D01*
X133392388Y-51910013D01*
X133387379Y-51907326D01*
X133340125Y-51883150D01*
X133302811Y-51866037D01*
X133283133Y-51859543D01*
X133267005Y-51867218D01*
X133230959Y-51888871D01*
X133179092Y-51921928D01*
X133115445Y-51963810D01*
X133044060Y-52011943D01*
X132973724Y-52059131D01*
X132908670Y-52101267D01*
X132854820Y-52134578D01*
X132816374Y-52156469D01*
X132797534Y-52164343D01*
X132794325Y-52163343D01*
X132771954Y-52147584D01*
X132733733Y-52115033D01*
X132683021Y-52068733D01*
X132623181Y-52011726D01*
X132557571Y-51947058D01*
X132340648Y-51729772D01*
X132509601Y-51481253D01*
X132678553Y-51232733D01*
X132627183Y-51121595D01*
X132627031Y-51121266D01*
X132596183Y-51050418D01*
X132564661Y-50971523D01*
X132539266Y-50901600D01*
X132535423Y-50890322D01*
X132516047Y-50837967D01*
X132498574Y-50797283D01*
X132486388Y-50776287D01*
X132481426Y-50773322D01*
X132451634Y-50763375D01*
X132401047Y-50750505D01*
X132335194Y-50736053D01*
X132259600Y-50721355D01*
X132236957Y-50717210D01*
X132155038Y-50702116D01*
X132078600Y-50687899D01*
X132015337Y-50675995D01*
X131972943Y-50667839D01*
X131896743Y-50652799D01*
X131896743Y-50335492D01*
X131896760Y-50296476D01*
X131897082Y-50201292D01*
X131898033Y-50130255D01*
X131899896Y-50079734D01*
X131902955Y-50046098D01*
X131907494Y-50025718D01*
X131913795Y-50014962D01*
X131922143Y-50010199D01*
X131930224Y-50008270D01*
X131963172Y-50001445D01*
X132015736Y-49991022D01*
X132082569Y-49978018D01*
X132158328Y-49963449D01*
X132237665Y-49948333D01*
X132315237Y-49933685D01*
X132385698Y-49920523D01*
X132443702Y-49909863D01*
X132483904Y-49902721D01*
X132500959Y-49900114D01*
X132502112Y-49898541D01*
X132511385Y-49878119D01*
X132527432Y-49839045D01*
X132547635Y-49787629D01*
X132575672Y-49718353D01*
X132610186Y-49638290D01*
X132642538Y-49567728D01*
X132649952Y-49551889D01*
X132670755Y-49502293D01*
X132683219Y-49464038D01*
X132684863Y-49444356D01*
X132684015Y-49442962D01*
X132670548Y-49422420D01*
X132643850Y-49382516D01*
X132606539Y-49327140D01*
X132561234Y-49260177D01*
X132510552Y-49185517D01*
X132453445Y-49100692D01*
X132410607Y-49034800D01*
X132381460Y-48986478D01*
X132364317Y-48952733D01*
X132357495Y-48930572D01*
X132359306Y-48917002D01*
X132359915Y-48915984D01*
X132376297Y-48896210D01*
X132409695Y-48860175D01*
X132456671Y-48811451D01*
X132513786Y-48753612D01*
X132577603Y-48690227D01*
X132643802Y-48625905D01*
X132708648Y-48565447D01*
X132756299Y-48524655D01*
X132787990Y-48502484D01*
X132804958Y-48497889D01*
X132807175Y-48498921D01*
X132830524Y-48512837D01*
X132872912Y-48540030D01*
X132930369Y-48577889D01*
X132998923Y-48623803D01*
X133074601Y-48675160D01*
X133321298Y-48843626D01*
X133432706Y-48793062D01*
X133435943Y-48791597D01*
X133504343Y-48761965D01*
X133576907Y-48732493D01*
X133638457Y-48709358D01*
X133638729Y-48709262D01*
X133687595Y-48691367D01*
X133725212Y-48676253D01*
X133743457Y-48667184D01*
X133743752Y-48666855D01*
X133749946Y-48648282D01*
X133760139Y-48606045D01*
X133773348Y-48544696D01*
X133788590Y-48468789D01*
X133804881Y-48382875D01*
X133805449Y-48379796D01*
X133821713Y-48292128D01*
X133836608Y-48212741D01*
X133849171Y-48146701D01*
X133858438Y-48099079D01*
X133863444Y-48074943D01*
X133863764Y-48073605D01*
X133867060Y-48063273D01*
X133873738Y-48055506D01*
X133887462Y-48049940D01*
X133911895Y-48046207D01*
X133950702Y-48043942D01*
X134007546Y-48042778D01*
X134086090Y-48042348D01*
X134190000Y-48042286D01*
X134203056Y-48042286D01*
X134303933Y-48042371D01*
G37*
X134303933Y-48042371D02*
X134379856Y-48042865D01*
X134434491Y-48044135D01*
X134471500Y-48046547D01*
X134494547Y-48050467D01*
X134507296Y-48056262D01*
X134513411Y-48064299D01*
X134516556Y-48074943D01*
X134516646Y-48075325D01*
X134521814Y-48100347D01*
X134531209Y-48148681D01*
X134543867Y-48215260D01*
X134558825Y-48295014D01*
X134575119Y-48382875D01*
X134576448Y-48390064D01*
X134592691Y-48475340D01*
X134607805Y-48550242D01*
X134620808Y-48610219D01*
X134630715Y-48650717D01*
X134636544Y-48667184D01*
X134636575Y-48667210D01*
X134654943Y-48676320D01*
X134692640Y-48691457D01*
X134741543Y-48709358D01*
X134744297Y-48710330D01*
X134806817Y-48733959D01*
X134879543Y-48763595D01*
X134947294Y-48793062D01*
X135058703Y-48843626D01*
X135305399Y-48675160D01*
X135322775Y-48663311D01*
X135397202Y-48612947D01*
X135463614Y-48568612D01*
X135518039Y-48532916D01*
X135556506Y-48508471D01*
X135575042Y-48497889D01*
X135587743Y-48500315D01*
X135616579Y-48519110D01*
X135661143Y-48556330D01*
X135722670Y-48613020D01*
X135802398Y-48690227D01*
X135809532Y-48697255D01*
X135872796Y-48760222D01*
X135928990Y-48817268D01*
X135974677Y-48864817D01*
X136006414Y-48899297D01*
X136020764Y-48917131D01*
X136020810Y-48917217D01*
X136022633Y-48930795D01*
X136015910Y-48952820D01*
X135998946Y-48986304D01*
X135970044Y-49034261D01*
X135927508Y-49099704D01*
X135869644Y-49185645D01*
X135859783Y-49200151D01*
X135809913Y-49273635D01*
X135765905Y-49338687D01*
X135730380Y-49391417D01*
X135705959Y-49427936D01*
X135695264Y-49444356D01*
X135694458Y-49447834D01*
X135699518Y-49473785D01*
X135714677Y-49516159D01*
X135737463Y-49567728D01*
X135768429Y-49635170D01*
X135803004Y-49715195D01*
X135832366Y-49787629D01*
X135839645Y-49806377D01*
X135858710Y-49854246D01*
X135872715Y-49887596D01*
X135879041Y-49900114D01*
X135886025Y-49901050D01*
X135917413Y-49906461D01*
X135968787Y-49915806D01*
X136034802Y-49928069D01*
X136110113Y-49942232D01*
X136189375Y-49957280D01*
X136267243Y-49972195D01*
X136338370Y-49985961D01*
X136397412Y-49997562D01*
X136439022Y-50005980D01*
X136457857Y-50010199D01*
X136460980Y-50011389D01*
X136468591Y-50017805D01*
X136474254Y-50031465D01*
X136478251Y-50055999D01*
X136480866Y-50095038D01*
X136482384Y-50152213D01*
X136483086Y-50231154D01*
X136483257Y-50335492D01*
X136483257Y-50652799D01*
X136407057Y-50667839D01*
X136397840Y-50669642D01*
X136348891Y-50678980D01*
X136281205Y-50691669D01*
X136202478Y-50706273D01*
X136120400Y-50721355D01*
X136088078Y-50727422D01*
X136015855Y-50742181D01*
X135955666Y-50756137D01*
X135913040Y-50767952D01*
X135893510Y-50776287D01*
X135884660Y-50789905D01*
X135868548Y-50825938D01*
X135852065Y-50872572D01*
X135846263Y-50890034D01*
X135824906Y-50947358D01*
X135797359Y-51015201D01*
X135768107Y-51082355D01*
X135752463Y-51117430D01*
X135730174Y-51169822D01*
X135714857Y-51209058D01*
X135709162Y-51228563D01*
X135709478Y-51230036D01*
X135720281Y-51250729D01*
X135744638Y-51290665D01*
X135780081Y-51345972D01*
X135824136Y-51412781D01*
X135874332Y-51487220D01*
X136039501Y-51729623D01*
X135822503Y-51946983D01*
X135801516Y-51967899D01*
X135737342Y-52030505D01*
X135679990Y-52084495D01*
X135632820Y-52126826D01*
X135599192Y-52154457D01*
X135582467Y-52164343D01*
X135564303Y-52156821D01*
X135526265Y-52135227D01*
X135472726Y-52102151D01*
X135407884Y-52060191D01*
X135335940Y-52011943D01*
X135265275Y-51964291D01*
X135201526Y-51922328D01*
X135149513Y-51889165D01*
X135113279Y-51867378D01*
X135096867Y-51859543D01*
X135095905Y-51859614D01*
X135074103Y-51867338D01*
X135035440Y-51885323D01*
X134987612Y-51910013D01*
X134987110Y-51910284D01*
X134923587Y-51942099D01*
X134880060Y-51957642D01*
X134853052Y-51957685D01*
X134839090Y-51943000D01*
X134833180Y-51928544D01*
X134817229Y-51889831D01*
X134792660Y-51830316D01*
X134760779Y-51753165D01*
X134722893Y-51661541D01*
X134680310Y-51558607D01*
X134634337Y-51447526D01*
X134592667Y-51346472D01*
X134550268Y-51242780D01*
X134512756Y-51150119D01*
X134481388Y-51071642D01*
X134457425Y-51010500D01*
X134442123Y-50969843D01*
X134436743Y-50952825D01*
X134447018Y-50937219D01*
X134475563Y-50911162D01*
X134515971Y-50880887D01*
X134612979Y-50801684D01*
X134699793Y-50700475D01*
X134763322Y-50589116D01*
X134803177Y-50470893D01*
X134818965Y-50349095D01*
X134810296Y-50227010D01*
X134776778Y-50107925D01*
X134718021Y-49995129D01*
X134633632Y-49891911D01*
X134589631Y-49851713D01*
X134484211Y-49780638D01*
X134371410Y-49734301D01*
X134254525Y-49711599D01*
X134136853Y-49711428D01*
X134021690Y-49732687D01*
X133912335Y-49774270D01*
X133812083Y-49835076D01*
X133724233Y-49914001D01*
X133652080Y-50009941D01*
X133598922Y-50121795D01*
X133568057Y-50248457D01*
X133562392Y-50309507D01*
X133570185Y-50441776D01*
X133605284Y-50567266D01*
X133666649Y-50683759D01*
X133753243Y-50789039D01*
X133864029Y-50880887D01*
X133902931Y-50909930D01*
X133932104Y-50936272D01*
X133943257Y-50952800D01*
X133938810Y-50967209D01*
X133924378Y-51005815D01*
X133901173Y-51065201D01*
X133870452Y-51142215D01*
X133833474Y-51233703D01*
X133791496Y-51336516D01*
X133745778Y-51447502D01*
X133704178Y-51548072D01*
X133661222Y-51651947D01*
X133622829Y-51744819D01*
X133590305Y-51823525D01*
X133564958Y-51884899D01*
X133548095Y-51925779D01*
X133541025Y-51943000D01*
X133540943Y-51943204D01*
X133526798Y-51957745D01*
X133499659Y-51957579D01*
X133456023Y-51941927D01*
X133392388Y-51910013D01*
X133387379Y-51907326D01*
X133340125Y-51883150D01*
X133302811Y-51866037D01*
X133283133Y-51859543D01*
X133267005Y-51867218D01*
X133230959Y-51888871D01*
X133179092Y-51921928D01*
X133115445Y-51963810D01*
X133044060Y-52011943D01*
X132973724Y-52059131D01*
X132908670Y-52101267D01*
X132854820Y-52134578D01*
X132816374Y-52156469D01*
X132797534Y-52164343D01*
X132794325Y-52163343D01*
X132771954Y-52147584D01*
X132733733Y-52115033D01*
X132683021Y-52068733D01*
X132623181Y-52011726D01*
X132557571Y-51947058D01*
X132340648Y-51729772D01*
X132509601Y-51481253D01*
X132678553Y-51232733D01*
X132627183Y-51121595D01*
X132627031Y-51121266D01*
X132596183Y-51050418D01*
X132564661Y-50971523D01*
X132539266Y-50901600D01*
X132535423Y-50890322D01*
X132516047Y-50837967D01*
X132498574Y-50797283D01*
X132486388Y-50776287D01*
X132481426Y-50773322D01*
X132451634Y-50763375D01*
X132401047Y-50750505D01*
X132335194Y-50736053D01*
X132259600Y-50721355D01*
X132236957Y-50717210D01*
X132155038Y-50702116D01*
X132078600Y-50687899D01*
X132015337Y-50675995D01*
X131972943Y-50667839D01*
X131896743Y-50652799D01*
X131896743Y-50335492D01*
X131896760Y-50296476D01*
X131897082Y-50201292D01*
X131898033Y-50130255D01*
X131899896Y-50079734D01*
X131902955Y-50046098D01*
X131907494Y-50025718D01*
X131913795Y-50014962D01*
X131922143Y-50010199D01*
X131930224Y-50008270D01*
X131963172Y-50001445D01*
X132015736Y-49991022D01*
X132082569Y-49978018D01*
X132158328Y-49963449D01*
X132237665Y-49948333D01*
X132315237Y-49933685D01*
X132385698Y-49920523D01*
X132443702Y-49909863D01*
X132483904Y-49902721D01*
X132500959Y-49900114D01*
X132502112Y-49898541D01*
X132511385Y-49878119D01*
X132527432Y-49839045D01*
X132547635Y-49787629D01*
X132575672Y-49718353D01*
X132610186Y-49638290D01*
X132642538Y-49567728D01*
X132649952Y-49551889D01*
X132670755Y-49502293D01*
X132683219Y-49464038D01*
X132684863Y-49444356D01*
X132684015Y-49442962D01*
X132670548Y-49422420D01*
X132643850Y-49382516D01*
X132606539Y-49327140D01*
X132561234Y-49260177D01*
X132510552Y-49185517D01*
X132453445Y-49100692D01*
X132410607Y-49034800D01*
X132381460Y-48986478D01*
X132364317Y-48952733D01*
X132357495Y-48930572D01*
X132359306Y-48917002D01*
X132359915Y-48915984D01*
X132376297Y-48896210D01*
X132409695Y-48860175D01*
X132456671Y-48811451D01*
X132513786Y-48753612D01*
X132577603Y-48690227D01*
X132643802Y-48625905D01*
X132708648Y-48565447D01*
X132756299Y-48524655D01*
X132787990Y-48502484D01*
X132804958Y-48497889D01*
X132807175Y-48498921D01*
X132830524Y-48512837D01*
X132872912Y-48540030D01*
X132930369Y-48577889D01*
X132998923Y-48623803D01*
X133074601Y-48675160D01*
X133321298Y-48843626D01*
X133432706Y-48793062D01*
X133435943Y-48791597D01*
X133504343Y-48761965D01*
X133576907Y-48732493D01*
X133638457Y-48709358D01*
X133638729Y-48709262D01*
X133687595Y-48691367D01*
X133725212Y-48676253D01*
X133743457Y-48667184D01*
X133743752Y-48666855D01*
X133749946Y-48648282D01*
X133760139Y-48606045D01*
X133773348Y-48544696D01*
X133788590Y-48468789D01*
X133804881Y-48382875D01*
X133805449Y-48379796D01*
X133821713Y-48292128D01*
X133836608Y-48212741D01*
X133849171Y-48146701D01*
X133858438Y-48099079D01*
X133863444Y-48074943D01*
X133863764Y-48073605D01*
X133867060Y-48063273D01*
X133873738Y-48055506D01*
X133887462Y-48049940D01*
X133911895Y-48046207D01*
X133950702Y-48043942D01*
X134007546Y-48042778D01*
X134086090Y-48042348D01*
X134190000Y-48042286D01*
X134203056Y-48042286D01*
X134303933Y-48042371D01*
D11*
X184275000Y-37727500D03*
X182843109Y-34270609D03*
X186300000Y-35702500D03*
X185706891Y-34270609D03*
X184275000Y-33677500D03*
X182250000Y-35702500D03*
D12*
X184275000Y-35702500D03*
D11*
X185706891Y-37134391D03*
X182843109Y-37134391D03*
D13*
X179910000Y-69850000D03*
X173560000Y-67310000D03*
D14*
X176100000Y-72390000D03*
D15*
X171020000Y-72390000D03*
X181180000Y-72390000D03*
D13*
X160860000Y-107950000D03*
X154510000Y-105410000D03*
D14*
X157050000Y-110490000D03*
D15*
X162130000Y-110490000D03*
X151970000Y-110490000D03*
D13*
X179910000Y-41275000D03*
X173560000Y-38735000D03*
D15*
X171020000Y-43815000D03*
D14*
X176100000Y-43815000D03*
D15*
X181180000Y-43815000D03*
D11*
X182843109Y-155270609D03*
X182843109Y-158134391D03*
D12*
X184275000Y-156702500D03*
D11*
X182250000Y-156702500D03*
X185706891Y-155270609D03*
X186300000Y-156702500D03*
X184275000Y-158727500D03*
X185706891Y-158134391D03*
X184275000Y-154677500D03*
D13*
X179910000Y-107950000D03*
X173560000Y-105410000D03*
D15*
X171020000Y-110490000D03*
D14*
X176100000Y-110490000D03*
D15*
X181180000Y-110490000D03*
D13*
X122760000Y-146050000D03*
X116410000Y-143510000D03*
D15*
X124030000Y-148590000D03*
D14*
X118950000Y-148590000D03*
D15*
X113870000Y-148590000D03*
D11*
X110775000Y-33677500D03*
X108750000Y-35702500D03*
D12*
X110775000Y-35702500D03*
D11*
X112800000Y-35702500D03*
X112206891Y-37134391D03*
X109343109Y-37134391D03*
X112206891Y-34270609D03*
X109343109Y-34270609D03*
X110775000Y-37727500D03*
D13*
X141810000Y-69850000D03*
X135460000Y-67310000D03*
D15*
X143080000Y-72390000D03*
D14*
X138000000Y-72390000D03*
D15*
X132920000Y-72390000D03*
D13*
X141810000Y-88900000D03*
X135460000Y-86360000D03*
D15*
X132920000Y-91440000D03*
X143080000Y-91440000D03*
D14*
X138000000Y-91440000D03*
D13*
X122760000Y-107950000D03*
X116410000Y-105410000D03*
D14*
X118950000Y-110490000D03*
D15*
X113870000Y-110490000D03*
X124030000Y-110490000D03*
D13*
X160860000Y-88900000D03*
X154510000Y-86360000D03*
D15*
X162130000Y-91440000D03*
D14*
X157050000Y-91440000D03*
D15*
X151970000Y-91440000D03*
D13*
X122760000Y-136525000D03*
X116410000Y-133985000D03*
D16*
X125950000Y-150965000D03*
X125950000Y-127165000D03*
D14*
X118950000Y-139065000D03*
D15*
X113870000Y-139065000D03*
D14*
X110710000Y-150965000D03*
D15*
X124030000Y-139065000D03*
D14*
X110710000Y-127165000D03*
D13*
X179910000Y-88900000D03*
X173560000Y-86360000D03*
D15*
X181180000Y-91440000D03*
X171020000Y-91440000D03*
D14*
X176100000Y-91440000D03*
D13*
X122760000Y-69850000D03*
X116410000Y-67310000D03*
D14*
X118950000Y-72390000D03*
D15*
X124030000Y-72390000D03*
X113870000Y-72390000D03*
D13*
X122760000Y-98425000D03*
X116410000Y-95885000D03*
D16*
X125950000Y-89065000D03*
D14*
X110710000Y-112865000D03*
X110710000Y-89065000D03*
D16*
X125950000Y-112865000D03*
D14*
X118950000Y-100965000D03*
D15*
X113870000Y-100965000D03*
X124030000Y-100965000D03*
D13*
X122760000Y-127000000D03*
X116410000Y-124460000D03*
D15*
X113870000Y-129540000D03*
X124030000Y-129540000D03*
D14*
X118950000Y-129540000D03*
D13*
X160860000Y-127000000D03*
X154510000Y-124460000D03*
D15*
X151970000Y-129540000D03*
X162130000Y-129540000D03*
D14*
X157050000Y-129540000D03*
D13*
X179910000Y-127000000D03*
X173560000Y-124460000D03*
D15*
X181180000Y-129540000D03*
X171020000Y-129540000D03*
D14*
X176100000Y-129540000D03*
D11*
X110775000Y-158727500D03*
X112206891Y-155270609D03*
X108750000Y-156702500D03*
X109343109Y-158134391D03*
X112206891Y-158134391D03*
D12*
X110775000Y-156702500D03*
D11*
X109343109Y-155270609D03*
X110775000Y-154677500D03*
X112800000Y-156702500D03*
D13*
X179910000Y-146050000D03*
X173560000Y-143510000D03*
D15*
X181180000Y-148590000D03*
X171020000Y-148590000D03*
D14*
X176100000Y-148590000D03*
D13*
X160860000Y-146050000D03*
X154510000Y-143510000D03*
D14*
X157050000Y-148590000D03*
D15*
X162130000Y-148590000D03*
X151970000Y-148590000D03*
D13*
X160860000Y-41275000D03*
X154510000Y-38735000D03*
D15*
X151970000Y-43815000D03*
X162130000Y-43815000D03*
D14*
X157050000Y-43815000D03*
D13*
X141810000Y-107950000D03*
X135460000Y-105410000D03*
D15*
X132920000Y-110490000D03*
D14*
X138000000Y-110490000D03*
D15*
X143080000Y-110490000D03*
D13*
X170385000Y-146050000D03*
X164035000Y-143510000D03*
D15*
X171655000Y-148590000D03*
D14*
X178475000Y-156830000D03*
D15*
X161495000Y-148590000D03*
D14*
X154675000Y-156830000D03*
X166575000Y-148590000D03*
D16*
X178475000Y-141590000D03*
X154675000Y-141590000D03*
D13*
X141810000Y-146050000D03*
X135460000Y-143510000D03*
D15*
X132920000Y-148590000D03*
D14*
X138000000Y-148590000D03*
D15*
X143080000Y-148590000D03*
D13*
X141810000Y-41275000D03*
X135460000Y-38735000D03*
D15*
X132920000Y-43815000D03*
D14*
X138000000Y-43815000D03*
D15*
X143080000Y-43815000D03*
D13*
X160860000Y-69850000D03*
X154510000Y-67310000D03*
D14*
X157050000Y-72390000D03*
D15*
X151970000Y-72390000D03*
X162130000Y-72390000D03*
D13*
X122760000Y-88900000D03*
X116410000Y-86360000D03*
D15*
X113870000Y-91440000D03*
D14*
X118950000Y-91440000D03*
D15*
X124030000Y-91440000D03*
D13*
X122760000Y-41275000D03*
X116410000Y-38735000D03*
D15*
X113870000Y-43815000D03*
D14*
X118950000Y-43815000D03*
D15*
X124030000Y-43815000D03*
D13*
X141810000Y-127000000D03*
X135460000Y-124460000D03*
D14*
X138000000Y-129540000D03*
D15*
X132920000Y-129540000D03*
X143080000Y-129540000D03*
D17*
X130253000Y-130940000D03*
X130253000Y-128140000D03*
D18*
X161304000Y-63996200D03*
X159654000Y-63996200D03*
D19*
X169496000Y-39815000D03*
X169496000Y-41465000D03*
D20*
X139930500Y-49022000D03*
X138355500Y-49022000D03*
D17*
X149303000Y-131067000D03*
X149303000Y-128267000D03*
D21*
X145874000Y-38227000D03*
X145874000Y-41027000D03*
D22*
X168558800Y-51612800D03*
X169518800Y-51612800D03*
D17*
X149303000Y-111890000D03*
X149303000Y-109090000D03*
D23*
X160324000Y-56896000D03*
X159364000Y-56896000D03*
D17*
X168353000Y-92840000D03*
X168353000Y-90040000D03*
D24*
X148389000Y-54243000D03*
X148389000Y-51943000D03*
D25*
X142089000Y-51943000D03*
D24*
X148389000Y-49643000D03*
D22*
X157586000Y-63754000D03*
X158546000Y-63754000D03*
D26*
X171655000Y-60049000D03*
X171655000Y-63649000D03*
X172925000Y-60049000D03*
X172925000Y-63649000D03*
X174195000Y-60049000D03*
X174195000Y-63649000D03*
X175465000Y-60049000D03*
X175465000Y-63649000D03*
X176735000Y-60049000D03*
X176735000Y-63649000D03*
D18*
X139968000Y-50673000D03*
X138318000Y-50673000D03*
D20*
X149430000Y-38227000D03*
X147855000Y-38227000D03*
D17*
X121620000Y-95885000D03*
X118820000Y-95885000D03*
D22*
X167746000Y-60452000D03*
X168706000Y-60452000D03*
D27*
X178688000Y-59212000D03*
X178688000Y-62962000D03*
X184688000Y-59212000D03*
X184688000Y-62962000D03*
D28*
X163755600Y-49908400D03*
X163755600Y-48948400D03*
D17*
X149303000Y-92840000D03*
X149303000Y-90040000D03*
D29*
X153367000Y-55346600D03*
X154637000Y-55346600D03*
X155907000Y-55346600D03*
X157177000Y-55346600D03*
X157177000Y-48031400D03*
X155907000Y-48031400D03*
X154637000Y-48031400D03*
X153367000Y-48031400D03*
D17*
X121620000Y-133985000D03*
X118820000Y-133985000D03*
D30*
X167387800Y-50126400D03*
X167387800Y-48476400D03*
D17*
X146890000Y-149990000D03*
X146890000Y-147190000D03*
X168353000Y-111890000D03*
X168353000Y-109090000D03*
D27*
X153573000Y-62962000D03*
X153573000Y-59212000D03*
X147573000Y-62962000D03*
X147573000Y-59212000D03*
D31*
X148494000Y-47117000D03*
X145794000Y-47117000D03*
D32*
X169550000Y-37680011D03*
X168700000Y-37680011D03*
X167850000Y-37680011D03*
X167000000Y-37680011D03*
X166150000Y-37680011D03*
X165300000Y-37680011D03*
X164450000Y-37680011D03*
X163600000Y-37680011D03*
X163600000Y-36330011D03*
X164450000Y-36330011D03*
X165300000Y-36330011D03*
X166150000Y-36330011D03*
X167000000Y-36330011D03*
X167850000Y-36330011D03*
X168700000Y-36330011D03*
X169550000Y-36330011D03*
D33*
X170900000Y-36700011D03*
X162250000Y-36700011D03*
D34*
X170900000Y-33320011D03*
X162250000Y-33320011D03*
D28*
X162384000Y-61440000D03*
X162384000Y-60480000D03*
D18*
X152668000Y-57404000D03*
X151018000Y-57404000D03*
D17*
X121620000Y-153670000D03*
X118820000Y-153670000D03*
X130253000Y-92840000D03*
X130253000Y-90040000D03*
X130253000Y-111890000D03*
X130253000Y-109090000D03*
D35*
X167782000Y-61722000D03*
X169432000Y-61722000D03*
D36*
X164949400Y-61115000D03*
X164949400Y-62075000D03*
D23*
X160324000Y-53238400D03*
X159364000Y-53238400D03*
D17*
X130253000Y-149990000D03*
X130253000Y-147190000D03*
D30*
X165914600Y-50126400D03*
X165914600Y-48476400D03*
D37*
X161522800Y-53238400D03*
X161522800Y-53644800D03*
X161522800Y-54051200D03*
X161522800Y-54457600D03*
X161522800Y-54864000D03*
X161522800Y-55270400D03*
X161522800Y-55676800D03*
X161522800Y-56083200D03*
X161522800Y-56489600D03*
X161522800Y-56896000D03*
X161522800Y-57302400D03*
X161522800Y-57708800D03*
X161522800Y-58115200D03*
X161522800Y-58521600D03*
D38*
X162282400Y-59281200D03*
X162688800Y-59281200D03*
X163095200Y-59281200D03*
X163501600Y-59281200D03*
X163908000Y-59281200D03*
X164314400Y-59281200D03*
X164720800Y-59281200D03*
X165127200Y-59281200D03*
X165533600Y-59281200D03*
X165940000Y-59281200D03*
X166346400Y-59281200D03*
X166752800Y-59281200D03*
X167159200Y-59281200D03*
X167565600Y-59281200D03*
D37*
X168325200Y-58521600D03*
X168325200Y-58115200D03*
X168325200Y-57708800D03*
X168325200Y-57302400D03*
X168325200Y-56896000D03*
X168325200Y-56489600D03*
X168325200Y-56083200D03*
X168325200Y-55676800D03*
X168325200Y-55270400D03*
X168325200Y-54864000D03*
X168325200Y-54457600D03*
X168325200Y-54051200D03*
X168325200Y-53644800D03*
X168325200Y-53238400D03*
D38*
X167565600Y-52478800D03*
X167159200Y-52478800D03*
X166752800Y-52478800D03*
X166346400Y-52478800D03*
X165940000Y-52478800D03*
X165533600Y-52478800D03*
X165127200Y-52478800D03*
X164720800Y-52478800D03*
X164314400Y-52478800D03*
X163908000Y-52478800D03*
X163501600Y-52478800D03*
X163095200Y-52478800D03*
X162688800Y-52478800D03*
X162282400Y-52478800D03*
D39*
X164924000Y-55880000D03*
D17*
X168353000Y-73790000D03*
X168353000Y-70990000D03*
X179786000Y-38354000D03*
X176986000Y-38354000D03*
X111203000Y-73790000D03*
X111203000Y-70990000D03*
X149303000Y-149990000D03*
X149303000Y-147190000D03*
D22*
X168558800Y-50673000D03*
X169518800Y-50673000D03*
D28*
X164695400Y-49908400D03*
X164695400Y-48948400D03*
D17*
X111203000Y-45215000D03*
X111203000Y-42415000D03*
D22*
X169524000Y-53238400D03*
X170484000Y-53238400D03*
D18*
X155716000Y-57404000D03*
X154066000Y-57404000D03*
D17*
X130253000Y-45215000D03*
X130253000Y-42415000D03*
D22*
X153042000Y-46202600D03*
X154002000Y-46202600D03*
D17*
X168353000Y-130940000D03*
X168353000Y-128140000D03*
X121620000Y-115570000D03*
X118820000Y-115570000D03*
X130253000Y-73790000D03*
X130253000Y-70990000D03*
X159466000Y-38862000D03*
X156666000Y-38862000D03*
D22*
X169524000Y-56896000D03*
X170484000Y-56896000D03*
D36*
X165889200Y-61115000D03*
X165889200Y-62075000D03*
D40*
X142064000Y-56642000D03*
X144764000Y-56642000D03*
D41*
X160866511Y-60657000D03*
X158666511Y-60657000D03*
X158666511Y-62357000D03*
X160866511Y-62357000D03*
D17*
X149303000Y-73790000D03*
X149303000Y-70990000D03*
D35*
X173243000Y-36322000D03*
X174893000Y-36322000D03*
G36*
X159986179Y-31751328D02*
G01*
X160161118Y-31766633D01*
X160221028Y-31777197D01*
X160375869Y-31818686D01*
X160433037Y-31839493D01*
X160578326Y-31907243D01*
X160631010Y-31937661D01*
X160762333Y-32029615D01*
X160808934Y-32068718D01*
X160922282Y-32182066D01*
X160961385Y-32228667D01*
X161053339Y-32359990D01*
X161083757Y-32412674D01*
X161151507Y-32557963D01*
X161172314Y-32615131D01*
X161213803Y-32769972D01*
X161224367Y-32829882D01*
X161238339Y-32989583D01*
X161238339Y-33050417D01*
X161224367Y-33210118D01*
X161213803Y-33270028D01*
X161172314Y-33424869D01*
X161151507Y-33482037D01*
X161083757Y-33627326D01*
X161053339Y-33680010D01*
X160961385Y-33811333D01*
X160922282Y-33857934D01*
X160808934Y-33971282D01*
X160762333Y-34010385D01*
X160631010Y-34102339D01*
X160578326Y-34132757D01*
X160433037Y-34200507D01*
X160375869Y-34221314D01*
X160221028Y-34262803D01*
X160161118Y-34273367D01*
X159986179Y-34288672D01*
X159955762Y-34290000D01*
X111970285Y-34290000D01*
X111959720Y-34290319D01*
X111669360Y-34307882D01*
X111648468Y-34310419D01*
X111367511Y-34361907D01*
X111347075Y-34366944D01*
X111074369Y-34451923D01*
X111054686Y-34459388D01*
X110794220Y-34576614D01*
X110775581Y-34586396D01*
X110531141Y-34734165D01*
X110513813Y-34746126D01*
X110288967Y-34922281D01*
X110273211Y-34936240D01*
X110071240Y-35138211D01*
X110057281Y-35153967D01*
X109881126Y-35378813D01*
X109869165Y-35396141D01*
X109721396Y-35640581D01*
X109711614Y-35659220D01*
X109594388Y-35919686D01*
X109586923Y-35939369D01*
X109501944Y-36212075D01*
X109496907Y-36232511D01*
X109445419Y-36513468D01*
X109442882Y-36534360D01*
X109425319Y-36824720D01*
X109425000Y-36835285D01*
X109425000Y-155569715D01*
X109425319Y-155580280D01*
X109442882Y-155870640D01*
X109445419Y-155891532D01*
X109496907Y-156172489D01*
X109501944Y-156192925D01*
X109586923Y-156465631D01*
X109594388Y-156485314D01*
X109711614Y-156745780D01*
X109721396Y-156764419D01*
X109869165Y-157008859D01*
X109881126Y-157026187D01*
X110057281Y-157251033D01*
X110071240Y-157266789D01*
X110273211Y-157468760D01*
X110288967Y-157482719D01*
X110513813Y-157658874D01*
X110531141Y-157670835D01*
X110775581Y-157818604D01*
X110794220Y-157828386D01*
X111054686Y-157945612D01*
X111074369Y-157953077D01*
X111347075Y-158038056D01*
X111367511Y-158043093D01*
X111648468Y-158094581D01*
X111669360Y-158097118D01*
X111959720Y-158114681D01*
X111970285Y-158115000D01*
X183079715Y-158115000D01*
X183090280Y-158114681D01*
X183380640Y-158097118D01*
X183401532Y-158094581D01*
X183682489Y-158043093D01*
X183702925Y-158038056D01*
X183975631Y-157953077D01*
X183995314Y-157945612D01*
X184255780Y-157828386D01*
X184274419Y-157818604D01*
X184518859Y-157670835D01*
X184536187Y-157658874D01*
X184761033Y-157482719D01*
X184776789Y-157468760D01*
X184978760Y-157266789D01*
X184992719Y-157251033D01*
X185168874Y-157026187D01*
X185180835Y-157008859D01*
X185328604Y-156764419D01*
X185338386Y-156745780D01*
X185455612Y-156485314D01*
X185463077Y-156465631D01*
X185548056Y-156192925D01*
X185553093Y-156172489D01*
X185604581Y-155891532D01*
X185607118Y-155870640D01*
X185624681Y-155580280D01*
X185625000Y-155569715D01*
X185625000Y-36835285D01*
X185624681Y-36824720D01*
X185607118Y-36534360D01*
X185604581Y-36513468D01*
X185553093Y-36232511D01*
X185548056Y-36212075D01*
X185463077Y-35939369D01*
X185455612Y-35919686D01*
X185338386Y-35659220D01*
X185328604Y-35640581D01*
X185180835Y-35396141D01*
X185168874Y-35378813D01*
X184992719Y-35153967D01*
X184978760Y-35138211D01*
X184776789Y-34936240D01*
X184761033Y-34922281D01*
X184536187Y-34746126D01*
X184518859Y-34734165D01*
X184274419Y-34586396D01*
X184255780Y-34576614D01*
X183995314Y-34459388D01*
X183975631Y-34451923D01*
X183702925Y-34366944D01*
X183682489Y-34361907D01*
X183401532Y-34310419D01*
X183380640Y-34307882D01*
X183090280Y-34290319D01*
X183079715Y-34290000D01*
X173194238Y-34290000D01*
X173163821Y-34288672D01*
X172988882Y-34273367D01*
X172928972Y-34262803D01*
X172774131Y-34221314D01*
X172716963Y-34200507D01*
X172571674Y-34132757D01*
X172518990Y-34102339D01*
X172387667Y-34010385D01*
X172341066Y-33971282D01*
X172227718Y-33857934D01*
X172188615Y-33811333D01*
X172096661Y-33680010D01*
X172066243Y-33627326D01*
X171998493Y-33482037D01*
X171977686Y-33424869D01*
X171936197Y-33270028D01*
X171925633Y-33210118D01*
X171911661Y-33050417D01*
X171911661Y-32989583D01*
X171925633Y-32829882D01*
X171936197Y-32769972D01*
X171977686Y-32615131D01*
X171998493Y-32557963D01*
X172066243Y-32412674D01*
X172096661Y-32359990D01*
X172188615Y-32228667D01*
X172227718Y-32182066D01*
X172341066Y-32068718D01*
X172387667Y-32029615D01*
X172518990Y-31937661D01*
X172571674Y-31907243D01*
X172716963Y-31839493D01*
X172774131Y-31818686D01*
X172928972Y-31777197D01*
X172988882Y-31766633D01*
X173163821Y-31751328D01*
X173194238Y-31750000D01*
X183027700Y-31750000D01*
X183031502Y-31750021D01*
X183081159Y-31750562D01*
X183088781Y-31750728D01*
X183138460Y-31752355D01*
X183142260Y-31752500D01*
X183413150Y-31764328D01*
X183420750Y-31764743D01*
X183519945Y-31771244D01*
X183535114Y-31772571D01*
X183633923Y-31783392D01*
X183641485Y-31784304D01*
X183853415Y-31812206D01*
X183860950Y-31813282D01*
X183959176Y-31828400D01*
X183974174Y-31831044D01*
X184071697Y-31850443D01*
X184079146Y-31852010D01*
X184287794Y-31898266D01*
X184295208Y-31899994D01*
X184391769Y-31923622D01*
X184406481Y-31927564D01*
X184501945Y-31955390D01*
X184509228Y-31957600D01*
X184713054Y-32021866D01*
X184720291Y-32024235D01*
X184814415Y-32056186D01*
X184828722Y-32061393D01*
X184921387Y-32097428D01*
X184928455Y-32100265D01*
X185125902Y-32182051D01*
X185132901Y-32185040D01*
X185223914Y-32225086D01*
X185237714Y-32231522D01*
X185326851Y-32275479D01*
X185333644Y-32278921D01*
X185523243Y-32377620D01*
X185529959Y-32381210D01*
X185617128Y-32429033D01*
X185630313Y-32436645D01*
X185715262Y-32488193D01*
X185721729Y-32492215D01*
X185902044Y-32607089D01*
X185908419Y-32611248D01*
X185991046Y-32666457D01*
X186003521Y-32675192D01*
X186083670Y-32733960D01*
X186089759Y-32738528D01*
X186259352Y-32868661D01*
X186265343Y-32873363D01*
X186342866Y-32935582D01*
X186354529Y-32945368D01*
X186429260Y-33010905D01*
X186434930Y-33015988D01*
X186592540Y-33160411D01*
X186598097Y-33165616D01*
X186669890Y-33234343D01*
X186680657Y-33245110D01*
X186749384Y-33316903D01*
X186754589Y-33322460D01*
X186899012Y-33480070D01*
X186904095Y-33485740D01*
X186969632Y-33560471D01*
X186979418Y-33572134D01*
X187041637Y-33649657D01*
X187046339Y-33655648D01*
X187176472Y-33825241D01*
X187181040Y-33831330D01*
X187239808Y-33911479D01*
X187248543Y-33923954D01*
X187303752Y-34006581D01*
X187307911Y-34012956D01*
X187422785Y-34193271D01*
X187426807Y-34199738D01*
X187478355Y-34284687D01*
X187485967Y-34297872D01*
X187533790Y-34385041D01*
X187537380Y-34391757D01*
X187636079Y-34581356D01*
X187639521Y-34588149D01*
X187683478Y-34677286D01*
X187689914Y-34691086D01*
X187729960Y-34782099D01*
X187732949Y-34789098D01*
X187814735Y-34986545D01*
X187817572Y-34993613D01*
X187853607Y-35086278D01*
X187858814Y-35100585D01*
X187890765Y-35194709D01*
X187893134Y-35201946D01*
X187957400Y-35405772D01*
X187959610Y-35413055D01*
X187987436Y-35508519D01*
X187991378Y-35523231D01*
X188015006Y-35619792D01*
X188016734Y-35627206D01*
X188062990Y-35835854D01*
X188064557Y-35843303D01*
X188083956Y-35940826D01*
X188086600Y-35955824D01*
X188101718Y-36054050D01*
X188102794Y-36061585D01*
X188130696Y-36273515D01*
X188131608Y-36281077D01*
X188142429Y-36379886D01*
X188143756Y-36395055D01*
X188150257Y-36494250D01*
X188150672Y-36501850D01*
X188162500Y-36772740D01*
X188162645Y-36776540D01*
X188164272Y-36826219D01*
X188164438Y-36833841D01*
X188164979Y-36883498D01*
X188165000Y-36887300D01*
X188165000Y-155517700D01*
X188164979Y-155521502D01*
X188164438Y-155571159D01*
X188164272Y-155578781D01*
X188162645Y-155628460D01*
X188162500Y-155632260D01*
X188150672Y-155903150D01*
X188150257Y-155910750D01*
X188143756Y-156009945D01*
X188142429Y-156025114D01*
X188131608Y-156123923D01*
X188130696Y-156131485D01*
X188102794Y-156343415D01*
X188101718Y-156350950D01*
X188086600Y-156449176D01*
X188083956Y-156464174D01*
X188064557Y-156561697D01*
X188062990Y-156569146D01*
X188016734Y-156777794D01*
X188015006Y-156785208D01*
X187991378Y-156881769D01*
X187987436Y-156896481D01*
X187959610Y-156991945D01*
X187957400Y-156999228D01*
X187893134Y-157203054D01*
X187890765Y-157210291D01*
X187858814Y-157304415D01*
X187853607Y-157318722D01*
X187817572Y-157411387D01*
X187814735Y-157418455D01*
X187732949Y-157615902D01*
X187729960Y-157622901D01*
X187689914Y-157713914D01*
X187683478Y-157727714D01*
X187639521Y-157816851D01*
X187636079Y-157823644D01*
X187537380Y-158013243D01*
X187533790Y-158019959D01*
X187485967Y-158107128D01*
X187478355Y-158120313D01*
X187426807Y-158205262D01*
X187422785Y-158211729D01*
X187307911Y-158392044D01*
X187303752Y-158398419D01*
X187248543Y-158481046D01*
X187239808Y-158493521D01*
X187181040Y-158573670D01*
X187176472Y-158579759D01*
X187046339Y-158749352D01*
X187041637Y-158755343D01*
X186979418Y-158832866D01*
X186969632Y-158844529D01*
X186904095Y-158919260D01*
X186899012Y-158924930D01*
X186754589Y-159082540D01*
X186749384Y-159088097D01*
X186680657Y-159159890D01*
X186669890Y-159170657D01*
X186598097Y-159239384D01*
X186592540Y-159244589D01*
X186434930Y-159389012D01*
X186429260Y-159394095D01*
X186354529Y-159459632D01*
X186342866Y-159469418D01*
X186265343Y-159531637D01*
X186259352Y-159536339D01*
X186089759Y-159666472D01*
X186083670Y-159671040D01*
X186003521Y-159729808D01*
X185991046Y-159738543D01*
X185908419Y-159793752D01*
X185902044Y-159797911D01*
X185721729Y-159912785D01*
X185715262Y-159916807D01*
X185630313Y-159968355D01*
X185617128Y-159975967D01*
X185529959Y-160023790D01*
X185523243Y-160027380D01*
X185333644Y-160126079D01*
X185326851Y-160129521D01*
X185237714Y-160173478D01*
X185223914Y-160179914D01*
X185132901Y-160219960D01*
X185125902Y-160222949D01*
X184928455Y-160304735D01*
X184921387Y-160307572D01*
X184828722Y-160343607D01*
X184814415Y-160348814D01*
X184720291Y-160380765D01*
X184713054Y-160383134D01*
X184509228Y-160447400D01*
X184501945Y-160449610D01*
X184406481Y-160477436D01*
X184391769Y-160481378D01*
X184295208Y-160505006D01*
X184287794Y-160506734D01*
X184079146Y-160552990D01*
X184071697Y-160554557D01*
X183974174Y-160573956D01*
X183959176Y-160576600D01*
X183860950Y-160591718D01*
X183853415Y-160592794D01*
X183641485Y-160620696D01*
X183633923Y-160621608D01*
X183535114Y-160632429D01*
X183519945Y-160633756D01*
X183420750Y-160640257D01*
X183413150Y-160640672D01*
X183142260Y-160652500D01*
X183138460Y-160652645D01*
X183088781Y-160654272D01*
X183081159Y-160654438D01*
X183031502Y-160654979D01*
X183027700Y-160655000D01*
X112022300Y-160655000D01*
X112018498Y-160654979D01*
X111968841Y-160654438D01*
X111961219Y-160654272D01*
X111911540Y-160652645D01*
X111907740Y-160652500D01*
X111636850Y-160640672D01*
X111629250Y-160640257D01*
X111530055Y-160633756D01*
X111514886Y-160632429D01*
X111416077Y-160621608D01*
X111408515Y-160620696D01*
X111196585Y-160592794D01*
X111189050Y-160591718D01*
X111090824Y-160576600D01*
X111075826Y-160573956D01*
X110978303Y-160554557D01*
X110970854Y-160552990D01*
X110762206Y-160506734D01*
X110754792Y-160505006D01*
X110658231Y-160481378D01*
X110643519Y-160477436D01*
X110548055Y-160449610D01*
X110540772Y-160447400D01*
X110336946Y-160383134D01*
X110329709Y-160380765D01*
X110235585Y-160348814D01*
X110221278Y-160343607D01*
X110128613Y-160307572D01*
X110121545Y-160304735D01*
X109924098Y-160222949D01*
X109917099Y-160219960D01*
X109826086Y-160179914D01*
X109812286Y-160173478D01*
X109723149Y-160129521D01*
X109716356Y-160126079D01*
X109526757Y-160027380D01*
X109520041Y-160023790D01*
X109432872Y-159975967D01*
X109419687Y-159968355D01*
X109334738Y-159916807D01*
X109328271Y-159912785D01*
X109147956Y-159797911D01*
X109141581Y-159793752D01*
X109058954Y-159738543D01*
X109046479Y-159729808D01*
X108966330Y-159671040D01*
X108960241Y-159666472D01*
X108790648Y-159536339D01*
X108784657Y-159531637D01*
X108707134Y-159469418D01*
X108695471Y-159459632D01*
X108620740Y-159394095D01*
X108615070Y-159389012D01*
X108457460Y-159244589D01*
X108451903Y-159239384D01*
X108380110Y-159170657D01*
X108369343Y-159159890D01*
X108300616Y-159088097D01*
X108295411Y-159082540D01*
X108150988Y-158924930D01*
X108145905Y-158919260D01*
X108080368Y-158844529D01*
X108070582Y-158832866D01*
X108008363Y-158755343D01*
X108003661Y-158749352D01*
X107873528Y-158579759D01*
X107868960Y-158573670D01*
X107810192Y-158493521D01*
X107801457Y-158481046D01*
X107746248Y-158398419D01*
X107742089Y-158392044D01*
X107627215Y-158211729D01*
X107623193Y-158205262D01*
X107571645Y-158120313D01*
X107564033Y-158107128D01*
X107516210Y-158019959D01*
X107512620Y-158013243D01*
X107413921Y-157823644D01*
X107410479Y-157816851D01*
X107366522Y-157727714D01*
X107360086Y-157713914D01*
X107320040Y-157622901D01*
X107317051Y-157615902D01*
X107235265Y-157418455D01*
X107232428Y-157411387D01*
X107196393Y-157318722D01*
X107191186Y-157304415D01*
X107159235Y-157210291D01*
X107156866Y-157203054D01*
X107092600Y-156999228D01*
X107090390Y-156991945D01*
X107062564Y-156896481D01*
X107058622Y-156881769D01*
X107034994Y-156785208D01*
X107033266Y-156777794D01*
X106987010Y-156569146D01*
X106985443Y-156561697D01*
X106966044Y-156464174D01*
X106963400Y-156449176D01*
X106948282Y-156350950D01*
X106947206Y-156343415D01*
X106919304Y-156131485D01*
X106918392Y-156123923D01*
X106907571Y-156025114D01*
X106906244Y-156009945D01*
X106899743Y-155910750D01*
X106899328Y-155903150D01*
X106887500Y-155632260D01*
X106887355Y-155628460D01*
X106885728Y-155578781D01*
X106885562Y-155571159D01*
X106885021Y-155521502D01*
X106885000Y-155517700D01*
X106885000Y-36887300D01*
X106885021Y-36883498D01*
X106885562Y-36833841D01*
X106885728Y-36826219D01*
X106887355Y-36776540D01*
X106887500Y-36772740D01*
X106899328Y-36501850D01*
X106899743Y-36494250D01*
X106906244Y-36395055D01*
X106907571Y-36379886D01*
X106918392Y-36281077D01*
X106919304Y-36273515D01*
X106947206Y-36061585D01*
X106948282Y-36054050D01*
X106963400Y-35955824D01*
X106966044Y-35940826D01*
X106985443Y-35843303D01*
X106987010Y-35835854D01*
X107033266Y-35627206D01*
X107034994Y-35619792D01*
X107058622Y-35523231D01*
X107062564Y-35508519D01*
X107090390Y-35413055D01*
X107092600Y-35405772D01*
X107156866Y-35201946D01*
X107159235Y-35194709D01*
X107191186Y-35100585D01*
X107196393Y-35086278D01*
X107232428Y-34993613D01*
X107235265Y-34986545D01*
X107317051Y-34789098D01*
X107320040Y-34782099D01*
X107360086Y-34691086D01*
X107366522Y-34677286D01*
X107410479Y-34588149D01*
X107413921Y-34581356D01*
X107512620Y-34391757D01*
X107516210Y-34385041D01*
X107564033Y-34297872D01*
X107571645Y-34284687D01*
X107623193Y-34199738D01*
X107627215Y-34193271D01*
X107742089Y-34012956D01*
X107746248Y-34006581D01*
X107801457Y-33923954D01*
X107810192Y-33911479D01*
X107868960Y-33831330D01*
X107873528Y-33825241D01*
X108003661Y-33655648D01*
X108008363Y-33649657D01*
X108070582Y-33572134D01*
X108080368Y-33560471D01*
X108145905Y-33485740D01*
X108150988Y-33480070D01*
X108295411Y-33322460D01*
X108300616Y-33316903D01*
X108369343Y-33245110D01*
X108380110Y-33234343D01*
X108451903Y-33165616D01*
X108457460Y-33160411D01*
X108615070Y-33015988D01*
X108620740Y-33010905D01*
X108695471Y-32945368D01*
X108707134Y-32935582D01*
X108784657Y-32873363D01*
X108790648Y-32868661D01*
X108960241Y-32738528D01*
X108966330Y-32733960D01*
X109046479Y-32675192D01*
X109058954Y-32666457D01*
X109141581Y-32611248D01*
X109147956Y-32607089D01*
X109328271Y-32492215D01*
X109334738Y-32488193D01*
X109419687Y-32436645D01*
X109432872Y-32429033D01*
X109520041Y-32381210D01*
X109526757Y-32377620D01*
X109716356Y-32278921D01*
X109723149Y-32275479D01*
X109812286Y-32231522D01*
X109826086Y-32225086D01*
X109917099Y-32185040D01*
X109924098Y-32182051D01*
X110121545Y-32100265D01*
X110128613Y-32097428D01*
X110221278Y-32061393D01*
X110235585Y-32056186D01*
X110329709Y-32024235D01*
X110336946Y-32021866D01*
X110540772Y-31957600D01*
X110548055Y-31955390D01*
X110643519Y-31927564D01*
X110658231Y-31923622D01*
X110754792Y-31899994D01*
X110762206Y-31898266D01*
X110970854Y-31852010D01*
X110978303Y-31850443D01*
X111075826Y-31831044D01*
X111090824Y-31828400D01*
X111189050Y-31813282D01*
X111196585Y-31812206D01*
X111408515Y-31784304D01*
X111416077Y-31783392D01*
X111514886Y-31772571D01*
X111530055Y-31771244D01*
X111629250Y-31764743D01*
X111636850Y-31764328D01*
X111907740Y-31752500D01*
X111911540Y-31752355D01*
X111961219Y-31750728D01*
X111968841Y-31750562D01*
X112018498Y-31750021D01*
X112022300Y-31750000D01*
X159955762Y-31750000D01*
X159986179Y-31751328D01*
G37*
M02*
