M48
; DRILL file {KiCad (6.0.0)} date Wed Jan  4 21:38:29 2023
; FORMAT={-:-/ absolute / metric / decimal}
; #@! TF.CreationDate,2023-01-04T21:38:29+01:00
; #@! TF.GenerationSoftware,Kicad,Pcbnew,(6.0.0)
; #@! TF.FileFunction,Plated,1,2,PTH
FMAT,2
METRIC
; #@! TA.AperFunction,Plated,PTH,ViaDrill
T1C0.300
; #@! TA.AperFunction,Plated,PTH,ViaDrill
T2C0.400
; #@! TA.AperFunction,Plated,PTH,ComponentDrill
T3C0.400
; #@! TA.AperFunction,Plated,PTH,ViaDrill
T4C0.500
; #@! TA.AperFunction,Plated,PTH,ComponentDrill
T5C0.500
; #@! TA.AperFunction,Plated,PTH,ComponentDrill
T6C0.600
; #@! TA.AperFunction,Plated,PTH,ComponentDrill
T7C1.500
; #@! TA.AperFunction,Plated,PTH,ComponentDrill
T8C2.700
%
G90
G05
T1
X154.002Y-46.838
X157.177Y-53.848
X157.304Y-61.214
X157.304Y-62.23
X157.304Y-63.246
X158.242Y-64.594
X159.209Y-65.024
X159.361Y-53.873
X159.361Y-56.261
X159.463Y-61.214
X160.034Y-61.785
X160.479Y-58.522
X160.479Y-65.024
X160.581Y-54.635
X160.581Y-55.499
X161.749Y-65.024
X162.384Y-64.262
X162.391Y-63.507
X162.899Y-62.999
X163.019Y-61.087
X163.407Y-62.491
X163.654Y-54.61
X163.654Y-57.15
X163.756Y-48.362
X164.695Y-48.362
X164.924Y-55.88
X164.949Y-62.662
X165.889Y-62.687
X166.194Y-54.61
X166.194Y-57.15
X166.995Y-38.5
X167.097Y-39.51
X169.115Y-59.563
X169.14Y-54.051
X169.14Y-55.677
X169.267Y-54.864
X169.369Y-60.452
X170.106Y-50.673
X170.106Y-51.613
X170.218Y-59.269
X170.5Y-56.376
X170.512Y-58.42
X170.893Y-57.658
X171.071Y-53.238
X173.941Y-53.594
T2
X154.383Y-45.212
X160.86Y-46.609
X166.956Y-65.024
X169.115Y-62.865
T3
X163.6Y-36.33
X163.6Y-37.68
X164.45Y-36.33
X164.45Y-37.68
X165.3Y-36.33
X165.3Y-37.68
X166.15Y-36.33
X166.15Y-37.68
X167.0Y-36.33
X167.0Y-37.68
X167.85Y-36.33
X167.85Y-37.68
X168.7Y-36.33
X168.7Y-37.68
X169.55Y-36.33
X169.55Y-37.68
T4
X108.155Y-39.37
X108.155Y-41.91
X108.155Y-44.45
X108.155Y-46.99
X108.155Y-49.53
X108.155Y-52.07
X108.155Y-54.61
X108.155Y-57.15
X108.155Y-59.69
X108.155Y-62.23
X108.155Y-64.77
X108.155Y-67.31
X108.155Y-69.85
X108.155Y-72.39
X108.155Y-74.93
X108.155Y-77.47
X108.155Y-80.01
X108.155Y-82.55
X108.155Y-85.09
X108.155Y-87.63
X108.155Y-90.17
X108.155Y-92.71
X108.155Y-95.25
X108.155Y-97.79
X108.155Y-100.33
X108.155Y-102.87
X108.155Y-105.41
X108.155Y-107.95
X108.155Y-110.49
X108.155Y-115.57
X108.155Y-118.11
X108.155Y-120.65
X108.155Y-123.19
X108.155Y-125.73
X108.155Y-128.27
X108.155Y-130.81
X108.155Y-133.35
X108.155Y-135.89
X108.155Y-138.43
X108.155Y-140.97
X108.155Y-143.51
X108.155Y-146.05
X108.155Y-148.59
X108.155Y-153.67
X110.695Y-53.34
X110.695Y-62.865
X110.695Y-100.965
X110.695Y-120.015
X110.695Y-139.065
X114.505Y-33.02
X114.505Y-159.385
X117.045Y-33.02
X117.045Y-159.385
X119.585Y-33.02
X119.585Y-159.385
X122.125Y-33.02
X122.125Y-159.385
X124.665Y-33.02
X124.665Y-159.385
X127.205Y-33.02
X127.205Y-159.385
X128.475Y-35.56
X128.475Y-53.34
X128.475Y-62.865
X128.475Y-72.39
X128.475Y-81.915
X128.475Y-100.965
X128.475Y-120.015
X128.475Y-139.065
X128.475Y-156.845
X129.745Y-33.02
X129.745Y-159.385
X132.285Y-33.02
X132.285Y-159.385
X134.825Y-33.02
X134.825Y-159.385
X137.365Y-33.02
X137.365Y-159.385
X139.905Y-33.02
X139.905Y-159.385
X142.445Y-33.02
X142.445Y-159.385
X142.572Y-49.022
X143.08Y-38.1
X143.207Y-62.484
X144.35Y-47.117
X144.985Y-33.02
X144.985Y-44.45
X144.985Y-159.385
X145.366Y-66.929
X146.077Y-62.967
X146.179Y-56.642
X147.525Y-33.02
X147.525Y-36.576
X147.525Y-72.39
X147.525Y-81.915
X147.525Y-100.965
X147.525Y-120.015
X147.525Y-139.065
X147.525Y-156.845
X147.525Y-159.385
X149.303Y-40.513
X149.303Y-62.865
X149.608Y-66.497
X150.065Y-33.02
X150.065Y-159.385
X150.446Y-45.085
X151.081Y-36.576
X151.716Y-62.103
X152.605Y-33.02
X152.605Y-159.385
X153.875Y-42.799
X154.002Y-71.12
X154.84Y-62.967
X155.145Y-33.02
X157.685Y-33.02
X157.685Y-159.385
X158.574Y-68.072
X160.225Y-33.02
X160.225Y-44.069
X160.225Y-159.385
X162.257Y-68.072
X162.765Y-159.385
X163.654Y-70.485
X163.654Y-74.041
X163.654Y-135.001
X165.051Y-40.386
X165.051Y-41.656
X165.051Y-42.926
X165.051Y-44.196
X165.051Y-45.466
X165.051Y-46.736
X165.305Y-159.385
X166.575Y-110.109
X166.575Y-139.065
X166.575Y-156.845
X166.702Y-129.286
X167.845Y-83.82
X167.845Y-100.965
X167.845Y-120.015
X167.845Y-159.385
X168.226Y-40.386
X168.226Y-41.656
X168.226Y-42.926
X168.226Y-44.196
X168.226Y-45.466
X168.226Y-46.736
X168.48Y-49.276
X168.607Y-48.006
X169.242Y-72.39
X169.242Y-91.44
X169.496Y-42.418
X170.385Y-159.385
X172.29Y-35.941
X172.544Y-81.915
X172.925Y-33.02
X172.925Y-58.166
X172.925Y-159.385
X173.052Y-56.769
X174.195Y-58.166
X175.465Y-33.02
X175.465Y-159.385
X175.592Y-56.007
X175.846Y-36.322
X176.354Y-66.675
X176.735Y-56.896
X176.735Y-58.166
X177.878Y-56.007
X178.005Y-33.02
X180.545Y-33.02
X180.545Y-159.385
X181.053Y-60.96
X183.72Y-60.96
X184.355Y-53.34
X184.355Y-81.915
X184.355Y-120.015
X184.355Y-139.065
X186.895Y-39.37
X186.895Y-41.91
X186.895Y-44.45
X186.895Y-46.99
X186.895Y-49.53
X186.895Y-52.07
X186.895Y-54.61
X186.895Y-57.15
X186.895Y-59.69
X186.895Y-62.23
X186.895Y-64.77
X186.895Y-67.31
X186.895Y-69.85
X186.895Y-72.39
X186.895Y-74.93
X186.895Y-77.47
X186.895Y-80.01
X186.895Y-82.55
X186.895Y-85.09
X186.895Y-87.63
X186.895Y-90.17
X186.895Y-92.71
X186.895Y-95.25
X186.895Y-97.79
X186.895Y-100.33
X186.895Y-102.87
X186.895Y-105.41
X186.895Y-107.95
X186.895Y-110.49
X186.895Y-113.03
X186.895Y-115.57
X186.895Y-118.11
X186.895Y-120.65
X186.895Y-123.19
X186.895Y-125.73
X186.895Y-128.27
X186.895Y-130.81
X186.895Y-133.35
X186.895Y-135.89
X186.895Y-138.43
X186.895Y-140.97
X186.895Y-143.51
X186.895Y-146.05
X186.895Y-148.59
X186.895Y-151.13
X186.895Y-153.67
T5
X108.75Y-35.703
X108.75Y-156.702
X109.343Y-34.271
X109.343Y-37.134
X109.343Y-155.271
X109.343Y-158.134
X110.775Y-33.678
X110.775Y-37.727
X110.775Y-154.677
X110.775Y-158.727
X112.207Y-34.271
X112.207Y-37.134
X112.207Y-155.271
X112.207Y-158.134
X112.8Y-35.703
X112.8Y-156.702
X182.25Y-35.703
X182.25Y-156.702
X182.843Y-34.271
X182.843Y-37.134
X182.843Y-155.271
X182.843Y-158.134
X184.275Y-33.678
X184.275Y-37.727
X184.275Y-154.677
X184.275Y-158.727
X185.707Y-34.271
X185.707Y-37.134
X185.707Y-155.271
X185.707Y-158.134
X186.3Y-35.703
X186.3Y-156.702
T7
X116.41Y-38.735
X116.41Y-67.31
X116.41Y-86.36
X116.41Y-95.885
X116.41Y-105.41
X116.41Y-124.46
X116.41Y-133.985
X116.41Y-143.51
X122.76Y-41.275
X122.76Y-69.85
X122.76Y-88.9
X122.76Y-98.425
X122.76Y-107.95
X122.76Y-127.0
X122.76Y-136.525
X122.76Y-146.05
X135.46Y-38.735
X135.46Y-67.31
X135.46Y-86.36
X135.46Y-105.41
X135.46Y-124.46
X135.46Y-143.51
X141.81Y-41.275
X141.81Y-69.85
X141.81Y-88.9
X141.81Y-107.95
X141.81Y-127.0
X141.81Y-146.05
X154.51Y-38.735
X154.51Y-67.31
X154.51Y-86.36
X154.51Y-105.41
X154.51Y-124.46
X154.51Y-143.51
X160.86Y-41.275
X160.86Y-69.85
X160.86Y-88.9
X160.86Y-107.95
X160.86Y-127.0
X160.86Y-146.05
X164.035Y-143.51
X170.385Y-146.05
X173.56Y-38.735
X173.56Y-67.31
X173.56Y-86.36
X173.56Y-105.41
X173.56Y-124.46
X173.56Y-143.51
X179.91Y-41.275
X179.91Y-69.85
X179.91Y-88.9
X179.91Y-107.95
X179.91Y-127.0
X179.91Y-146.05
T8
X110.775Y-35.703
X110.775Y-156.702
X184.275Y-35.703
X184.275Y-156.702
T6
X162.25Y-33.72G85X162.25Y-32.92
G05
X162.25Y-37.45G85X162.25Y-35.95
G05
X170.9Y-33.72G85X170.9Y-32.92
G05
X170.9Y-37.45G85X170.9Y-35.95
G05
T0
M30
