  0
SECTION
  2
HEADER
  9
$ACADVER
  1
AC1009
  9
$FILLMODE
 70
 0
  9
$SPLFRAME
 70
 1
  9
$EXTMIN
 10
0
 20
0
 30
0.0
  9
$EXTMAX
 10
1058.33
 20
1058.33
 30
0.0
  0
ENDSEC
  0
SECTION
  2
TABLES
  0
TABLE
  2
LAYER
 70
1
  0
LAYER
  2
0
 70
     0
 62
     7
  6
CONTINUOUS
  0
ENDTAB
  0
ENDSEC
  0
SECTION
  2
ENTITIES
  0
LINE
  8
0
 62
     0
 10
0.0950846
 20
124.083
 30
0.0
 11
76.2953
 21
124.083
 31
0.0
  0
LINE
  8
0
 62
     0
 10
76.2953
 20
124.083
 30
0.0
 11
76.2953
 21
0.257693
 31
0.0
  0
LINE
  8
0
 62
     0
 10
76.2953
 20
0.257693
 30
0.0
 11
0.0950846
 21
0.257693
 31
0.0
  0
LINE
  8
0
 62
     0
 10
0.0950846
 20
0.257693
 30
0.0
 11
0.0950846
 21
124.083
 31
0.0
  0
LINE
  8
0
 62
     0
 10
2.61965
 20
16.7831
 30
0.0
 11
2.61965
 21
2.78364
 31
0.0
  0
LINE
  8
0
 62
     0
 10
2.61965
 20
2.78364
 30
0.0
 11
5.59484
 21
2.78364
 31
0.0
  0
LINE
  8
0
 62
     0
 10
5.59484
 20
2.78364
 30
0.0
 11
5.59484
 21
1.8135
 31
0.0
  0
LINE
  8
0
 62
     0
 10
5.59484
 20
1.8135
 30
0.0
 11
8.89385
 21
1.8135
 31
0.0
  0
LINE
  8
0
 62
     0
 10
8.89385
 20
1.8135
 30
0.0
 11
8.89385
 21
2.78364
 31
0.0
  0
LINE
  8
0
 62
     0
 10
8.89385
 20
2.78364
 30
0.0
 11
29.3949
 21
2.78364
 31
0.0
  0
LINE
  8
0
 62
     0
 10
29.3949
 20
2.78364
 30
0.0
 11
29.3949
 21
1.8135
 31
0.0
  0
LINE
  8
0
 62
     0
 10
29.3949
 20
1.8135
 30
0.0
 11
32.694
 21
1.8135
 31
0.0
  0
LINE
  8
0
 62
     0
 10
32.694
 20
1.8135
 30
0.0
 11
32.694
 21
2.78364
 31
0.0
  0
LINE
  8
0
 62
     0
 10
32.694
 20
2.78364
 30
0.0
 11
35.669
 21
2.78364
 31
0.0
  0
LINE
  8
0
 62
     0
 10
35.669
 20
2.78364
 30
0.0
 11
35.669
 21
16.7831
 31
0.0
  0
LINE
  8
0
 62
     0
 10
35.669
 20
16.7831
 30
0.0
 11
2.61965
 21
16.7831
 31
0.0
  0
LINE
  8
0
 62
     0
 10
40.7197
 20
16.7831
 30
0.0
 11
54.719
 21
16.7831
 31
0.0
  0
LINE
  8
0
 62
     0
 10
54.719
 20
16.7831
 30
0.0
 11
54.719
 21
2.78364
 31
0.0
  0
LINE
  8
0
 62
     0
 10
54.719
 20
2.78364
 30
0.0
 11
40.7197
 21
2.78364
 31
0.0
  0
LINE
  8
0
 62
     0
 10
40.7197
 20
2.78364
 30
0.0
 11
40.7197
 21
16.7831
 31
0.0
  0
LINE
  8
0
 62
     0
 10
59.7697
 20
35.833
 30
0.0
 11
59.7697
 21
2.78364
 31
0.0
  0
LINE
  8
0
 62
     0
 10
59.7697
 20
2.78364
 30
0.0
 11
73.769
 21
2.78364
 31
0.0
  0
LINE
  8
0
 62
     0
 10
73.769
 20
2.78364
 30
0.0
 11
73.769
 21
5.75881
 31
0.0
  0
LINE
  8
0
 62
     0
 10
73.769
 20
5.75881
 30
0.0
 11
74.7391
 21
5.75881
 31
0.0
  0
LINE
  8
0
 62
     0
 10
74.7391
 20
5.75881
 30
0.0
 11
74.7391
 21
9.05785
 31
0.0
  0
LINE
  8
0
 62
     0
 10
74.7391
 20
9.05785
 30
0.0
 11
73.769
 21
9.05785
 31
0.0
  0
LINE
  8
0
 62
     0
 10
73.769
 20
9.05785
 30
0.0
 11
73.769
 21
29.5589
 31
0.0
  0
LINE
  8
0
 62
     0
 10
73.769
 20
29.5589
 30
0.0
 11
74.7391
 21
29.5589
 31
0.0
  0
LINE
  8
0
 62
     0
 10
74.7391
 20
29.5589
 30
0.0
 11
74.7391
 21
32.8579
 31
0.0
  0
LINE
  8
0
 62
     0
 10
74.7391
 20
32.8579
 30
0.0
 11
73.769
 21
32.8579
 31
0.0
  0
LINE
  8
0
 62
     0
 10
73.769
 20
32.8579
 30
0.0
 11
73.769
 21
35.833
 31
0.0
  0
LINE
  8
0
 62
     0
 10
73.769
 20
35.833
 30
0.0
 11
59.7697
 21
35.833
 31
0.0
  0
LINE
  8
0
 62
     0
 10
2.61965
 20
35.833
 30
0.0
 11
16.6192
 21
35.833
 31
0.0
  0
LINE
  8
0
 62
     0
 10
16.6192
 20
35.833
 30
0.0
 11
16.6192
 21
21.8336
 31
0.0
  0
LINE
  8
0
 62
     0
 10
16.6192
 20
21.8336
 30
0.0
 11
2.61965
 21
21.8336
 31
0.0
  0
LINE
  8
0
 62
     0
 10
2.61965
 20
21.8336
 30
0.0
 11
2.61965
 21
35.833
 31
0.0
  0
LINE
  8
0
 62
     0
 10
21.6697
 20
35.833
 30
0.0
 11
35.669
 21
35.833
 31
0.0
  0
LINE
  8
0
 62
     0
 10
35.669
 20
35.833
 30
0.0
 11
35.669
 21
21.8336
 31
0.0
  0
LINE
  8
0
 62
     0
 10
35.669
 20
21.8336
 30
0.0
 11
21.6697
 21
21.8336
 31
0.0
  0
LINE
  8
0
 62
     0
 10
21.6697
 20
21.8336
 30
0.0
 11
21.6697
 21
35.833
 31
0.0
  0
LINE
  8
0
 62
     0
 10
40.7197
 20
35.833
 30
0.0
 11
54.719
 21
35.833
 31
0.0
  0
LINE
  8
0
 62
     0
 10
54.719
 20
35.833
 30
0.0
 11
54.719
 21
21.8336
 31
0.0
  0
LINE
  8
0
 62
     0
 10
54.719
 20
21.8336
 30
0.0
 11
40.7197
 21
21.8336
 31
0.0
  0
LINE
  8
0
 62
     0
 10
40.7197
 20
21.8336
 30
0.0
 11
40.7197
 21
35.833
 31
0.0
  0
LINE
  8
0
 62
     0
 10
2.61965
 20
54.8831
 30
0.0
 11
16.6192
 21
54.8831
 31
0.0
  0
LINE
  8
0
 62
     0
 10
16.6192
 20
54.8831
 30
0.0
 11
16.6192
 21
40.8838
 31
0.0
  0
LINE
  8
0
 62
     0
 10
16.6192
 20
40.8838
 30
0.0
 11
2.61965
 21
40.8838
 31
0.0
  0
LINE
  8
0
 62
     0
 10
2.61965
 20
40.8838
 30
0.0
 11
2.61965
 21
54.8831
 31
0.0
  0
LINE
  8
0
 62
     0
 10
21.6697
 20
54.8831
 30
0.0
 11
35.669
 21
54.8831
 31
0.0
  0
LINE
  8
0
 62
     0
 10
35.669
 20
54.8831
 30
0.0
 11
35.669
 21
40.8838
 31
0.0
  0
LINE
  8
0
 62
     0
 10
35.669
 20
40.8838
 30
0.0
 11
21.6697
 21
40.8838
 31
0.0
  0
LINE
  8
0
 62
     0
 10
21.6697
 20
40.8838
 30
0.0
 11
21.6697
 21
54.8831
 31
0.0
  0
LINE
  8
0
 62
     0
 10
40.7197
 20
54.8831
 30
0.0
 11
54.719
 21
54.8831
 31
0.0
  0
LINE
  8
0
 62
     0
 10
54.719
 20
54.8831
 30
0.0
 11
54.719
 21
40.8838
 31
0.0
  0
LINE
  8
0
 62
     0
 10
54.719
 20
40.8838
 30
0.0
 11
40.7197
 21
40.8838
 31
0.0
  0
LINE
  8
0
 62
     0
 10
40.7197
 20
40.8838
 30
0.0
 11
40.7197
 21
54.8831
 31
0.0
  0
LINE
  8
0
 62
     0
 10
59.7697
 20
73.9331
 30
0.0
 11
59.7697
 21
40.8838
 31
0.0
  0
LINE
  8
0
 62
     0
 10
59.7697
 20
40.8838
 30
0.0
 11
73.769
 21
40.8838
 31
0.0
  0
LINE
  8
0
 62
     0
 10
73.769
 20
40.8838
 30
0.0
 11
73.769
 21
43.8587
 31
0.0
  0
LINE
  8
0
 62
     0
 10
73.769
 20
43.8587
 30
0.0
 11
74.7391
 21
43.8587
 31
0.0
  0
LINE
  8
0
 62
     0
 10
74.7391
 20
43.8587
 30
0.0
 11
74.7391
 21
47.1579
 31
0.0
  0
LINE
  8
0
 62
     0
 10
74.7391
 20
47.1579
 30
0.0
 11
73.769
 21
47.1579
 31
0.0
  0
LINE
  8
0
 62
     0
 10
73.769
 20
47.1579
 30
0.0
 11
73.769
 21
67.6589
 31
0.0
  0
LINE
  8
0
 62
     0
 10
73.769
 20
67.6589
 30
0.0
 11
74.7391
 21
67.6589
 31
0.0
  0
LINE
  8
0
 62
     0
 10
74.7391
 20
67.6589
 30
0.0
 11
74.7391
 21
70.9581
 31
0.0
  0
LINE
  8
0
 62
     0
 10
74.7391
 20
70.9581
 30
0.0
 11
73.769
 21
70.9581
 31
0.0
  0
LINE
  8
0
 62
     0
 10
73.769
 20
70.9581
 30
0.0
 11
73.769
 21
73.9331
 31
0.0
  0
LINE
  8
0
 62
     0
 10
73.769
 20
73.9331
 30
0.0
 11
59.7697
 21
73.9331
 31
0.0
  0
LINE
  8
0
 62
     0
 10
2.61965
 20
73.9331
 30
0.0
 11
16.6192
 21
73.9331
 31
0.0
  0
LINE
  8
0
 62
     0
 10
16.6192
 20
73.9331
 30
0.0
 11
16.6192
 21
59.9338
 31
0.0
  0
LINE
  8
0
 62
     0
 10
16.6192
 20
59.9338
 30
0.0
 11
2.61965
 21
59.9338
 31
0.0
  0
LINE
  8
0
 62
     0
 10
2.61965
 20
59.9338
 30
0.0
 11
2.61965
 21
73.9331
 31
0.0
  0
LINE
  8
0
 62
     0
 10
21.6697
 20
73.9331
 30
0.0
 11
35.669
 21
73.9331
 31
0.0
  0
LINE
  8
0
 62
     0
 10
35.669
 20
73.9331
 30
0.0
 11
35.669
 21
59.9338
 31
0.0
  0
LINE
  8
0
 62
     0
 10
35.669
 20
59.9338
 30
0.0
 11
21.6697
 21
59.9338
 31
0.0
  0
LINE
  8
0
 62
     0
 10
21.6697
 20
59.9338
 30
0.0
 11
21.6697
 21
73.9331
 31
0.0
  0
LINE
  8
0
 62
     0
 10
40.7197
 20
73.9331
 30
0.0
 11
54.719
 21
73.9331
 31
0.0
  0
LINE
  8
0
 62
     0
 10
54.719
 20
73.9331
 30
0.0
 11
54.719
 21
59.9338
 31
0.0
  0
LINE
  8
0
 62
     0
 10
54.719
 20
59.9338
 30
0.0
 11
40.7197
 21
59.9338
 31
0.0
  0
LINE
  8
0
 62
     0
 10
40.7197
 20
59.9338
 30
0.0
 11
40.7197
 21
73.9331
 31
0.0
  0
LINE
  8
0
 62
     0
 10
2.61965
 20
92.9831
 30
0.0
 11
16.6192
 21
92.9831
 31
0.0
  0
LINE
  8
0
 62
     0
 10
16.6192
 20
92.9831
 30
0.0
 11
16.6192
 21
78.9838
 31
0.0
  0
LINE
  8
0
 62
     0
 10
16.6192
 20
78.9838
 30
0.0
 11
2.61965
 21
78.9838
 31
0.0
  0
LINE
  8
0
 62
     0
 10
2.61965
 20
78.9838
 30
0.0
 11
2.61965
 21
92.9831
 31
0.0
  0
LINE
  8
0
 62
     0
 10
21.6697
 20
92.9831
 30
0.0
 11
35.669
 21
92.9831
 31
0.0
  0
LINE
  8
0
 62
     0
 10
35.669
 20
92.9831
 30
0.0
 11
35.669
 21
78.9838
 31
0.0
  0
LINE
  8
0
 62
     0
 10
35.669
 20
78.9838
 30
0.0
 11
21.6697
 21
78.9838
 31
0.0
  0
LINE
  8
0
 62
     0
 10
21.6697
 20
78.9838
 30
0.0
 11
21.6697
 21
92.9831
 31
0.0
  0
LINE
  8
0
 62
     0
 10
40.7197
 20
92.9831
 30
0.0
 11
54.719
 21
92.9831
 31
0.0
  0
LINE
  8
0
 62
     0
 10
54.719
 20
92.9831
 30
0.0
 11
54.719
 21
78.9838
 31
0.0
  0
LINE
  8
0
 62
     0
 10
54.719
 20
78.9838
 30
0.0
 11
40.7197
 21
78.9838
 31
0.0
  0
LINE
  8
0
 62
     0
 10
40.7197
 20
78.9838
 30
0.0
 11
40.7197
 21
92.9831
 31
0.0
  0
LINE
  8
0
 62
     0
 10
59.7697
 20
92.9831
 30
0.0
 11
73.769
 21
92.9831
 31
0.0
  0
LINE
  8
0
 62
     0
 10
73.769
 20
92.9831
 30
0.0
 11
73.769
 21
78.9838
 31
0.0
  0
LINE
  8
0
 62
     0
 10
73.769
 20
78.9838
 30
0.0
 11
59.7697
 21
78.9838
 31
0.0
  0
LINE
  8
0
 62
     0
 10
59.7697
 20
78.9838
 30
0.0
 11
59.7697
 21
92.9831
 31
0.0
  0
LINE
  8
0
 62
     0
 10
2.61965
 20
121.558
 30
0.0
 11
16.6192
 21
121.558
 31
0.0
  0
LINE
  8
0
 62
     0
 10
16.6192
 20
121.558
 30
0.0
 11
16.6192
 21
107.559
 31
0.0
  0
LINE
  8
0
 62
     0
 10
16.6192
 20
107.559
 30
0.0
 11
2.61965
 21
107.559
 31
0.0
  0
LINE
  8
0
 62
     0
 10
2.61965
 20
107.559
 30
0.0
 11
2.61965
 21
121.558
 31
0.0
  0
LINE
  8
0
 62
     0
 10
21.6697
 20
121.558
 30
0.0
 11
35.669
 21
121.558
 31
0.0
  0
LINE
  8
0
 62
     0
 10
35.669
 20
121.558
 30
0.0
 11
35.669
 21
107.559
 31
0.0
  0
LINE
  8
0
 62
     0
 10
35.669
 20
107.559
 30
0.0
 11
21.6697
 21
107.559
 31
0.0
  0
LINE
  8
0
 62
     0
 10
21.6697
 20
107.559
 30
0.0
 11
21.6697
 21
121.558
 31
0.0
  0
LINE
  8
0
 62
     0
 10
40.7197
 20
121.558
 30
0.0
 11
54.719
 21
121.558
 31
0.0
  0
LINE
  8
0
 62
     0
 10
54.719
 20
121.558
 30
0.0
 11
54.719
 21
107.559
 31
0.0
  0
LINE
  8
0
 62
     0
 10
54.719
 20
107.559
 30
0.0
 11
40.7197
 21
107.559
 31
0.0
  0
LINE
  8
0
 62
     0
 10
40.7197
 20
107.559
 30
0.0
 11
40.7197
 21
121.558
 31
0.0
  0
LINE
  8
0
 62
     0
 10
59.7697
 20
121.558
 30
0.0
 11
73.769
 21
121.558
 31
0.0
  0
LINE
  8
0
 62
     0
 10
73.769
 20
121.558
 30
0.0
 11
73.769
 21
107.559
 31
0.0
  0
LINE
  8
0
 62
     0
 10
73.769
 20
107.559
 30
0.0
 11
59.7697
 21
107.559
 31
0.0
  0
LINE
  8
0
 62
     0
 10
59.7697
 20
107.559
 30
0.0
 11
59.7697
 21
121.558
 31
0.0
  0
ENDSEC
  0
EOF
