M48
; DRILL file {KiCad (7.0.0)} date Mon Feb 27 13:59:08 2023
; FORMAT={-:-/ absolute / metric / decimal}
; #@! TF.CreationDate,2023-02-27T13:59:08+01:00
; #@! TF.GenerationSoftware,Kicad,Pcbnew,(7.0.0)
; #@! TF.FileFunction,NonPlated,1,2,NPTH
FMAT,2
METRIC
; #@! TA.AperFunction,NonPlated,NPTH,ComponentDrill
T1C0.600
; #@! TA.AperFunction,NonPlated,NPTH,ComponentDrill
T2C1.700
; #@! TA.AperFunction,NonPlated,NPTH,ComponentDrill
T3C3.050
; #@! TA.AperFunction,NonPlated,NPTH,ComponentDrill
T4C4.000
%
G90
G05
T1
X163.61Y-37.95
X169.39Y-37.95
T2
X113.87Y-43.815
X113.87Y-72.39
X113.87Y-91.44
X113.87Y-100.965
X113.87Y-110.49
X113.87Y-129.54
X113.87Y-139.065
X113.87Y-148.59
X124.03Y-43.815
X124.03Y-72.39
X124.03Y-91.44
X124.03Y-100.965
X124.03Y-110.49
X124.03Y-129.54
X124.03Y-139.065
X124.03Y-148.59
X132.92Y-43.815
X132.92Y-72.39
X132.92Y-91.44
X132.92Y-110.49
X132.92Y-129.54
X132.92Y-148.59
X143.08Y-43.815
X143.08Y-72.39
X143.08Y-91.44
X143.08Y-110.49
X143.08Y-129.54
X143.08Y-148.59
X151.97Y-43.815
X151.97Y-72.39
X151.97Y-91.44
X151.97Y-110.49
X151.97Y-129.54
X151.97Y-148.59
X161.495Y-148.59
X162.13Y-43.815
X162.13Y-72.39
X162.13Y-91.44
X162.13Y-110.49
X162.13Y-129.54
X162.13Y-148.59
X171.02Y-43.815
X171.02Y-72.39
X171.02Y-91.44
X171.02Y-110.49
X171.02Y-129.54
X171.02Y-148.59
X171.655Y-148.59
X181.18Y-43.815
X181.18Y-72.39
X181.18Y-91.44
X181.18Y-110.49
X181.18Y-129.54
X181.18Y-148.59
T3
X125.95Y-89.065
X125.95Y-112.865
X125.95Y-127.165
X125.95Y-150.965
X154.675Y-141.59
X178.475Y-141.59
T4
X110.71Y-89.065
X110.71Y-112.865
X110.71Y-127.165
X110.71Y-150.965
X118.95Y-43.815
X118.95Y-72.39
X118.95Y-91.44
X118.95Y-100.965
X118.95Y-110.49
X118.95Y-129.54
X118.95Y-139.065
X118.95Y-148.59
X138.0Y-43.815
X138.0Y-72.39
X138.0Y-91.44
X138.0Y-110.49
X138.0Y-129.54
X138.0Y-148.59
X154.675Y-156.83
X157.05Y-43.815
X157.05Y-72.39
X157.05Y-91.44
X157.05Y-110.49
X157.05Y-129.54
X157.05Y-148.59
X166.575Y-148.59
X176.1Y-43.815
X176.1Y-72.39
X176.1Y-91.44
X176.1Y-110.49
X176.1Y-129.54
X176.1Y-148.59
X178.475Y-156.83
T0
M30
