G04 #@! TF.GenerationSoftware,KiCad,Pcbnew,(7.0.0)*
G04 #@! TF.CreationDate,2023-02-27T13:57:00+01:00*
G04 #@! TF.ProjectId,MPad2040_V1,4d506164-3230-4343-905f-56312e6b6963,1.1*
G04 #@! TF.SameCoordinates,Original*
G04 #@! TF.FileFunction,Soldermask,Top*
G04 #@! TF.FilePolarity,Negative*
%FSLAX46Y46*%
G04 Gerber Fmt 4.6, Leading zero omitted, Abs format (unit mm)*
G04 Created by KiCad (PCBNEW (7.0.0)) date 2023-02-27 13:57:00*
%MOMM*%
%LPD*%
G01*
G04 APERTURE LIST*
G04 Aperture macros list*
%AMRoundRect*
0 Rectangle with rounded corners*
0 $1 Rounding radius*
0 $2 $3 $4 $5 $6 $7 $8 $9 X,Y pos of 4 corners*
0 Add a 4 corners polygon primitive as box body*
4,1,4,$2,$3,$4,$5,$6,$7,$8,$9,$2,$3,0*
0 Add four circle primitives for the rounded corners*
1,1,$1+$1,$2,$3*
1,1,$1+$1,$4,$5*
1,1,$1+$1,$6,$7*
1,1,$1+$1,$8,$9*
0 Add four rect primitives between the rounded corners*
20,1,$1+$1,$2,$3,$4,$5,0*
20,1,$1+$1,$4,$5,$6,$7,0*
20,1,$1+$1,$6,$7,$8,$9,0*
20,1,$1+$1,$8,$9,$2,$3,0*%
G04 Aperture macros list end*
%ADD10R,1.100000X1.100000*%
%ADD11RoundRect,0.135000X0.135000X0.185000X-0.135000X0.185000X-0.135000X-0.185000X0.135000X-0.185000X0*%
%ADD12RoundRect,0.200000X-0.275000X0.200000X-0.275000X-0.200000X0.275000X-0.200000X0.275000X0.200000X0*%
%ADD13RoundRect,0.218750X0.218750X0.256250X-0.218750X0.256250X-0.218750X-0.256250X0.218750X-0.256250X0*%
%ADD14RoundRect,0.250000X-0.625000X0.375000X-0.625000X-0.375000X0.625000X-0.375000X0.625000X0.375000X0*%
%ADD15RoundRect,0.140000X-0.140000X-0.170000X0.140000X-0.170000X0.140000X0.170000X-0.140000X0.170000X0*%
%ADD16RoundRect,0.140000X0.140000X0.170000X-0.140000X0.170000X-0.140000X-0.170000X0.140000X-0.170000X0*%
%ADD17R,2.000000X1.500000*%
%ADD18R,2.000000X3.800000*%
%ADD19R,0.750000X2.100000*%
%ADD20R,1.000000X0.750000*%
%ADD21RoundRect,0.140000X0.170000X-0.140000X0.170000X0.140000X-0.170000X0.140000X-0.170000X-0.140000X0*%
%ADD22R,0.532600X1.487399*%
%ADD23RoundRect,0.135000X0.185000X-0.135000X0.185000X0.135000X-0.185000X0.135000X-0.185000X-0.135000X0*%
%ADD24RoundRect,0.250000X0.450000X0.425000X-0.450000X0.425000X-0.450000X-0.425000X0.450000X-0.425000X0*%
%ADD25C,0.600000*%
%ADD26R,0.600000X1.160000*%
%ADD27R,0.300000X1.160000*%
%ADD28O,0.900000X2.000000*%
%ADD29O,0.900000X1.700000*%
%ADD30RoundRect,0.200000X0.200000X0.275000X-0.200000X0.275000X-0.200000X-0.275000X0.200000X-0.275000X0*%
%ADD31RoundRect,0.200000X-0.200000X-0.275000X0.200000X-0.275000X0.200000X0.275000X-0.200000X0.275000X0*%
%ADD32RoundRect,0.140000X-0.170000X0.140000X-0.170000X-0.140000X0.170000X-0.140000X0.170000X0.140000X0*%
%ADD33R,0.807999X0.178600*%
%ADD34R,0.178600X0.807999*%
%ADD35R,3.200400X3.200400*%
%ADD36RoundRect,0.250000X-0.450000X-0.425000X0.450000X-0.425000X0.450000X0.425000X-0.450000X0.425000X0*%
%ADD37R,1.400000X1.200000*%
%ADD38C,0.800000*%
%ADD39C,5.400000*%
%ADD40C,1.700000*%
%ADD41C,4.000000*%
%ADD42C,2.200000*%
%ADD43C,3.050000*%
G04 APERTURE END LIST*
D10*
X130252999Y-130939999D03*
X130252999Y-128139999D03*
D11*
X161038000Y-63754000D03*
X160018000Y-63754000D03*
D12*
X168000000Y-41175000D03*
X168000000Y-42825000D03*
D13*
X139930500Y-49022000D03*
X138355500Y-49022000D03*
D10*
X149302999Y-131066999D03*
X149302999Y-128266999D03*
D14*
X145874000Y-38227000D03*
X145874000Y-41027000D03*
D15*
X168370000Y-51650000D03*
X169330000Y-51650000D03*
D10*
X149302999Y-111889999D03*
X149302999Y-109089999D03*
D16*
X160324000Y-56896000D03*
X159364000Y-56896000D03*
D10*
X168352999Y-92839999D03*
X168352999Y-90039999D03*
D17*
X148388999Y-54242999D03*
X148388999Y-51942999D03*
D18*
X142088999Y-51942999D03*
D17*
X148388999Y-49642999D03*
D15*
X157586000Y-63754000D03*
X158546000Y-63754000D03*
D19*
X171654999Y-60048999D03*
X171654999Y-63648999D03*
X172924999Y-60048999D03*
X172924999Y-63648999D03*
X174194999Y-60048999D03*
X174194999Y-63648999D03*
X175464999Y-60048999D03*
X175464999Y-63648999D03*
X176734999Y-60048999D03*
X176734999Y-63648999D03*
D11*
X139653000Y-50673000D03*
X138633000Y-50673000D03*
D13*
X149430000Y-38227000D03*
X147855000Y-38227000D03*
D10*
X121619999Y-95884999D03*
X118819999Y-95884999D03*
D15*
X167746000Y-60452000D03*
X168706000Y-60452000D03*
D20*
X178687999Y-59211999D03*
X178687999Y-62961999D03*
X184687999Y-59211999D03*
X184687999Y-62961999D03*
D21*
X163550000Y-50330000D03*
X163550000Y-49370000D03*
D10*
X149302999Y-92839999D03*
X149302999Y-90039999D03*
D22*
X153366999Y-55346599D03*
X154636999Y-55346599D03*
X155906999Y-55346599D03*
X157176999Y-55346599D03*
X157176999Y-48031399D03*
X155906999Y-48031399D03*
X154636999Y-48031399D03*
X153366999Y-48031399D03*
D10*
X121619999Y-133984999D03*
X118819999Y-133984999D03*
D23*
X166650000Y-50860000D03*
X166650000Y-49840000D03*
D10*
X146889999Y-149989999D03*
X146889999Y-147189999D03*
X168352999Y-111889999D03*
X168352999Y-109089999D03*
D20*
X153572999Y-62961999D03*
X153572999Y-59211999D03*
X147572999Y-62961999D03*
X147572999Y-59211999D03*
D24*
X148494000Y-47117000D03*
X145794000Y-47117000D03*
D25*
X169390000Y-37950000D03*
X163610000Y-37950000D03*
D26*
X169699999Y-39009999D03*
X168899999Y-39009999D03*
D27*
X167749999Y-39009999D03*
X166749999Y-39009999D03*
X166249999Y-39009999D03*
X165249999Y-39009999D03*
D26*
X164099999Y-39009999D03*
X163299999Y-39009999D03*
X163299999Y-39009999D03*
X164099999Y-39009999D03*
D27*
X164749999Y-39009999D03*
X165749999Y-39009999D03*
X167249999Y-39009999D03*
X168249999Y-39009999D03*
D26*
X168899999Y-39009999D03*
X169699999Y-39009999D03*
D28*
X170819999Y-38429999D03*
D29*
X170819999Y-34259999D03*
D28*
X162179999Y-38429999D03*
D29*
X162179999Y-34259999D03*
D21*
X162384000Y-61440000D03*
X162384000Y-60480000D03*
D30*
X152668000Y-57404000D03*
X151018000Y-57404000D03*
D10*
X121619999Y-153669999D03*
X118819999Y-153669999D03*
X130252999Y-92839999D03*
X130252999Y-90039999D03*
X130252999Y-111889999D03*
X130252999Y-109089999D03*
D31*
X167782000Y-61722000D03*
X169432000Y-61722000D03*
D32*
X164846000Y-60759400D03*
X164846000Y-61719400D03*
D16*
X160324000Y-53238400D03*
X159364000Y-53238400D03*
D10*
X130252999Y-149989999D03*
X130252999Y-147189999D03*
D23*
X165650000Y-50860000D03*
X165650000Y-49840000D03*
D33*
X161522799Y-53238399D03*
X161522799Y-53644799D03*
X161522799Y-54051199D03*
X161522799Y-54457599D03*
X161522799Y-54863999D03*
X161522799Y-55270399D03*
X161522799Y-55676799D03*
X161522799Y-56083199D03*
X161522799Y-56489599D03*
X161522799Y-56895999D03*
X161522799Y-57302399D03*
X161522799Y-57708799D03*
X161522799Y-58115199D03*
X161522799Y-58521599D03*
D34*
X162282399Y-59281199D03*
X162688799Y-59281199D03*
X163095199Y-59281199D03*
X163501599Y-59281199D03*
X163907999Y-59281199D03*
X164314399Y-59281199D03*
X164720799Y-59281199D03*
X165127199Y-59281199D03*
X165533599Y-59281199D03*
X165939999Y-59281199D03*
X166346399Y-59281199D03*
X166752799Y-59281199D03*
X167159199Y-59281199D03*
X167565599Y-59281199D03*
D33*
X168325199Y-58521599D03*
X168325199Y-58115199D03*
X168325199Y-57708799D03*
X168325199Y-57302399D03*
X168325199Y-56895999D03*
X168325199Y-56489599D03*
X168325199Y-56083199D03*
X168325199Y-55676799D03*
X168325199Y-55270399D03*
X168325199Y-54863999D03*
X168325199Y-54457599D03*
X168325199Y-54051199D03*
X168325199Y-53644799D03*
X168325199Y-53238399D03*
D34*
X167565599Y-52478799D03*
X167159199Y-52478799D03*
X166752799Y-52478799D03*
X166346399Y-52478799D03*
X165939999Y-52478799D03*
X165533599Y-52478799D03*
X165127199Y-52478799D03*
X164720799Y-52478799D03*
X164314399Y-52478799D03*
X163907999Y-52478799D03*
X163501599Y-52478799D03*
X163095199Y-52478799D03*
X162688799Y-52478799D03*
X162282399Y-52478799D03*
D35*
X164923999Y-55879999D03*
D10*
X168352999Y-73789999D03*
X168352999Y-70989999D03*
X179785999Y-38353999D03*
X176985999Y-38353999D03*
X111202999Y-73789999D03*
X111202999Y-70989999D03*
X149302999Y-149989999D03*
X149302999Y-147189999D03*
D15*
X167570000Y-50700000D03*
X168530000Y-50700000D03*
D21*
X164700000Y-50980000D03*
X164700000Y-50020000D03*
D10*
X111202999Y-45214999D03*
X111202999Y-42414999D03*
D15*
X169524000Y-53238400D03*
X170484000Y-53238400D03*
D11*
X155401000Y-57404000D03*
X154381000Y-57404000D03*
D10*
X130252999Y-45214999D03*
X130252999Y-42414999D03*
D15*
X153042000Y-46202600D03*
X154002000Y-46202600D03*
D10*
X168352999Y-130939999D03*
X168352999Y-128139999D03*
X121619999Y-115569999D03*
X118819999Y-115569999D03*
X130252999Y-73789999D03*
X130252999Y-70989999D03*
X159465999Y-38861999D03*
X156665999Y-38861999D03*
D15*
X169524000Y-56896000D03*
X170484000Y-56896000D03*
D32*
X165785800Y-60759400D03*
X165785800Y-61719400D03*
D36*
X142064000Y-56642000D03*
X144764000Y-56642000D03*
D37*
X160866510Y-60656999D03*
X158666510Y-60656999D03*
X158666510Y-62356999D03*
X160866510Y-62356999D03*
D10*
X149302999Y-73789999D03*
X149302999Y-70989999D03*
D12*
X164500000Y-41175000D03*
X164500000Y-42825000D03*
D38*
X186300000Y-35702500D03*
X185706891Y-37134391D03*
X185706891Y-34270609D03*
X184275000Y-37727500D03*
D39*
X184275000Y-35702500D03*
D38*
X184275000Y-33677500D03*
X182843109Y-37134391D03*
X182843109Y-34270609D03*
X182250000Y-35702500D03*
D40*
X181180000Y-72390000D03*
D41*
X176100000Y-72390000D03*
D40*
X171020000Y-72390000D03*
D42*
X173560000Y-67310000D03*
X179910000Y-69850000D03*
D40*
X162130000Y-110490000D03*
D41*
X157050000Y-110490000D03*
D40*
X151970000Y-110490000D03*
D42*
X154510000Y-105410000D03*
X160860000Y-107950000D03*
D40*
X181180000Y-43815000D03*
D41*
X176100000Y-43815000D03*
D40*
X171020000Y-43815000D03*
D42*
X173560000Y-38735000D03*
X179910000Y-41275000D03*
D38*
X186300000Y-156702500D03*
X185706891Y-158134391D03*
X185706891Y-155270609D03*
X184275000Y-158727500D03*
D39*
X184275000Y-156702500D03*
D38*
X184275000Y-154677500D03*
X182843109Y-158134391D03*
X182843109Y-155270609D03*
X182250000Y-156702500D03*
D40*
X181180000Y-110490000D03*
D41*
X176100000Y-110490000D03*
D40*
X171020000Y-110490000D03*
D42*
X173560000Y-105410000D03*
X179910000Y-107950000D03*
D40*
X124030000Y-148590000D03*
D41*
X118950000Y-148590000D03*
D40*
X113870000Y-148590000D03*
D42*
X116410000Y-143510000D03*
X122760000Y-146050000D03*
D38*
X112800000Y-35702500D03*
X112206891Y-37134391D03*
X112206891Y-34270609D03*
X110775000Y-37727500D03*
D39*
X110775000Y-35702500D03*
D38*
X110775000Y-33677500D03*
X109343109Y-37134391D03*
X109343109Y-34270609D03*
X108750000Y-35702500D03*
D40*
X143080000Y-72390000D03*
D41*
X138000000Y-72390000D03*
D40*
X132920000Y-72390000D03*
D42*
X135460000Y-67310000D03*
X141810000Y-69850000D03*
D40*
X143080000Y-91440000D03*
D41*
X138000000Y-91440000D03*
D40*
X132920000Y-91440000D03*
D42*
X135460000Y-86360000D03*
X141810000Y-88900000D03*
D40*
X124030000Y-110490000D03*
D41*
X118950000Y-110490000D03*
D40*
X113870000Y-110490000D03*
D42*
X116410000Y-105410000D03*
X122760000Y-107950000D03*
D40*
X162130000Y-91440000D03*
D41*
X157050000Y-91440000D03*
D40*
X151970000Y-91440000D03*
D42*
X154510000Y-86360000D03*
X160860000Y-88900000D03*
D43*
X125950000Y-150965000D03*
X125950000Y-127165000D03*
D40*
X124030000Y-139065000D03*
D41*
X118950000Y-139065000D03*
D40*
X113870000Y-139065000D03*
D41*
X110710000Y-150965000D03*
X110710000Y-127165000D03*
D42*
X116410000Y-133985000D03*
X122760000Y-136525000D03*
D40*
X181180000Y-91440000D03*
D41*
X176100000Y-91440000D03*
D40*
X171020000Y-91440000D03*
D42*
X173560000Y-86360000D03*
X179910000Y-88900000D03*
D40*
X124030000Y-72390000D03*
D41*
X118950000Y-72390000D03*
D40*
X113870000Y-72390000D03*
D42*
X116410000Y-67310000D03*
X122760000Y-69850000D03*
D43*
X125950000Y-112865000D03*
X125950000Y-89065000D03*
D40*
X124030000Y-100965000D03*
D41*
X118950000Y-100965000D03*
D40*
X113870000Y-100965000D03*
D41*
X110710000Y-112865000D03*
X110710000Y-89065000D03*
D42*
X116410000Y-95885000D03*
X122760000Y-98425000D03*
D40*
X124030000Y-129540000D03*
D41*
X118950000Y-129540000D03*
D40*
X113870000Y-129540000D03*
D42*
X116410000Y-124460000D03*
X122760000Y-127000000D03*
D40*
X162130000Y-129540000D03*
D41*
X157050000Y-129540000D03*
D40*
X151970000Y-129540000D03*
D42*
X154510000Y-124460000D03*
X160860000Y-127000000D03*
D40*
X181180000Y-129540000D03*
D41*
X176100000Y-129540000D03*
D40*
X171020000Y-129540000D03*
D42*
X173560000Y-124460000D03*
X179910000Y-127000000D03*
D38*
X110775000Y-158727500D03*
X109343109Y-158134391D03*
X112206891Y-158134391D03*
X108750000Y-156702500D03*
D39*
X110775000Y-156702500D03*
D38*
X112800000Y-156702500D03*
X109343109Y-155270609D03*
X112206891Y-155270609D03*
X110775000Y-154677500D03*
D40*
X181180000Y-148590000D03*
D41*
X176100000Y-148590000D03*
D40*
X171020000Y-148590000D03*
D42*
X173560000Y-143510000D03*
X179910000Y-146050000D03*
D40*
X162130000Y-148590000D03*
D41*
X157050000Y-148590000D03*
D40*
X151970000Y-148590000D03*
D42*
X154510000Y-143510000D03*
X160860000Y-146050000D03*
D40*
X162130000Y-43815000D03*
D41*
X157050000Y-43815000D03*
D40*
X151970000Y-43815000D03*
D42*
X154510000Y-38735000D03*
X160860000Y-41275000D03*
D40*
X143080000Y-110490000D03*
D41*
X138000000Y-110490000D03*
D40*
X132920000Y-110490000D03*
D42*
X135460000Y-105410000D03*
X141810000Y-107950000D03*
D41*
X178475000Y-156830000D03*
D43*
X178475000Y-141590000D03*
D40*
X171655000Y-148590000D03*
D41*
X166575000Y-148590000D03*
D40*
X161495000Y-148590000D03*
D41*
X154675000Y-156830000D03*
D43*
X154675000Y-141590000D03*
D42*
X164035000Y-143510000D03*
X170385000Y-146050000D03*
D40*
X143080000Y-148590000D03*
D41*
X138000000Y-148590000D03*
D40*
X132920000Y-148590000D03*
D42*
X135460000Y-143510000D03*
X141810000Y-146050000D03*
D40*
X143080000Y-43815000D03*
D41*
X138000000Y-43815000D03*
D40*
X132920000Y-43815000D03*
D42*
X135460000Y-38735000D03*
X141810000Y-41275000D03*
D40*
X162130000Y-72390000D03*
D41*
X157050000Y-72390000D03*
D40*
X151970000Y-72390000D03*
D42*
X154510000Y-67310000D03*
X160860000Y-69850000D03*
D40*
X124030000Y-91440000D03*
D41*
X118950000Y-91440000D03*
D40*
X113870000Y-91440000D03*
D42*
X116410000Y-86360000D03*
X122760000Y-88900000D03*
D40*
X124030000Y-43815000D03*
D41*
X118950000Y-43815000D03*
D40*
X113870000Y-43815000D03*
D42*
X116410000Y-38735000D03*
X122760000Y-41275000D03*
D40*
X143080000Y-129540000D03*
D41*
X138000000Y-129540000D03*
D40*
X132920000Y-129540000D03*
D42*
X135460000Y-124460000D03*
X141810000Y-127000000D03*
G36*
X159986179Y-31751328D02*
G01*
X160161117Y-31766633D01*
X160221026Y-31777196D01*
X160375868Y-31818685D01*
X160433037Y-31839493D01*
X160578326Y-31907243D01*
X160631010Y-31937660D01*
X160762332Y-32029613D01*
X160808933Y-32068717D01*
X160922282Y-32182066D01*
X160961386Y-32228667D01*
X161053339Y-32359989D01*
X161083756Y-32412673D01*
X161151506Y-32557962D01*
X161172314Y-32615131D01*
X161213803Y-32769973D01*
X161224366Y-32829882D01*
X161238338Y-32989582D01*
X161238338Y-33050416D01*
X161224366Y-33210117D01*
X161213803Y-33270026D01*
X161172314Y-33424868D01*
X161151506Y-33482037D01*
X161083756Y-33627326D01*
X161053339Y-33680010D01*
X160961386Y-33811332D01*
X160922282Y-33857933D01*
X160808933Y-33971282D01*
X160762332Y-34010386D01*
X160631010Y-34102339D01*
X160578326Y-34132756D01*
X160433037Y-34200506D01*
X160375868Y-34221314D01*
X160221026Y-34262803D01*
X160161119Y-34273366D01*
X159986181Y-34288672D01*
X159955762Y-34290000D01*
X111970285Y-34290000D01*
X111959719Y-34290319D01*
X111669360Y-34307882D01*
X111648467Y-34310419D01*
X111367510Y-34361907D01*
X111347075Y-34366943D01*
X111074368Y-34451922D01*
X111054685Y-34459387D01*
X110794219Y-34576613D01*
X110775580Y-34586396D01*
X110531140Y-34734165D01*
X110513812Y-34746126D01*
X110288966Y-34922281D01*
X110273210Y-34936240D01*
X110071240Y-35138210D01*
X110057281Y-35153966D01*
X109881126Y-35378812D01*
X109869165Y-35396140D01*
X109721396Y-35640580D01*
X109711613Y-35659219D01*
X109594387Y-35919685D01*
X109586922Y-35939368D01*
X109501943Y-36212075D01*
X109496907Y-36232510D01*
X109445419Y-36513467D01*
X109442882Y-36534360D01*
X109425319Y-36824719D01*
X109425000Y-36835285D01*
X109425000Y-155569715D01*
X109425319Y-155580280D01*
X109442882Y-155870639D01*
X109445419Y-155891532D01*
X109496907Y-156172489D01*
X109501943Y-156192924D01*
X109586922Y-156465631D01*
X109594387Y-156485314D01*
X109711613Y-156745780D01*
X109721396Y-156764419D01*
X109869165Y-157008859D01*
X109881126Y-157026187D01*
X110057281Y-157251033D01*
X110071240Y-157266789D01*
X110273210Y-157468759D01*
X110288966Y-157482718D01*
X110513812Y-157658873D01*
X110531140Y-157670834D01*
X110775580Y-157818603D01*
X110794219Y-157828386D01*
X111054685Y-157945612D01*
X111074368Y-157953077D01*
X111347075Y-158038056D01*
X111367510Y-158043092D01*
X111648467Y-158094580D01*
X111669360Y-158097117D01*
X111959719Y-158114680D01*
X111970285Y-158115000D01*
X183079715Y-158115000D01*
X183090280Y-158114680D01*
X183380639Y-158097117D01*
X183401532Y-158094580D01*
X183682489Y-158043092D01*
X183702924Y-158038056D01*
X183975631Y-157953077D01*
X183995314Y-157945612D01*
X184255780Y-157828386D01*
X184274419Y-157818603D01*
X184518859Y-157670834D01*
X184536187Y-157658873D01*
X184761033Y-157482718D01*
X184776789Y-157468759D01*
X184978759Y-157266789D01*
X184992718Y-157251033D01*
X185168873Y-157026187D01*
X185180834Y-157008859D01*
X185328603Y-156764419D01*
X185338386Y-156745780D01*
X185455612Y-156485314D01*
X185463077Y-156465631D01*
X185548056Y-156192924D01*
X185553092Y-156172489D01*
X185604580Y-155891532D01*
X185607117Y-155870639D01*
X185624680Y-155580280D01*
X185625000Y-155569715D01*
X185625000Y-36835285D01*
X185624680Y-36824719D01*
X185607117Y-36534360D01*
X185604580Y-36513467D01*
X185553092Y-36232510D01*
X185548056Y-36212075D01*
X185463077Y-35939368D01*
X185455612Y-35919685D01*
X185338386Y-35659219D01*
X185328603Y-35640580D01*
X185180834Y-35396140D01*
X185168873Y-35378812D01*
X184992718Y-35153966D01*
X184978759Y-35138210D01*
X184776789Y-34936240D01*
X184761033Y-34922281D01*
X184536187Y-34746126D01*
X184518859Y-34734165D01*
X184274419Y-34586396D01*
X184255780Y-34576613D01*
X183995314Y-34459387D01*
X183975631Y-34451922D01*
X183702924Y-34366943D01*
X183682489Y-34361907D01*
X183401532Y-34310419D01*
X183380639Y-34307882D01*
X183090280Y-34290319D01*
X183079715Y-34290000D01*
X173194238Y-34290000D01*
X173163819Y-34288672D01*
X172988880Y-34273366D01*
X172928973Y-34262803D01*
X172774131Y-34221314D01*
X172716962Y-34200506D01*
X172571673Y-34132756D01*
X172518989Y-34102339D01*
X172387667Y-34010386D01*
X172341066Y-33971282D01*
X172227717Y-33857933D01*
X172188613Y-33811332D01*
X172096660Y-33680010D01*
X172066243Y-33627326D01*
X171998493Y-33482037D01*
X171977685Y-33424868D01*
X171936196Y-33270026D01*
X171925633Y-33210117D01*
X171911661Y-33050416D01*
X171911661Y-32989582D01*
X171925633Y-32829882D01*
X171936196Y-32769973D01*
X171977685Y-32615131D01*
X171998493Y-32557962D01*
X172066243Y-32412673D01*
X172096660Y-32359989D01*
X172188613Y-32228667D01*
X172227717Y-32182066D01*
X172341066Y-32068717D01*
X172387667Y-32029613D01*
X172518989Y-31937660D01*
X172571673Y-31907243D01*
X172716962Y-31839493D01*
X172774131Y-31818685D01*
X172928973Y-31777196D01*
X172988882Y-31766633D01*
X173163821Y-31751328D01*
X173194238Y-31750000D01*
X183027700Y-31750000D01*
X183031502Y-31750021D01*
X183081158Y-31750562D01*
X183088780Y-31750728D01*
X183138459Y-31752355D01*
X183142258Y-31752500D01*
X183413149Y-31764327D01*
X183420753Y-31764742D01*
X183519947Y-31771244D01*
X183535113Y-31772571D01*
X183633922Y-31783392D01*
X183641482Y-31784304D01*
X183853412Y-31812205D01*
X183860952Y-31813281D01*
X183959178Y-31828400D01*
X183974172Y-31831044D01*
X184071662Y-31850436D01*
X184079112Y-31852003D01*
X184287852Y-31898279D01*
X184295267Y-31900007D01*
X184391758Y-31923618D01*
X184406468Y-31927560D01*
X184501912Y-31955380D01*
X184509195Y-31957590D01*
X184713067Y-32021870D01*
X184720303Y-32024238D01*
X184814417Y-32056185D01*
X184828727Y-32061393D01*
X184921383Y-32097425D01*
X184928448Y-32100262D01*
X185125914Y-32182055D01*
X185132915Y-32185045D01*
X185223914Y-32225085D01*
X185237716Y-32231521D01*
X185326872Y-32275488D01*
X185333665Y-32278930D01*
X185523246Y-32377621D01*
X185529959Y-32381209D01*
X185617107Y-32429020D01*
X185630292Y-32436632D01*
X185715293Y-32488211D01*
X185721761Y-32492234D01*
X185902015Y-32607069D01*
X185908390Y-32611229D01*
X185991048Y-32666459D01*
X186003523Y-32675193D01*
X186083683Y-32733969D01*
X186089773Y-32738538D01*
X186259355Y-32868663D01*
X186265344Y-32873363D01*
X186342860Y-32935576D01*
X186354525Y-32945364D01*
X186429268Y-33010912D01*
X186434937Y-33015995D01*
X186592540Y-33160412D01*
X186598096Y-33165614D01*
X186669889Y-33234340D01*
X186680659Y-33245110D01*
X186749385Y-33316903D01*
X186754587Y-33322459D01*
X186899004Y-33480062D01*
X186904087Y-33485731D01*
X186969635Y-33560474D01*
X186979423Y-33572139D01*
X187041636Y-33649655D01*
X187046336Y-33655644D01*
X187176461Y-33825226D01*
X187181030Y-33831316D01*
X187239806Y-33911476D01*
X187248540Y-33923951D01*
X187303770Y-34006609D01*
X187307930Y-34012984D01*
X187422765Y-34193238D01*
X187426788Y-34199706D01*
X187478367Y-34284707D01*
X187485979Y-34297892D01*
X187533790Y-34385040D01*
X187537378Y-34391753D01*
X187636069Y-34581334D01*
X187639511Y-34588127D01*
X187683478Y-34677283D01*
X187689914Y-34691085D01*
X187729954Y-34782084D01*
X187732944Y-34789085D01*
X187814737Y-34986551D01*
X187817574Y-34993616D01*
X187853606Y-35086272D01*
X187858814Y-35100582D01*
X187890761Y-35194696D01*
X187893129Y-35201932D01*
X187957409Y-35405804D01*
X187959619Y-35413087D01*
X187987439Y-35508531D01*
X187991381Y-35523241D01*
X188014992Y-35619732D01*
X188016720Y-35627147D01*
X188062996Y-35835887D01*
X188064563Y-35843337D01*
X188083955Y-35940827D01*
X188086599Y-35955821D01*
X188101718Y-36054047D01*
X188102794Y-36061587D01*
X188130695Y-36273517D01*
X188131607Y-36281077D01*
X188142428Y-36379886D01*
X188143755Y-36395052D01*
X188150257Y-36494246D01*
X188150672Y-36501850D01*
X188162499Y-36772741D01*
X188162644Y-36776540D01*
X188164271Y-36826219D01*
X188164437Y-36833834D01*
X188164979Y-36883491D01*
X188165000Y-36887300D01*
X188165000Y-155517700D01*
X188164979Y-155521509D01*
X188164437Y-155571165D01*
X188164271Y-155578780D01*
X188162644Y-155628459D01*
X188162499Y-155632258D01*
X188150672Y-155903149D01*
X188150257Y-155910753D01*
X188143755Y-156009947D01*
X188142428Y-156025113D01*
X188131607Y-156123922D01*
X188130695Y-156131482D01*
X188102794Y-156343412D01*
X188101718Y-156350952D01*
X188086599Y-156449178D01*
X188083955Y-156464172D01*
X188064563Y-156561662D01*
X188062996Y-156569112D01*
X188016720Y-156777852D01*
X188014992Y-156785267D01*
X187991381Y-156881758D01*
X187987439Y-156896468D01*
X187959619Y-156991912D01*
X187957409Y-156999195D01*
X187893129Y-157203067D01*
X187890761Y-157210303D01*
X187858814Y-157304417D01*
X187853606Y-157318727D01*
X187817574Y-157411383D01*
X187814737Y-157418448D01*
X187732944Y-157615914D01*
X187729954Y-157622915D01*
X187689914Y-157713914D01*
X187683478Y-157727716D01*
X187639511Y-157816872D01*
X187636069Y-157823665D01*
X187537378Y-158013246D01*
X187533790Y-158019959D01*
X187485979Y-158107107D01*
X187478367Y-158120292D01*
X187426788Y-158205293D01*
X187422765Y-158211761D01*
X187307930Y-158392015D01*
X187303770Y-158398390D01*
X187248540Y-158481048D01*
X187239806Y-158493523D01*
X187181030Y-158573683D01*
X187176461Y-158579773D01*
X187046336Y-158749355D01*
X187041636Y-158755344D01*
X186979423Y-158832860D01*
X186969635Y-158844525D01*
X186904087Y-158919268D01*
X186899004Y-158924937D01*
X186754587Y-159082540D01*
X186749385Y-159088096D01*
X186680659Y-159159889D01*
X186669889Y-159170659D01*
X186598096Y-159239385D01*
X186592540Y-159244587D01*
X186434937Y-159389004D01*
X186429268Y-159394087D01*
X186354525Y-159459635D01*
X186342860Y-159469423D01*
X186265344Y-159531636D01*
X186259355Y-159536336D01*
X186089773Y-159666461D01*
X186083683Y-159671030D01*
X186003523Y-159729806D01*
X185991048Y-159738540D01*
X185908390Y-159793770D01*
X185902015Y-159797930D01*
X185721761Y-159912765D01*
X185715293Y-159916788D01*
X185630292Y-159968367D01*
X185617107Y-159975979D01*
X185529959Y-160023790D01*
X185523246Y-160027378D01*
X185333665Y-160126069D01*
X185326872Y-160129511D01*
X185237716Y-160173478D01*
X185223914Y-160179914D01*
X185132915Y-160219954D01*
X185125914Y-160222944D01*
X184928448Y-160304737D01*
X184921383Y-160307574D01*
X184828727Y-160343606D01*
X184814417Y-160348814D01*
X184720303Y-160380761D01*
X184713067Y-160383129D01*
X184509195Y-160447409D01*
X184501912Y-160449619D01*
X184406468Y-160477439D01*
X184391758Y-160481381D01*
X184295267Y-160504992D01*
X184287852Y-160506720D01*
X184079112Y-160552996D01*
X184071662Y-160554563D01*
X183974172Y-160573955D01*
X183959178Y-160576599D01*
X183860952Y-160591718D01*
X183853412Y-160592794D01*
X183641482Y-160620695D01*
X183633922Y-160621607D01*
X183535113Y-160632428D01*
X183519947Y-160633755D01*
X183420753Y-160640257D01*
X183413149Y-160640672D01*
X183142258Y-160652499D01*
X183138459Y-160652644D01*
X183088780Y-160654271D01*
X183081165Y-160654437D01*
X183031509Y-160654979D01*
X183027700Y-160655000D01*
X112022300Y-160655000D01*
X112018491Y-160654979D01*
X111968834Y-160654437D01*
X111961219Y-160654271D01*
X111911540Y-160652644D01*
X111907741Y-160652499D01*
X111636850Y-160640672D01*
X111629246Y-160640257D01*
X111530052Y-160633755D01*
X111514886Y-160632428D01*
X111416077Y-160621607D01*
X111408517Y-160620695D01*
X111196587Y-160592794D01*
X111189047Y-160591718D01*
X111090821Y-160576599D01*
X111075827Y-160573955D01*
X110978337Y-160554563D01*
X110970887Y-160552996D01*
X110762147Y-160506720D01*
X110754732Y-160504992D01*
X110658241Y-160481381D01*
X110643531Y-160477439D01*
X110548087Y-160449619D01*
X110540804Y-160447409D01*
X110336932Y-160383129D01*
X110329696Y-160380761D01*
X110235582Y-160348814D01*
X110221272Y-160343606D01*
X110128616Y-160307574D01*
X110121551Y-160304737D01*
X109924085Y-160222944D01*
X109917084Y-160219954D01*
X109826085Y-160179914D01*
X109812283Y-160173478D01*
X109723127Y-160129511D01*
X109716334Y-160126069D01*
X109526753Y-160027378D01*
X109520040Y-160023790D01*
X109432892Y-159975979D01*
X109419707Y-159968367D01*
X109334706Y-159916788D01*
X109328238Y-159912765D01*
X109147984Y-159797930D01*
X109141609Y-159793770D01*
X109058951Y-159738540D01*
X109046476Y-159729806D01*
X108966316Y-159671030D01*
X108960226Y-159666461D01*
X108790644Y-159536336D01*
X108784655Y-159531636D01*
X108707139Y-159469423D01*
X108695474Y-159459635D01*
X108620731Y-159394087D01*
X108615062Y-159389004D01*
X108457459Y-159244587D01*
X108451903Y-159239385D01*
X108380110Y-159170659D01*
X108369340Y-159159889D01*
X108300614Y-159088096D01*
X108295412Y-159082540D01*
X108150995Y-158924937D01*
X108145912Y-158919268D01*
X108080364Y-158844525D01*
X108070576Y-158832860D01*
X108008363Y-158755344D01*
X108003663Y-158749355D01*
X107873538Y-158579773D01*
X107868969Y-158573683D01*
X107810193Y-158493523D01*
X107801459Y-158481048D01*
X107746229Y-158398390D01*
X107742069Y-158392015D01*
X107627234Y-158211761D01*
X107623211Y-158205293D01*
X107571632Y-158120292D01*
X107564020Y-158107107D01*
X107516209Y-158019959D01*
X107512621Y-158013246D01*
X107413930Y-157823665D01*
X107410488Y-157816872D01*
X107366521Y-157727716D01*
X107360085Y-157713914D01*
X107320045Y-157622915D01*
X107317055Y-157615914D01*
X107235262Y-157418448D01*
X107232425Y-157411383D01*
X107196393Y-157318727D01*
X107191185Y-157304417D01*
X107159238Y-157210303D01*
X107156870Y-157203067D01*
X107092590Y-156999195D01*
X107090380Y-156991912D01*
X107062560Y-156896468D01*
X107058618Y-156881758D01*
X107035007Y-156785267D01*
X107033279Y-156777852D01*
X106987003Y-156569112D01*
X106985436Y-156561662D01*
X106966044Y-156464172D01*
X106963400Y-156449178D01*
X106948281Y-156350952D01*
X106947205Y-156343412D01*
X106919304Y-156131482D01*
X106918392Y-156123922D01*
X106907571Y-156025113D01*
X106906244Y-156009947D01*
X106899742Y-155910753D01*
X106899327Y-155903149D01*
X106887500Y-155632258D01*
X106887355Y-155628459D01*
X106885728Y-155578780D01*
X106885562Y-155571158D01*
X106885021Y-155521502D01*
X106885000Y-155517700D01*
X106885000Y-36887300D01*
X106885021Y-36883498D01*
X106885562Y-36833841D01*
X106885728Y-36826219D01*
X106887355Y-36776540D01*
X106887500Y-36772741D01*
X106899327Y-36501850D01*
X106899742Y-36494246D01*
X106906244Y-36395052D01*
X106907571Y-36379886D01*
X106918392Y-36281077D01*
X106919304Y-36273517D01*
X106947205Y-36061587D01*
X106948281Y-36054047D01*
X106963400Y-35955821D01*
X106966044Y-35940827D01*
X106985436Y-35843337D01*
X106987003Y-35835887D01*
X107033279Y-35627147D01*
X107035007Y-35619732D01*
X107058618Y-35523241D01*
X107062560Y-35508531D01*
X107090380Y-35413087D01*
X107092590Y-35405804D01*
X107156870Y-35201932D01*
X107159238Y-35194696D01*
X107191185Y-35100582D01*
X107196393Y-35086272D01*
X107232425Y-34993616D01*
X107235262Y-34986551D01*
X107317055Y-34789085D01*
X107320045Y-34782084D01*
X107360085Y-34691085D01*
X107366521Y-34677283D01*
X107410488Y-34588127D01*
X107413930Y-34581334D01*
X107512621Y-34391753D01*
X107516209Y-34385040D01*
X107564020Y-34297892D01*
X107571632Y-34284707D01*
X107623211Y-34199706D01*
X107627234Y-34193238D01*
X107742069Y-34012984D01*
X107746229Y-34006609D01*
X107801459Y-33923951D01*
X107810193Y-33911476D01*
X107868969Y-33831316D01*
X107873538Y-33825226D01*
X108003663Y-33655644D01*
X108008363Y-33649655D01*
X108070576Y-33572139D01*
X108080364Y-33560474D01*
X108145912Y-33485731D01*
X108150995Y-33480062D01*
X108295412Y-33322459D01*
X108300614Y-33316903D01*
X108369340Y-33245110D01*
X108380110Y-33234340D01*
X108451903Y-33165614D01*
X108457459Y-33160412D01*
X108615062Y-33015995D01*
X108620731Y-33010912D01*
X108695474Y-32945364D01*
X108707139Y-32935576D01*
X108784655Y-32873363D01*
X108790644Y-32868663D01*
X108960226Y-32738538D01*
X108966316Y-32733969D01*
X109046476Y-32675193D01*
X109058951Y-32666459D01*
X109141609Y-32611229D01*
X109147984Y-32607069D01*
X109328238Y-32492234D01*
X109334706Y-32488211D01*
X109419707Y-32436632D01*
X109432892Y-32429020D01*
X109520040Y-32381209D01*
X109526753Y-32377621D01*
X109716334Y-32278930D01*
X109723127Y-32275488D01*
X109812283Y-32231521D01*
X109826085Y-32225085D01*
X109917084Y-32185045D01*
X109924085Y-32182055D01*
X110121551Y-32100262D01*
X110128616Y-32097425D01*
X110221272Y-32061393D01*
X110235582Y-32056185D01*
X110329696Y-32024238D01*
X110336932Y-32021870D01*
X110540804Y-31957590D01*
X110548087Y-31955380D01*
X110643531Y-31927560D01*
X110658241Y-31923618D01*
X110754732Y-31900007D01*
X110762147Y-31898279D01*
X110970887Y-31852003D01*
X110978337Y-31850436D01*
X111075827Y-31831044D01*
X111090821Y-31828400D01*
X111189047Y-31813281D01*
X111196587Y-31812205D01*
X111408517Y-31784304D01*
X111416077Y-31783392D01*
X111514886Y-31772571D01*
X111530052Y-31771244D01*
X111629246Y-31764742D01*
X111636850Y-31764327D01*
X111907741Y-31752500D01*
X111911540Y-31752355D01*
X111961219Y-31750728D01*
X111968841Y-31750562D01*
X112018498Y-31750021D01*
X112022300Y-31750000D01*
X159955762Y-31750000D01*
X159986179Y-31751328D01*
G37*
M02*
