%TF.GenerationSoftware,KiCad,Pcbnew,(7.0.0)*%
%TF.CreationDate,2023-02-27T14:02:19+01:00*%
%TF.ProjectId,MPad2040_Plate,4d506164-3230-4343-905f-506c6174652e,rev?*%
%TF.SameCoordinates,Original*%
%TF.FileFunction,Copper,L2,Bot*%
%TF.FilePolarity,Positive*%
%FSLAX46Y46*%
G04 Gerber Fmt 4.6, Leading zero omitted, Abs format (unit mm)*
G04 Created by KiCad (PCBNEW (7.0.0)) date 2023-02-27 14:02:19*
%MOMM*%
%LPD*%
G01*
G04 APERTURE LIST*
G04 APERTURE END LIST*
%TA.AperFunction,NonConductor*%
G36*
X180169696Y-26829805D02*
G01*
X180392274Y-26839013D01*
X180586950Y-26847499D01*
X180596839Y-26848329D01*
X180817742Y-26875865D01*
X180818088Y-26875910D01*
X181015186Y-26901860D01*
X181024394Y-26903429D01*
X181239832Y-26948603D01*
X181241090Y-26948874D01*
X181437207Y-26992354D01*
X181445747Y-26994569D01*
X181655799Y-27057105D01*
X181657514Y-27057630D01*
X181850028Y-27118331D01*
X181857793Y-27121067D01*
X182061515Y-27200561D01*
X182063638Y-27201414D01*
X182250603Y-27278859D01*
X182257610Y-27282020D01*
X182453719Y-27377893D01*
X182456455Y-27379273D01*
X182636118Y-27472801D01*
X182642271Y-27476232D01*
X182829686Y-27587908D01*
X182832778Y-27589814D01*
X183003720Y-27698717D01*
X183009092Y-27702342D01*
X183186568Y-27829059D01*
X183189900Y-27831526D01*
X183350796Y-27954987D01*
X183355448Y-27958738D01*
X183355453Y-27958743D01*
X183521711Y-28099557D01*
X183525315Y-28102732D01*
X183674841Y-28239747D01*
X183678748Y-28243488D01*
X183832832Y-28397572D01*
X183836557Y-28401463D01*
X183973566Y-28550982D01*
X183976750Y-28554596D01*
X184116112Y-28719142D01*
X184117594Y-28720891D01*
X184121347Y-28725546D01*
X184244750Y-28886369D01*
X184247292Y-28889802D01*
X184373950Y-29067200D01*
X184377613Y-29072628D01*
X184486502Y-29243551D01*
X184488444Y-29246703D01*
X184600063Y-29434025D01*
X184603529Y-29440241D01*
X184697014Y-29619824D01*
X184698426Y-29622621D01*
X184794302Y-29818739D01*
X184797462Y-29825747D01*
X184874829Y-30012529D01*
X184875785Y-30014906D01*
X184955240Y-30218533D01*
X184957984Y-30226320D01*
X185018640Y-30418694D01*
X185019224Y-30420601D01*
X185081740Y-30630591D01*
X185083956Y-30639133D01*
X185127412Y-30835147D01*
X185127712Y-30836539D01*
X185172872Y-31051918D01*
X185174450Y-31061180D01*
X185200357Y-31257969D01*
X185200466Y-31258816D01*
X185227972Y-31479483D01*
X185228806Y-31489412D01*
X185236982Y-31676661D01*
X185237292Y-31684143D01*
X185246529Y-31907483D01*
X185246635Y-31912607D01*
X185246635Y-150651639D01*
X185246529Y-150656763D01*
X185237959Y-150863959D01*
X185237947Y-150864254D01*
X185228735Y-151074849D01*
X185227901Y-151084769D01*
X185201756Y-151294507D01*
X185201647Y-151295353D01*
X185174293Y-151503129D01*
X185172715Y-151512390D01*
X185129002Y-151720873D01*
X185128702Y-151722265D01*
X185083708Y-151925220D01*
X185081492Y-151933764D01*
X185020494Y-152138651D01*
X185019910Y-152140556D01*
X184957639Y-152338055D01*
X184954895Y-152345843D01*
X184877036Y-152545381D01*
X184876080Y-152547758D01*
X184796999Y-152738678D01*
X184793839Y-152745686D01*
X184699671Y-152938311D01*
X184698259Y-152941108D01*
X184602942Y-153124211D01*
X184599476Y-153130427D01*
X184489650Y-153314740D01*
X184487708Y-153317892D01*
X184376879Y-153491859D01*
X184373216Y-153497287D01*
X184248506Y-153671956D01*
X184245964Y-153675389D01*
X184120432Y-153838986D01*
X184116679Y-153843641D01*
X183977938Y-154007453D01*
X183974738Y-154011085D01*
X183835461Y-154163080D01*
X183831720Y-154166988D01*
X183679914Y-154318795D01*
X183676006Y-154322536D01*
X183524008Y-154461818D01*
X183520375Y-154465018D01*
X183356580Y-154603746D01*
X183351926Y-154607500D01*
X183188302Y-154733054D01*
X183184869Y-154735595D01*
X183010218Y-154860295D01*
X183004790Y-154863958D01*
X182830806Y-154974799D01*
X182827655Y-154976741D01*
X182643370Y-155086553D01*
X182637152Y-155090020D01*
X182454018Y-155185354D01*
X182451222Y-155186765D01*
X182258636Y-155280915D01*
X182251629Y-155284076D01*
X182060640Y-155363188D01*
X182058262Y-155364144D01*
X181858787Y-155441981D01*
X181850999Y-155444725D01*
X181653474Y-155507006D01*
X181651568Y-155507590D01*
X181446682Y-155568587D01*
X181438140Y-155570802D01*
X181235272Y-155615779D01*
X181233880Y-155616080D01*
X181025334Y-155659809D01*
X181016072Y-155661387D01*
X180808237Y-155688750D01*
X180807390Y-155688859D01*
X180597717Y-155714996D01*
X180587788Y-155715830D01*
X180369340Y-155725370D01*
X180369055Y-155725382D01*
X180170541Y-155733594D01*
X180165416Y-155733700D01*
X109049695Y-155733700D01*
X109044572Y-155733594D01*
X108837407Y-155725027D01*
X108837115Y-155724936D01*
X108837112Y-155725014D01*
X108830967Y-155724746D01*
X108626479Y-155715802D01*
X108616561Y-155714968D01*
X108406868Y-155688831D01*
X108406020Y-155688722D01*
X108198199Y-155661363D01*
X108188938Y-155659785D01*
X107980455Y-155616072D01*
X107979063Y-155615772D01*
X107776105Y-155570779D01*
X107767562Y-155568563D01*
X107562712Y-155507578D01*
X107560807Y-155506994D01*
X107363261Y-155444710D01*
X107355472Y-155441966D01*
X107155966Y-155364119D01*
X107153643Y-155363185D01*
X106962653Y-155284076D01*
X106962651Y-155284075D01*
X106955644Y-155280915D01*
X106763014Y-155186745D01*
X106760217Y-155185333D01*
X106577103Y-155090010D01*
X106570887Y-155086544D01*
X106386632Y-154976754D01*
X106383481Y-154974812D01*
X106209441Y-154863938D01*
X106204012Y-154860274D01*
X106029385Y-154735593D01*
X106025952Y-154733052D01*
X105862336Y-154607506D01*
X105857681Y-154603753D01*
X105693870Y-154465013D01*
X105690244Y-154461818D01*
X105538232Y-154322526D01*
X105534335Y-154318795D01*
X105382527Y-154166989D01*
X105378821Y-154163117D01*
X105239444Y-154011015D01*
X105236322Y-154007471D01*
X105097574Y-153843652D01*
X105093831Y-153839011D01*
X104968264Y-153675369D01*
X104965723Y-153671937D01*
X104920712Y-153608896D01*
X104841019Y-153497279D01*
X104837391Y-153491904D01*
X104726533Y-153317892D01*
X104726502Y-153317843D01*
X104724561Y-153314693D01*
X104708364Y-153287512D01*
X104614760Y-153130425D01*
X104611306Y-153124230D01*
X104611296Y-153124211D01*
X104515944Y-152941042D01*
X104514566Y-152938311D01*
X104420393Y-152745678D01*
X104417249Y-152738705D01*
X104338111Y-152547650D01*
X104337216Y-152545423D01*
X104259343Y-152345854D01*
X104256600Y-152338068D01*
X104246842Y-152307120D01*
X104194275Y-152140401D01*
X104193776Y-152138772D01*
X104139500Y-151956459D01*
X104856635Y-151956459D01*
X104857051Y-151960024D01*
X104857052Y-151960029D01*
X104896793Y-152300036D01*
X104896795Y-152300049D01*
X104897212Y-152303614D01*
X104898039Y-152307104D01*
X104898042Y-152307120D01*
X104976984Y-152640203D01*
X104976986Y-152640212D01*
X104977816Y-152643711D01*
X104979046Y-152647092D01*
X104979049Y-152647100D01*
X105059591Y-152868386D01*
X105097358Y-152972151D01*
X105098978Y-152975378D01*
X105098983Y-152975388D01*
X105222460Y-153221250D01*
X105254222Y-153284493D01*
X105256202Y-153287504D01*
X105256207Y-153287512D01*
X105390609Y-153491859D01*
X105446286Y-153576511D01*
X105448600Y-153579269D01*
X105448601Y-153579270D01*
X105668633Y-153841495D01*
X105668638Y-153841500D01*
X105670952Y-153844258D01*
X105925182Y-154084112D01*
X105928066Y-154086259D01*
X105928072Y-154086264D01*
X105939087Y-154094464D01*
X106205539Y-154292830D01*
X106208666Y-154294635D01*
X106208670Y-154294638D01*
X106256974Y-154322526D01*
X106508231Y-154467589D01*
X106829164Y-154606026D01*
X107163999Y-154706269D01*
X107508208Y-154766962D01*
X107769830Y-154782200D01*
X107942650Y-154782200D01*
X107944440Y-154782200D01*
X108206062Y-154766962D01*
X108550271Y-154706269D01*
X108885106Y-154606026D01*
X109206039Y-154467589D01*
X109508731Y-154292830D01*
X109789088Y-154084112D01*
X110043318Y-153844258D01*
X110267984Y-153576511D01*
X110460048Y-153284493D01*
X110616912Y-152972151D01*
X110736454Y-152643711D01*
X110817058Y-152303614D01*
X110857635Y-151956459D01*
X110857635Y-151606941D01*
X110817058Y-151259786D01*
X110736454Y-150919689D01*
X110705801Y-150835470D01*
X110699384Y-150776875D01*
X110720748Y-150721936D01*
X110765066Y-150683071D01*
X110822323Y-150669060D01*
X111882390Y-150669060D01*
X111944390Y-150685673D01*
X111989777Y-150731060D01*
X112006390Y-150793060D01*
X112006390Y-151638601D01*
X112006349Y-151638700D01*
X112006390Y-151638799D01*
X112006507Y-151639083D01*
X112006890Y-151639241D01*
X112006989Y-151639200D01*
X115305801Y-151639200D01*
X115305900Y-151639241D01*
X115306283Y-151639083D01*
X115306400Y-151638799D01*
X115306441Y-151638700D01*
X115306400Y-151638601D01*
X115306400Y-150793060D01*
X115323013Y-150731060D01*
X115368400Y-150685673D01*
X115430400Y-150669060D01*
X135682450Y-150669060D01*
X135744450Y-150685673D01*
X135789837Y-150731060D01*
X135806450Y-150793060D01*
X135806450Y-151638601D01*
X135806409Y-151638700D01*
X135806450Y-151638799D01*
X135806567Y-151639083D01*
X135806950Y-151639241D01*
X135807049Y-151639200D01*
X139105951Y-151639200D01*
X139106050Y-151639241D01*
X139106433Y-151639083D01*
X139106550Y-151638799D01*
X139106591Y-151638700D01*
X139106550Y-151638601D01*
X139106550Y-150793060D01*
X139123163Y-150731060D01*
X139168550Y-150685673D01*
X139230550Y-150669060D01*
X142080951Y-150669060D01*
X142081050Y-150669101D01*
X142081433Y-150668943D01*
X142081550Y-150668659D01*
X142081591Y-150668560D01*
X147131209Y-150668560D01*
X147131250Y-150668659D01*
X147131367Y-150668943D01*
X147131750Y-150669101D01*
X147131849Y-150669060D01*
X161130951Y-150669060D01*
X161131050Y-150669101D01*
X161131433Y-150668943D01*
X161131550Y-150668659D01*
X161131591Y-150668560D01*
X166181209Y-150668560D01*
X166181250Y-150668659D01*
X166181367Y-150668943D01*
X166181750Y-150669101D01*
X166181849Y-150669060D01*
X178391947Y-150669060D01*
X178449204Y-150683071D01*
X178493522Y-150721936D01*
X178514886Y-150776875D01*
X178508469Y-150835470D01*
X178479049Y-150916299D01*
X178479045Y-150916312D01*
X178477816Y-150919689D01*
X178476987Y-150923182D01*
X178476984Y-150923196D01*
X178398042Y-151256279D01*
X178398038Y-151256298D01*
X178397212Y-151259786D01*
X178396795Y-151263347D01*
X178396793Y-151263363D01*
X178367685Y-151512402D01*
X178356635Y-151606941D01*
X178356635Y-151956459D01*
X178357051Y-151960024D01*
X178357052Y-151960029D01*
X178396793Y-152300036D01*
X178396795Y-152300049D01*
X178397212Y-152303614D01*
X178398039Y-152307104D01*
X178398042Y-152307120D01*
X178476984Y-152640203D01*
X178476986Y-152640212D01*
X178477816Y-152643711D01*
X178479046Y-152647092D01*
X178479049Y-152647100D01*
X178559591Y-152868386D01*
X178597358Y-152972151D01*
X178598978Y-152975378D01*
X178598983Y-152975388D01*
X178722460Y-153221250D01*
X178754222Y-153284493D01*
X178756202Y-153287504D01*
X178756207Y-153287512D01*
X178890609Y-153491859D01*
X178946286Y-153576511D01*
X178948600Y-153579269D01*
X178948601Y-153579270D01*
X179168633Y-153841495D01*
X179168638Y-153841500D01*
X179170952Y-153844258D01*
X179425182Y-154084112D01*
X179428066Y-154086259D01*
X179428072Y-154086264D01*
X179439087Y-154094464D01*
X179705539Y-154292830D01*
X179708666Y-154294635D01*
X179708670Y-154294638D01*
X179756974Y-154322526D01*
X180008231Y-154467589D01*
X180329164Y-154606026D01*
X180663999Y-154706269D01*
X181008208Y-154766962D01*
X181269830Y-154782200D01*
X181442650Y-154782200D01*
X181444440Y-154782200D01*
X181706062Y-154766962D01*
X182050271Y-154706269D01*
X182385106Y-154606026D01*
X182706039Y-154467589D01*
X183008731Y-154292830D01*
X183289088Y-154084112D01*
X183543318Y-153844258D01*
X183767984Y-153576511D01*
X183960048Y-153284493D01*
X184116912Y-152972151D01*
X184236454Y-152643711D01*
X184317058Y-152303614D01*
X184357635Y-151956459D01*
X184357635Y-151606941D01*
X184317058Y-151259786D01*
X184236454Y-150919689D01*
X184116912Y-150591249D01*
X183960048Y-150278907D01*
X183767984Y-149986889D01*
X183543318Y-149719142D01*
X183289088Y-149479288D01*
X183286204Y-149477141D01*
X183286197Y-149477135D01*
X183011631Y-149272729D01*
X183008731Y-149270570D01*
X183005608Y-149268767D01*
X183005599Y-149268761D01*
X182709164Y-149097615D01*
X182709161Y-149097613D01*
X182706039Y-149095811D01*
X182702738Y-149094387D01*
X182702728Y-149094382D01*
X182459140Y-148989309D01*
X182385106Y-148957374D01*
X182381665Y-148956343D01*
X182381660Y-148956342D01*
X182053726Y-148858165D01*
X182053720Y-148858163D01*
X182050271Y-148857131D01*
X182046723Y-148856505D01*
X182046713Y-148856503D01*
X181709627Y-148797066D01*
X181709616Y-148797064D01*
X181706062Y-148796438D01*
X181702454Y-148796227D01*
X181702447Y-148796227D01*
X181446230Y-148781304D01*
X181446221Y-148781303D01*
X181444440Y-148781200D01*
X181269830Y-148781200D01*
X181268049Y-148781303D01*
X181268039Y-148781304D01*
X181011822Y-148796227D01*
X181011813Y-148796228D01*
X181008208Y-148796438D01*
X181004655Y-148797064D01*
X181004642Y-148797066D01*
X180667556Y-148856503D01*
X180667542Y-148856506D01*
X180663999Y-148857131D01*
X180660556Y-148858161D01*
X180660538Y-148858166D01*
X180341113Y-148953796D01*
X180284018Y-148957121D01*
X180231502Y-148934468D01*
X180194740Y-148890656D01*
X180181550Y-148835005D01*
X180181550Y-147817890D01*
X180198163Y-147755890D01*
X180243550Y-147710503D01*
X180305550Y-147693890D01*
X181151051Y-147693890D01*
X181151150Y-147693931D01*
X181151533Y-147693773D01*
X181151650Y-147693489D01*
X181151691Y-147693390D01*
X181151650Y-147693291D01*
X181151650Y-144394449D01*
X181151691Y-144394350D01*
X181151533Y-144393967D01*
X181151249Y-144393850D01*
X181151150Y-144393809D01*
X181151051Y-144393850D01*
X180305550Y-144393850D01*
X180243550Y-144377237D01*
X180198163Y-144331850D01*
X180181550Y-144269850D01*
X180181550Y-124017800D01*
X180198163Y-123955800D01*
X180243550Y-123910413D01*
X180305550Y-123893800D01*
X181151051Y-123893800D01*
X181151150Y-123893841D01*
X181151533Y-123893683D01*
X181151650Y-123893399D01*
X181151691Y-123893300D01*
X181151650Y-123893201D01*
X181151650Y-120594399D01*
X181151691Y-120594300D01*
X181151533Y-120593917D01*
X181151249Y-120593800D01*
X181151150Y-120593759D01*
X181151051Y-120593800D01*
X180305550Y-120593800D01*
X180243550Y-120577187D01*
X180198163Y-120531800D01*
X180181550Y-120469800D01*
X180181550Y-117631225D01*
X180181550Y-117619299D01*
X180181591Y-117619200D01*
X180181433Y-117618817D01*
X180181149Y-117618700D01*
X180181050Y-117618659D01*
X180180951Y-117618700D01*
X166181849Y-117618700D01*
X166181750Y-117618659D01*
X166181651Y-117618700D01*
X166181367Y-117618817D01*
X166181209Y-117619200D01*
X166181250Y-117619299D01*
X166181250Y-150668461D01*
X166181209Y-150668560D01*
X161131591Y-150668560D01*
X161131550Y-150668461D01*
X161131550Y-136669199D01*
X161131591Y-136669100D01*
X161131433Y-136668717D01*
X161131149Y-136668600D01*
X161131050Y-136668559D01*
X161130951Y-136668600D01*
X147131849Y-136668600D01*
X147131750Y-136668559D01*
X147131651Y-136668600D01*
X147131367Y-136668717D01*
X147131209Y-136669100D01*
X147131250Y-136669199D01*
X147131250Y-150668461D01*
X147131209Y-150668560D01*
X142081591Y-150668560D01*
X142081550Y-150668461D01*
X142081550Y-136669199D01*
X142081591Y-136669100D01*
X142081433Y-136668717D01*
X142081149Y-136668600D01*
X142081050Y-136668559D01*
X142080951Y-136668600D01*
X109031799Y-136668600D01*
X109031700Y-136668559D01*
X109031601Y-136668600D01*
X109031317Y-136668717D01*
X109031159Y-136669100D01*
X109031200Y-136669199D01*
X109031200Y-136681125D01*
X109031200Y-148834550D01*
X109018010Y-148890201D01*
X108981248Y-148934013D01*
X108928732Y-148956666D01*
X108871637Y-148953341D01*
X108553731Y-148858166D01*
X108553717Y-148858162D01*
X108550271Y-148857131D01*
X108546723Y-148856505D01*
X108546713Y-148856503D01*
X108209627Y-148797066D01*
X108209616Y-148797064D01*
X108206062Y-148796438D01*
X108202454Y-148796227D01*
X108202447Y-148796227D01*
X107946230Y-148781304D01*
X107946221Y-148781303D01*
X107944440Y-148781200D01*
X107769830Y-148781200D01*
X107768049Y-148781303D01*
X107768039Y-148781304D01*
X107511822Y-148796227D01*
X107511813Y-148796228D01*
X107508208Y-148796438D01*
X107504655Y-148797064D01*
X107504642Y-148797066D01*
X107167556Y-148856503D01*
X107167542Y-148856506D01*
X107163999Y-148857131D01*
X107160553Y-148858162D01*
X107160543Y-148858165D01*
X106832609Y-148956342D01*
X106832599Y-148956345D01*
X106829164Y-148957374D01*
X106825863Y-148958797D01*
X106825860Y-148958799D01*
X106511541Y-149094382D01*
X106511524Y-149094390D01*
X106508231Y-149095811D01*
X106505115Y-149097609D01*
X106505105Y-149097615D01*
X106208670Y-149268761D01*
X106208653Y-149268771D01*
X106205539Y-149270570D01*
X106202646Y-149272723D01*
X106202638Y-149272729D01*
X105928072Y-149477135D01*
X105928056Y-149477148D01*
X105925182Y-149479288D01*
X105922565Y-149481756D01*
X105922559Y-149481762D01*
X105673580Y-149716662D01*
X105673574Y-149716667D01*
X105670952Y-149719142D01*
X105668645Y-149721890D01*
X105668633Y-149721904D01*
X105448601Y-149984129D01*
X105448593Y-149984138D01*
X105446286Y-149986889D01*
X105444306Y-149989898D01*
X105444301Y-149989906D01*
X105256207Y-150275887D01*
X105256197Y-150275903D01*
X105254222Y-150278907D01*
X105252602Y-150282131D01*
X105252600Y-150282136D01*
X105098983Y-150588011D01*
X105098975Y-150588027D01*
X105097358Y-150591249D01*
X105096120Y-150594647D01*
X105096120Y-150594650D01*
X104979049Y-150916299D01*
X104979045Y-150916312D01*
X104977816Y-150919689D01*
X104976987Y-150923182D01*
X104976984Y-150923196D01*
X104898042Y-151256279D01*
X104898038Y-151256298D01*
X104897212Y-151259786D01*
X104896795Y-151263347D01*
X104896793Y-151263363D01*
X104867685Y-151512402D01*
X104856635Y-151606941D01*
X104856635Y-151956459D01*
X104139500Y-151956459D01*
X104132743Y-151933764D01*
X104130527Y-151925222D01*
X104130527Y-151925220D01*
X104085483Y-151722044D01*
X104085281Y-151721105D01*
X104041513Y-151512368D01*
X104039947Y-151503176D01*
X104012537Y-151294984D01*
X104012514Y-151294803D01*
X103986334Y-151084777D01*
X103985501Y-151074857D01*
X103978879Y-150923196D01*
X103975936Y-150855771D01*
X103975096Y-150835470D01*
X103967740Y-150657630D01*
X103967635Y-150652507D01*
X103967635Y-131618600D01*
X109031159Y-131618600D01*
X109031200Y-131618699D01*
X109031317Y-131618983D01*
X109031700Y-131619141D01*
X109031799Y-131619100D01*
X123031151Y-131619100D01*
X123031250Y-131619141D01*
X123031633Y-131618983D01*
X123031750Y-131618699D01*
X123031791Y-131618600D01*
X128081209Y-131618600D01*
X128081250Y-131618699D01*
X128081367Y-131618983D01*
X128081750Y-131619141D01*
X128081849Y-131619100D01*
X142080951Y-131619100D01*
X142081050Y-131619141D01*
X142081433Y-131618983D01*
X142081550Y-131618699D01*
X142081591Y-131618600D01*
X147131209Y-131618600D01*
X147131250Y-131618699D01*
X147131367Y-131618983D01*
X147131750Y-131619141D01*
X147131849Y-131619100D01*
X161130951Y-131619100D01*
X161131050Y-131619141D01*
X161131433Y-131618983D01*
X161131550Y-131618699D01*
X161131591Y-131618600D01*
X161131550Y-131618501D01*
X161131550Y-117619299D01*
X161131591Y-117619200D01*
X161131433Y-117618817D01*
X161131149Y-117618700D01*
X161131050Y-117618659D01*
X161130951Y-117618700D01*
X147131849Y-117618700D01*
X147131750Y-117618659D01*
X147131651Y-117618700D01*
X147131367Y-117618817D01*
X147131209Y-117619200D01*
X147131250Y-117619299D01*
X147131250Y-131618501D01*
X147131209Y-131618600D01*
X142081591Y-131618600D01*
X142081550Y-131618501D01*
X142081550Y-117619299D01*
X142081591Y-117619200D01*
X142081433Y-117618817D01*
X142081149Y-117618700D01*
X142081050Y-117618659D01*
X142080951Y-117618700D01*
X128081849Y-117618700D01*
X128081750Y-117618659D01*
X128081651Y-117618700D01*
X128081367Y-117618817D01*
X128081209Y-117619200D01*
X128081250Y-117619299D01*
X128081250Y-131618501D01*
X128081209Y-131618600D01*
X123031791Y-131618600D01*
X123031750Y-131618501D01*
X123031750Y-117619299D01*
X123031791Y-117619200D01*
X123031633Y-117618817D01*
X123031349Y-117618700D01*
X123031250Y-117618659D01*
X123031151Y-117618700D01*
X109031799Y-117618700D01*
X109031700Y-117618659D01*
X109031601Y-117618700D01*
X109031317Y-117618817D01*
X109031159Y-117619200D01*
X109031200Y-117619299D01*
X109031200Y-131618501D01*
X109031159Y-131618600D01*
X103967635Y-131618600D01*
X103967635Y-112568400D01*
X109031159Y-112568400D01*
X109031200Y-112568499D01*
X109031317Y-112568783D01*
X109031700Y-112568941D01*
X109031799Y-112568900D01*
X123031151Y-112568900D01*
X123031250Y-112568941D01*
X123031633Y-112568783D01*
X123031750Y-112568499D01*
X123031791Y-112568400D01*
X128081209Y-112568400D01*
X128081250Y-112568499D01*
X128081367Y-112568783D01*
X128081750Y-112568941D01*
X128081849Y-112568900D01*
X142080951Y-112568900D01*
X142081050Y-112568941D01*
X142081433Y-112568783D01*
X142081550Y-112568499D01*
X142081591Y-112568400D01*
X147131209Y-112568400D01*
X147131250Y-112568499D01*
X147131367Y-112568783D01*
X147131750Y-112568941D01*
X147131849Y-112568900D01*
X161130951Y-112568900D01*
X161131050Y-112568941D01*
X161131433Y-112568783D01*
X161131550Y-112568499D01*
X161131591Y-112568400D01*
X166181209Y-112568400D01*
X166181250Y-112568499D01*
X166181367Y-112568783D01*
X166181750Y-112568941D01*
X166181849Y-112568900D01*
X180180951Y-112568900D01*
X180181050Y-112568941D01*
X180181433Y-112568783D01*
X180181550Y-112568499D01*
X180181591Y-112568400D01*
X180181550Y-112568301D01*
X180181550Y-109718000D01*
X180198163Y-109656000D01*
X180243550Y-109610613D01*
X180305550Y-109594000D01*
X181151051Y-109594000D01*
X181151150Y-109594041D01*
X181151533Y-109593883D01*
X181151650Y-109593599D01*
X181151691Y-109593500D01*
X181151650Y-109593401D01*
X181151650Y-106294399D01*
X181151691Y-106294300D01*
X181151533Y-106293917D01*
X181151249Y-106293800D01*
X181151150Y-106293759D01*
X181151051Y-106293800D01*
X180305550Y-106293800D01*
X180243550Y-106277187D01*
X180198163Y-106231800D01*
X180181550Y-106169800D01*
X180181550Y-85917800D01*
X180198163Y-85855800D01*
X180243550Y-85810413D01*
X180305550Y-85793800D01*
X181151051Y-85793800D01*
X181151150Y-85793841D01*
X181151533Y-85793683D01*
X181151650Y-85793399D01*
X181151691Y-85793300D01*
X181151650Y-85793201D01*
X181151650Y-82494199D01*
X181151691Y-82494100D01*
X181151533Y-82493717D01*
X181151249Y-82493600D01*
X181151150Y-82493559D01*
X181151051Y-82493600D01*
X180305550Y-82493600D01*
X180243550Y-82476987D01*
X180198163Y-82431600D01*
X180181550Y-82369600D01*
X180181550Y-79531125D01*
X180181550Y-79519199D01*
X180181591Y-79519100D01*
X180181433Y-79518717D01*
X180181149Y-79518600D01*
X180181050Y-79518559D01*
X180180951Y-79518600D01*
X166181849Y-79518600D01*
X166181750Y-79518559D01*
X166181651Y-79518600D01*
X166181367Y-79518717D01*
X166181209Y-79519100D01*
X166181250Y-79519199D01*
X166181250Y-112568301D01*
X166181209Y-112568400D01*
X161131591Y-112568400D01*
X161131550Y-112568301D01*
X161131550Y-98569199D01*
X161131591Y-98569100D01*
X161131433Y-98568717D01*
X161131149Y-98568600D01*
X161131050Y-98568559D01*
X161130951Y-98568600D01*
X147131849Y-98568600D01*
X147131750Y-98568559D01*
X147131651Y-98568600D01*
X147131367Y-98568717D01*
X147131209Y-98569100D01*
X147131250Y-98569199D01*
X147131250Y-112568301D01*
X147131209Y-112568400D01*
X142081591Y-112568400D01*
X142081550Y-112568301D01*
X142081550Y-98569199D01*
X142081591Y-98569100D01*
X142081433Y-98568717D01*
X142081149Y-98568600D01*
X142081050Y-98568559D01*
X142080951Y-98568600D01*
X128081849Y-98568600D01*
X128081750Y-98568559D01*
X128081651Y-98568600D01*
X128081367Y-98568717D01*
X128081209Y-98569100D01*
X128081250Y-98569199D01*
X128081250Y-112568301D01*
X128081209Y-112568400D01*
X123031791Y-112568400D01*
X123031750Y-112568301D01*
X123031750Y-98569199D01*
X123031791Y-98569100D01*
X123031633Y-98568717D01*
X123031349Y-98568600D01*
X123031250Y-98568559D01*
X123031151Y-98568600D01*
X109031799Y-98568600D01*
X109031700Y-98568559D01*
X109031601Y-98568600D01*
X109031317Y-98568717D01*
X109031159Y-98569100D01*
X109031200Y-98569199D01*
X109031200Y-112568301D01*
X109031159Y-112568400D01*
X103967635Y-112568400D01*
X103967635Y-93518400D01*
X109031159Y-93518400D01*
X109031200Y-93518499D01*
X109031317Y-93518783D01*
X109031700Y-93518941D01*
X109031799Y-93518900D01*
X123031151Y-93518900D01*
X123031250Y-93518941D01*
X123031633Y-93518783D01*
X123031750Y-93518499D01*
X123031791Y-93518400D01*
X128081209Y-93518400D01*
X128081250Y-93518499D01*
X128081367Y-93518783D01*
X128081750Y-93518941D01*
X128081849Y-93518900D01*
X142080951Y-93518900D01*
X142081050Y-93518941D01*
X142081433Y-93518783D01*
X142081550Y-93518499D01*
X142081591Y-93518400D01*
X147131209Y-93518400D01*
X147131250Y-93518499D01*
X147131367Y-93518783D01*
X147131750Y-93518941D01*
X147131849Y-93518900D01*
X161130951Y-93518900D01*
X161131050Y-93518941D01*
X161131433Y-93518783D01*
X161131550Y-93518499D01*
X161131591Y-93518400D01*
X161131550Y-93518301D01*
X161131550Y-79519199D01*
X161131591Y-79519100D01*
X161131433Y-79518717D01*
X161131149Y-79518600D01*
X161131050Y-79518559D01*
X161130951Y-79518600D01*
X147131849Y-79518600D01*
X147131750Y-79518559D01*
X147131651Y-79518600D01*
X147131367Y-79518717D01*
X147131209Y-79519100D01*
X147131250Y-79519199D01*
X147131250Y-93518301D01*
X147131209Y-93518400D01*
X142081591Y-93518400D01*
X142081550Y-93518301D01*
X142081550Y-79519199D01*
X142081591Y-79519100D01*
X142081433Y-79518717D01*
X142081149Y-79518600D01*
X142081050Y-79518559D01*
X142080951Y-79518600D01*
X128081849Y-79518600D01*
X128081750Y-79518559D01*
X128081651Y-79518600D01*
X128081367Y-79518717D01*
X128081209Y-79519100D01*
X128081250Y-79519199D01*
X128081250Y-93518301D01*
X128081209Y-93518400D01*
X123031791Y-93518400D01*
X123031750Y-93518301D01*
X123031750Y-79519199D01*
X123031791Y-79519100D01*
X123031633Y-79518717D01*
X123031349Y-79518600D01*
X123031250Y-79518559D01*
X123031151Y-79518600D01*
X109031799Y-79518600D01*
X109031700Y-79518559D01*
X109031601Y-79518600D01*
X109031317Y-79518717D01*
X109031159Y-79519100D01*
X109031200Y-79519199D01*
X109031200Y-93518301D01*
X109031159Y-93518400D01*
X103967635Y-93518400D01*
X103967635Y-74468400D01*
X109031159Y-74468400D01*
X109031200Y-74468499D01*
X109031317Y-74468783D01*
X109031700Y-74468941D01*
X109031799Y-74468900D01*
X123031151Y-74468900D01*
X123031250Y-74468941D01*
X123031633Y-74468783D01*
X123031750Y-74468499D01*
X123031791Y-74468400D01*
X128081209Y-74468400D01*
X128081250Y-74468499D01*
X128081367Y-74468783D01*
X128081750Y-74468941D01*
X128081849Y-74468900D01*
X142080951Y-74468900D01*
X142081050Y-74468941D01*
X142081433Y-74468783D01*
X142081550Y-74468499D01*
X142081591Y-74468400D01*
X147131209Y-74468400D01*
X147131250Y-74468499D01*
X147131367Y-74468783D01*
X147131750Y-74468941D01*
X147131849Y-74468900D01*
X161130951Y-74468900D01*
X161131050Y-74468941D01*
X161131433Y-74468783D01*
X161131550Y-74468499D01*
X161131591Y-74468400D01*
X166181209Y-74468400D01*
X166181250Y-74468499D01*
X166181367Y-74468783D01*
X166181750Y-74468941D01*
X166181849Y-74468900D01*
X180180951Y-74468900D01*
X180181050Y-74468941D01*
X180181433Y-74468783D01*
X180181550Y-74468499D01*
X180181591Y-74468400D01*
X180181550Y-74468301D01*
X180181550Y-60469199D01*
X180181591Y-60469100D01*
X180181433Y-60468717D01*
X180181149Y-60468600D01*
X180181050Y-60468559D01*
X180180951Y-60468600D01*
X166181849Y-60468600D01*
X166181750Y-60468559D01*
X166181651Y-60468600D01*
X166181367Y-60468717D01*
X166181209Y-60469100D01*
X166181250Y-60469199D01*
X166181250Y-74468301D01*
X166181209Y-74468400D01*
X161131591Y-74468400D01*
X161131550Y-74468301D01*
X161131550Y-60469199D01*
X161131591Y-60469100D01*
X161131433Y-60468717D01*
X161131149Y-60468600D01*
X161131050Y-60468559D01*
X161130951Y-60468600D01*
X147131849Y-60468600D01*
X147131750Y-60468559D01*
X147131651Y-60468600D01*
X147131367Y-60468717D01*
X147131209Y-60469100D01*
X147131250Y-60469199D01*
X147131250Y-74468301D01*
X147131209Y-74468400D01*
X142081591Y-74468400D01*
X142081550Y-74468301D01*
X142081550Y-60469199D01*
X142081591Y-60469100D01*
X142081433Y-60468717D01*
X142081149Y-60468600D01*
X142081050Y-60468559D01*
X142080951Y-60468600D01*
X128081849Y-60468600D01*
X128081750Y-60468559D01*
X128081651Y-60468600D01*
X128081367Y-60468717D01*
X128081209Y-60469100D01*
X128081250Y-60469199D01*
X128081250Y-74468301D01*
X128081209Y-74468400D01*
X123031791Y-74468400D01*
X123031750Y-74468301D01*
X123031750Y-60469199D01*
X123031791Y-60469100D01*
X123031633Y-60468717D01*
X123031349Y-60468600D01*
X123031250Y-60468559D01*
X123031151Y-60468600D01*
X109031799Y-60468600D01*
X109031700Y-60468559D01*
X109031601Y-60468600D01*
X109031317Y-60468717D01*
X109031159Y-60469100D01*
X109031200Y-60469199D01*
X109031200Y-74468301D01*
X109031159Y-74468400D01*
X103967635Y-74468400D01*
X103967635Y-31911761D01*
X103967741Y-31906637D01*
X103972735Y-31785886D01*
X103976943Y-31684141D01*
X103977000Y-31684143D01*
X103976955Y-31683871D01*
X103985431Y-31489391D01*
X103986262Y-31479479D01*
X104013784Y-31258689D01*
X104013862Y-31258087D01*
X104039789Y-31061152D01*
X104041356Y-31051951D01*
X104061379Y-30956459D01*
X104856635Y-30956459D01*
X104857051Y-30960024D01*
X104857052Y-30960029D01*
X104896793Y-31300036D01*
X104896795Y-31300049D01*
X104897212Y-31303614D01*
X104898039Y-31307104D01*
X104898042Y-31307120D01*
X104976984Y-31640203D01*
X104976986Y-31640212D01*
X104977816Y-31643711D01*
X104979046Y-31647092D01*
X104979049Y-31647100D01*
X104997965Y-31699070D01*
X105097358Y-31972151D01*
X105098978Y-31975378D01*
X105098983Y-31975388D01*
X105222460Y-32221250D01*
X105254222Y-32284493D01*
X105256202Y-32287504D01*
X105256207Y-32287512D01*
X105444301Y-32573493D01*
X105446286Y-32576511D01*
X105448600Y-32579269D01*
X105448601Y-32579270D01*
X105668633Y-32841495D01*
X105668638Y-32841500D01*
X105670952Y-32844258D01*
X105925182Y-33084112D01*
X105928066Y-33086259D01*
X105928072Y-33086264D01*
X106099470Y-33213864D01*
X106205539Y-33292830D01*
X106208666Y-33294635D01*
X106208670Y-33294638D01*
X106388817Y-33398645D01*
X106508231Y-33467589D01*
X106829164Y-33606026D01*
X107163999Y-33706269D01*
X107508208Y-33766962D01*
X107769830Y-33782200D01*
X107942650Y-33782200D01*
X107944440Y-33782200D01*
X108206062Y-33766962D01*
X108550271Y-33706269D01*
X108660733Y-33673199D01*
X108871637Y-33610059D01*
X108928732Y-33606734D01*
X108981248Y-33629387D01*
X109018010Y-33673199D01*
X109031200Y-33728850D01*
X109031200Y-45893101D01*
X109031159Y-45893200D01*
X109031200Y-45893299D01*
X109031317Y-45893583D01*
X109031700Y-45893741D01*
X109031799Y-45893700D01*
X123031151Y-45893700D01*
X123031250Y-45893741D01*
X123031633Y-45893583D01*
X123031750Y-45893299D01*
X123031791Y-45893200D01*
X128081209Y-45893200D01*
X128081250Y-45893299D01*
X128081367Y-45893583D01*
X128081750Y-45893741D01*
X128081849Y-45893700D01*
X142080951Y-45893700D01*
X142081050Y-45893741D01*
X142081433Y-45893583D01*
X142081550Y-45893299D01*
X142081591Y-45893200D01*
X147131209Y-45893200D01*
X147131250Y-45893299D01*
X147131367Y-45893583D01*
X147131750Y-45893741D01*
X147131849Y-45893700D01*
X161130951Y-45893700D01*
X161131050Y-45893741D01*
X161131433Y-45893583D01*
X161131550Y-45893299D01*
X161131591Y-45893200D01*
X166181209Y-45893200D01*
X166181250Y-45893299D01*
X166181367Y-45893583D01*
X166181750Y-45893741D01*
X166181849Y-45893700D01*
X180180951Y-45893700D01*
X180181050Y-45893741D01*
X180181433Y-45893583D01*
X180181550Y-45893299D01*
X180181591Y-45893200D01*
X180181550Y-45893101D01*
X180181550Y-33728395D01*
X180194740Y-33672744D01*
X180231502Y-33628932D01*
X180284018Y-33606279D01*
X180341113Y-33609604D01*
X180660538Y-33705233D01*
X180660540Y-33705233D01*
X180663999Y-33706269D01*
X181008208Y-33766962D01*
X181269830Y-33782200D01*
X181442650Y-33782200D01*
X181444440Y-33782200D01*
X181706062Y-33766962D01*
X182050271Y-33706269D01*
X182385106Y-33606026D01*
X182706039Y-33467589D01*
X183008731Y-33292830D01*
X183289088Y-33084112D01*
X183543318Y-32844258D01*
X183767984Y-32576511D01*
X183960048Y-32284493D01*
X184116912Y-31972151D01*
X184236454Y-31643711D01*
X184317058Y-31303614D01*
X184357635Y-30956459D01*
X184357635Y-30606941D01*
X184317058Y-30259786D01*
X184309126Y-30226320D01*
X184237285Y-29923196D01*
X184236454Y-29919689D01*
X184116912Y-29591249D01*
X183960048Y-29278907D01*
X183938847Y-29246673D01*
X183824320Y-29072543D01*
X183767984Y-28986889D01*
X183686548Y-28889837D01*
X183545636Y-28721904D01*
X183545632Y-28721900D01*
X183543318Y-28719142D01*
X183289088Y-28479288D01*
X183286204Y-28477141D01*
X183286197Y-28477135D01*
X183011631Y-28272729D01*
X183008731Y-28270570D01*
X183005608Y-28268767D01*
X183005599Y-28268761D01*
X182709164Y-28097615D01*
X182709161Y-28097613D01*
X182706039Y-28095811D01*
X182702738Y-28094387D01*
X182702728Y-28094382D01*
X182459140Y-27989309D01*
X182385106Y-27957374D01*
X182381665Y-27956343D01*
X182381660Y-27956342D01*
X182053726Y-27858165D01*
X182053720Y-27858163D01*
X182050271Y-27857131D01*
X182046723Y-27856505D01*
X182046713Y-27856503D01*
X181709627Y-27797066D01*
X181709616Y-27797064D01*
X181706062Y-27796438D01*
X181702454Y-27796227D01*
X181702447Y-27796227D01*
X181446230Y-27781304D01*
X181446221Y-27781303D01*
X181444440Y-27781200D01*
X181269830Y-27781200D01*
X181268049Y-27781303D01*
X181268039Y-27781304D01*
X181011822Y-27796227D01*
X181011813Y-27796228D01*
X181008208Y-27796438D01*
X181004655Y-27797064D01*
X181004642Y-27797066D01*
X180667556Y-27856503D01*
X180667542Y-27856506D01*
X180663999Y-27857131D01*
X180660553Y-27858162D01*
X180660543Y-27858165D01*
X180332609Y-27956342D01*
X180332599Y-27956345D01*
X180329164Y-27957374D01*
X180325863Y-27958797D01*
X180325860Y-27958799D01*
X180011541Y-28094382D01*
X180011524Y-28094390D01*
X180008231Y-28095811D01*
X180005115Y-28097609D01*
X180005105Y-28097615D01*
X179708670Y-28268761D01*
X179708653Y-28268771D01*
X179705539Y-28270570D01*
X179702646Y-28272723D01*
X179702638Y-28272729D01*
X179428072Y-28477135D01*
X179428056Y-28477148D01*
X179425182Y-28479288D01*
X179422565Y-28481756D01*
X179422559Y-28481762D01*
X179173580Y-28716662D01*
X179173574Y-28716667D01*
X179170952Y-28719142D01*
X179168645Y-28721890D01*
X179168633Y-28721904D01*
X178948601Y-28984129D01*
X178948593Y-28984138D01*
X178946286Y-28986889D01*
X178944306Y-28989898D01*
X178944301Y-28989906D01*
X178756207Y-29275887D01*
X178756197Y-29275903D01*
X178754222Y-29278907D01*
X178752602Y-29282131D01*
X178752600Y-29282136D01*
X178598983Y-29588011D01*
X178598975Y-29588027D01*
X178597358Y-29591249D01*
X178596120Y-29594647D01*
X178596120Y-29594650D01*
X178479049Y-29916299D01*
X178479045Y-29916312D01*
X178477816Y-29919689D01*
X178476987Y-29923182D01*
X178476984Y-29923196D01*
X178398042Y-30256279D01*
X178398038Y-30256298D01*
X178397212Y-30259786D01*
X178396795Y-30263347D01*
X178396793Y-30263363D01*
X178357052Y-30603370D01*
X178356635Y-30606941D01*
X178356635Y-30956459D01*
X178357051Y-30960024D01*
X178357052Y-30960029D01*
X178396793Y-31300036D01*
X178396795Y-31300049D01*
X178397212Y-31303614D01*
X178398039Y-31307104D01*
X178398042Y-31307120D01*
X178476984Y-31640203D01*
X178476986Y-31640212D01*
X178477816Y-31643711D01*
X178479045Y-31647087D01*
X178479049Y-31647101D01*
X178508236Y-31727290D01*
X178514653Y-31785886D01*
X178493289Y-31840824D01*
X178448971Y-31879689D01*
X178391714Y-31893700D01*
X166181849Y-31893700D01*
X166181750Y-31893659D01*
X166181651Y-31893700D01*
X166181367Y-31893817D01*
X166181209Y-31894200D01*
X166181250Y-31894299D01*
X166181250Y-45893101D01*
X166181209Y-45893200D01*
X161131591Y-45893200D01*
X161131550Y-45893101D01*
X161131550Y-31894299D01*
X161131591Y-31894200D01*
X161131433Y-31893817D01*
X161131149Y-31893700D01*
X161131050Y-31893659D01*
X161130951Y-31893700D01*
X147131849Y-31893700D01*
X147131750Y-31893659D01*
X147131651Y-31893700D01*
X147131367Y-31893817D01*
X147131209Y-31894200D01*
X147131250Y-31894299D01*
X147131250Y-45893101D01*
X147131209Y-45893200D01*
X142081591Y-45893200D01*
X142081550Y-45893101D01*
X142081550Y-31894299D01*
X142081591Y-31894200D01*
X142081433Y-31893817D01*
X142081149Y-31893700D01*
X142081050Y-31893659D01*
X142080951Y-31893700D01*
X128081849Y-31893700D01*
X128081750Y-31893659D01*
X128081651Y-31893700D01*
X128081367Y-31893817D01*
X128081209Y-31894200D01*
X128081250Y-31894299D01*
X128081250Y-45893101D01*
X128081209Y-45893200D01*
X123031791Y-45893200D01*
X123031750Y-45893101D01*
X123031750Y-31894299D01*
X123031791Y-31894200D01*
X123031633Y-31893817D01*
X123031349Y-31893700D01*
X123031250Y-31893659D01*
X123031151Y-31893700D01*
X110822556Y-31893700D01*
X110765299Y-31879689D01*
X110720981Y-31840824D01*
X110699617Y-31785886D01*
X110706034Y-31727290D01*
X110721837Y-31683871D01*
X110736454Y-31643711D01*
X110817058Y-31303614D01*
X110857635Y-30956459D01*
X110857635Y-30606941D01*
X110817058Y-30259786D01*
X110809126Y-30226320D01*
X110737285Y-29923196D01*
X110736454Y-29919689D01*
X110616912Y-29591249D01*
X110460048Y-29278907D01*
X110438847Y-29246673D01*
X110324320Y-29072543D01*
X110267984Y-28986889D01*
X110186548Y-28889837D01*
X110045636Y-28721904D01*
X110045632Y-28721900D01*
X110043318Y-28719142D01*
X109789088Y-28479288D01*
X109786204Y-28477141D01*
X109786197Y-28477135D01*
X109511631Y-28272729D01*
X109508731Y-28270570D01*
X109505608Y-28268767D01*
X109505599Y-28268761D01*
X109209164Y-28097615D01*
X109209161Y-28097613D01*
X109206039Y-28095811D01*
X109202738Y-28094387D01*
X109202728Y-28094382D01*
X108959140Y-27989309D01*
X108885106Y-27957374D01*
X108881665Y-27956343D01*
X108881660Y-27956342D01*
X108553726Y-27858165D01*
X108553720Y-27858163D01*
X108550271Y-27857131D01*
X108546723Y-27856505D01*
X108546713Y-27856503D01*
X108209627Y-27797066D01*
X108209616Y-27797064D01*
X108206062Y-27796438D01*
X108202454Y-27796227D01*
X108202447Y-27796227D01*
X107946230Y-27781304D01*
X107946221Y-27781303D01*
X107944440Y-27781200D01*
X107769830Y-27781200D01*
X107768049Y-27781303D01*
X107768039Y-27781304D01*
X107511822Y-27796227D01*
X107511813Y-27796228D01*
X107508208Y-27796438D01*
X107504655Y-27797064D01*
X107504642Y-27797066D01*
X107167556Y-27856503D01*
X107167542Y-27856506D01*
X107163999Y-27857131D01*
X107160553Y-27858162D01*
X107160543Y-27858165D01*
X106832609Y-27956342D01*
X106832599Y-27956345D01*
X106829164Y-27957374D01*
X106825863Y-27958797D01*
X106825860Y-27958799D01*
X106511541Y-28094382D01*
X106511524Y-28094390D01*
X106508231Y-28095811D01*
X106505115Y-28097609D01*
X106505105Y-28097615D01*
X106208670Y-28268761D01*
X106208653Y-28268771D01*
X106205539Y-28270570D01*
X106202646Y-28272723D01*
X106202638Y-28272729D01*
X105928072Y-28477135D01*
X105928056Y-28477148D01*
X105925182Y-28479288D01*
X105922565Y-28481756D01*
X105922559Y-28481762D01*
X105673580Y-28716662D01*
X105673574Y-28716667D01*
X105670952Y-28719142D01*
X105668645Y-28721890D01*
X105668633Y-28721904D01*
X105448601Y-28984129D01*
X105448593Y-28984138D01*
X105446286Y-28986889D01*
X105444306Y-28989898D01*
X105444301Y-28989906D01*
X105256207Y-29275887D01*
X105256197Y-29275903D01*
X105254222Y-29278907D01*
X105252602Y-29282131D01*
X105252600Y-29282136D01*
X105098983Y-29588011D01*
X105098975Y-29588027D01*
X105097358Y-29591249D01*
X105096120Y-29594647D01*
X105096120Y-29594650D01*
X104979049Y-29916299D01*
X104979045Y-29916312D01*
X104977816Y-29919689D01*
X104976987Y-29923182D01*
X104976984Y-29923196D01*
X104898042Y-30256279D01*
X104898038Y-30256298D01*
X104897212Y-30259786D01*
X104896795Y-30263347D01*
X104896793Y-30263363D01*
X104857052Y-30603370D01*
X104856635Y-30606941D01*
X104856635Y-30956459D01*
X104061379Y-30956459D01*
X104086584Y-30836249D01*
X104086776Y-30835361D01*
X104130282Y-30639118D01*
X104132495Y-30630591D01*
X104140599Y-30603370D01*
X104195053Y-30420461D01*
X104195551Y-30418836D01*
X104256261Y-30226289D01*
X104258983Y-30218563D01*
X104338507Y-30014762D01*
X104339335Y-30012702D01*
X104416809Y-29825666D01*
X104419917Y-29818776D01*
X104515843Y-29622556D01*
X104517163Y-29619941D01*
X104610737Y-29440187D01*
X104614159Y-29434052D01*
X104725831Y-29246643D01*
X104727676Y-29243647D01*
X104836682Y-29072543D01*
X104840251Y-29067255D01*
X104966983Y-28889756D01*
X104969406Y-28886482D01*
X105092965Y-28725458D01*
X105096619Y-28720927D01*
X105237518Y-28554570D01*
X105240659Y-28551006D01*
X105377702Y-28401450D01*
X105381387Y-28397600D01*
X105535541Y-28243447D01*
X105539342Y-28239808D01*
X105688948Y-28102721D01*
X105692490Y-28099600D01*
X105858824Y-27958723D01*
X105863431Y-27955009D01*
X106024390Y-27831501D01*
X106027708Y-27829046D01*
X106205161Y-27702347D01*
X106210507Y-27698740D01*
X106381507Y-27589802D01*
X106384542Y-27587930D01*
X106571999Y-27476232D01*
X106578135Y-27472811D01*
X106757905Y-27379230D01*
X106760444Y-27377948D01*
X106956680Y-27282016D01*
X106963630Y-27278881D01*
X107150611Y-27201432D01*
X107152725Y-27200582D01*
X107356516Y-27121064D01*
X107364213Y-27118352D01*
X107556678Y-27057669D01*
X107558453Y-27057125D01*
X107768540Y-26994581D01*
X107777041Y-26992376D01*
X107973158Y-26948899D01*
X107974418Y-26948627D01*
X108189865Y-26903454D01*
X108199088Y-26901883D01*
X108396211Y-26875932D01*
X108396463Y-26875899D01*
X108617430Y-26848357D01*
X108627330Y-26847526D01*
X108814290Y-26839363D01*
X109045418Y-26829805D01*
X109050541Y-26829700D01*
X180164573Y-26829700D01*
X180169696Y-26829805D01*
G37*
%TD.AperFunction*%
M02*
