%TF.GenerationSoftware,KiCad,Pcbnew,(7.0.0)*%
%TF.CreationDate,2023-02-27T14:02:19+01:00*%
%TF.ProjectId,MPad2040_Plate,4d506164-3230-4343-905f-506c6174652e,rev?*%
%TF.SameCoordinates,Original*%
%TF.FileFunction,Soldermask,Bot*%
%TF.FilePolarity,Negative*%
%FSLAX46Y46*%
G04 Gerber Fmt 4.6, Leading zero omitted, Abs format (unit mm)*
G04 Created by KiCad (PCBNEW (7.0.0)) date 2023-02-27 14:02:19*
%MOMM*%
%LPD*%
G01*
G04 APERTURE LIST*
%ADD10C,0.800000*%
%ADD11C,1.500000*%
%ADD12C,5.500000*%
G04 APERTURE END LIST*
D10*
X180181050Y-45893200D02*
X166181750Y-45893200D01*
X166181750Y-31894200D01*
X180181050Y-31894200D01*
X180181050Y-45893200D01*
X142081050Y-74468400D02*
X128081750Y-74468400D01*
X128081750Y-60469100D01*
X142081050Y-60469100D01*
X142081050Y-74468400D01*
D11*
X180167135Y-26829200D02*
X180167135Y-26829200D01*
G75*
G02*
X185247135Y-31909200I-35J-5080000D01*
G01*
X185247135Y-150654200D01*
G75*
G02*
X180167135Y-155734200I-5080035J0D01*
G01*
X109047135Y-155734200D01*
G75*
G02*
X103967135Y-150654200I-35J5080000D01*
G01*
X103967135Y-31909200D01*
G75*
G02*
X109047135Y-26829200I5079965J0D01*
G01*
X180167135Y-26829200D01*
D10*
X142081050Y-112568400D02*
X128081750Y-112568400D01*
X128081750Y-98569100D01*
X142081050Y-98569100D01*
X142081050Y-112568400D01*
X180181050Y-82494100D02*
X181151150Y-82494100D01*
X181151150Y-85793300D01*
X180181050Y-85793300D01*
X180181050Y-106294300D01*
X181151150Y-106294300D01*
X181151150Y-109593500D01*
X180181050Y-109593500D01*
X180181050Y-112568400D01*
X166181750Y-112568400D01*
X166181750Y-79519100D01*
X180181050Y-79519100D01*
X180181050Y-82494100D01*
X123031250Y-93518400D02*
X109031700Y-93518400D01*
X109031700Y-79519100D01*
X123031250Y-79519100D01*
X123031250Y-93518400D01*
X142081050Y-150668560D02*
X139106050Y-150668560D01*
X139106050Y-151638700D01*
X135806950Y-151638700D01*
X135806950Y-150668560D01*
X115305900Y-150668560D01*
X115305900Y-151638700D01*
X112006890Y-151638700D01*
X112006890Y-150668560D01*
X109031700Y-150668560D01*
X109031700Y-136669100D01*
X142081050Y-136669100D01*
X142081050Y-150668560D01*
X161131050Y-112568400D02*
X147131750Y-112568400D01*
X147131750Y-98569100D01*
X161131050Y-98569100D01*
X161131050Y-112568400D01*
X142081050Y-93518400D02*
X128081750Y-93518400D01*
X128081750Y-79519100D01*
X142081050Y-79519100D01*
X142081050Y-93518400D01*
X123031250Y-74468400D02*
X109031700Y-74468400D01*
X109031700Y-60469100D01*
X123031250Y-60469100D01*
X123031250Y-74468400D01*
X123031250Y-45893200D02*
X109031700Y-45893200D01*
X109031700Y-31894200D01*
X123031250Y-31894200D01*
X123031250Y-45893200D01*
X161131050Y-93518400D02*
X147131750Y-93518400D01*
X147131750Y-79519100D01*
X161131050Y-79519100D01*
X161131050Y-93518400D01*
X161131050Y-150668560D02*
X147131750Y-150668560D01*
X147131750Y-136669100D01*
X161131050Y-136669100D01*
X161131050Y-150668560D01*
X180181050Y-120594300D02*
X181151150Y-120594300D01*
X181151150Y-123893300D01*
X180181050Y-123893300D01*
X180181050Y-144394350D01*
X181151150Y-144394350D01*
X181151150Y-147693390D01*
X180181050Y-147693390D01*
X180181050Y-150668560D01*
X166181750Y-150668560D01*
X166181750Y-117619200D01*
X180181050Y-117619200D01*
X180181050Y-120594300D01*
X142081050Y-45893200D02*
X128081750Y-45893200D01*
X128081750Y-31894200D01*
X142081050Y-31894200D01*
X142081050Y-45893200D01*
X161131050Y-45893200D02*
X147131750Y-45893200D01*
X147131750Y-31894200D01*
X161131050Y-31894200D01*
X161131050Y-45893200D01*
X180181050Y-74468400D02*
X166181750Y-74468400D01*
X166181750Y-60469100D01*
X180181050Y-60469100D01*
X180181050Y-74468400D01*
X161131050Y-74468400D02*
X147131750Y-74468400D01*
X147131750Y-60469100D01*
X161131050Y-60469100D01*
X161131050Y-74468400D01*
X123031250Y-112568400D02*
X109031700Y-112568400D01*
X109031700Y-98569100D01*
X123031250Y-98569100D01*
X123031250Y-112568400D01*
X123031250Y-131618600D02*
X109031700Y-131618600D01*
X109031700Y-117619200D01*
X123031250Y-117619200D01*
X123031250Y-131618600D01*
X161131050Y-131618600D02*
X147131750Y-131618600D01*
X147131750Y-117619200D01*
X161131050Y-117619200D01*
X161131050Y-131618600D01*
X142081050Y-131618600D02*
X128081750Y-131618600D01*
X128081750Y-117619200D01*
X142081050Y-117619200D01*
X142081050Y-131618600D01*
D12*
%TO.C,*%
X181357135Y-30781700D03*
%TD*%
%TO.C,*%
X181357135Y-151781700D03*
%TD*%
%TO.C,*%
X107857135Y-151781700D03*
%TD*%
%TO.C,*%
X107857135Y-30781700D03*
%TD*%
M02*
